<svg width="33" height="24" viewBox="0 0 33 24" fill="none" xmlns="http://www.w3.org/2000/svg">
  <path
    d="M10.1064 3.40851C10.8203 2.69726 11.5353 2.03776 12.3512 1.44172C12.5545 1.29318 13.1166 
    0.836386 13.0039 1.06105C12.2112 2.64058 11.1592 4.15664 10.2497 5.66081C6.95527 
    11.1093 3.82678 16.6979 1.17512 22.4896C1.11091 22.6299 1 22.7637 1 22.9179C1 
    23.301 1.35452 22.2377 1.54129 21.9028C2.55254 20.0892 3.7405 18.4623 5.12335 16.9065C8.71328 12.8673 13.1053 
    9.72138 16.8725 5.88287C18.806 3.91277 12.8777 9.70323 11.0457 11.7674C10.0216 12.9214 
    9.03584 14.1032 8.0686 15.3045C7.85951 15.5642 7.21706 16.2688 7.52731 16.1451C8.44742 
    15.7784 9.42706 14.9561 10.2338 14.448C12.7542 12.8602 15.315 11.3388 17.8755 9.81647C18.4955 9.44785 
    27.3888 3.56092 27.6824 3.82091C27.8231 3.94549 27.4428 4.1104 27.3162 4.24916C26.5686 5.06845 25.7965 
    5.86514 25.0396 6.67593C23.3265 8.5112 21.6089 10.3443 19.9133 12.1957C19.4234 12.7305 12.9904 19.5587
     13.9273 20.3801C14.5859 20.9575 24.4617 12.7263 25.358 12.0688C27.5324 10.4736 33.54 5.05911 31.6306 
     6.96144C30.0123 8.57379 28.5505 10.3449 26.8864 11.9102C24.966 13.7163 22.867 15.315 20.964 17.1444C20.4723 
     17.6171 20.3839 17.753 19.8496 17.3982"
    stroke="#0D21A1" stroke-width="2" stroke-linecap="round" />
</svg>