<svg width="297" height="250" viewBox="0 0 297 250" fill="none" xmlns="http://www.w3.org/2000/svg">
<g clip-path="url(#clip0_1244_254)">
<path d="M226.192 8.62598L176.37 8.47638C176.37 8.47638 169.545 70.9193 168.916 71.8642C168.286 72.8071 171.749 80.9842 171.749 80.9842C171.749 80.9842 181.878 76.4508 187.484 72.5846C193.109 68.7185 216.357 57.7106 216.357 57.7106L221.078 46.0728C221.078 46.0728 214.784 33.8071 219.19 25.6299C223.595 17.4528 226.192 8.62598 226.192 8.62598Z" fill="#F5C64C"/>
<path d="M262.245 8.01767C262.245 9.27554 273.869 65.4882 274.499 66.8307C275.128 68.1752 283.92 80.0413 283.92 80.0413L293.046 7.7027L262.245 8.01767Z" fill="#F5C64C"/>
<path d="M203.474 88.8464L212.915 91.3642L210.398 83.8149L203.474 88.8464Z" fill="#F5C64C"/>
<path d="M282.76 63.3445C282.563 63.8346 282.209 64.2323 281.619 64.4232C281.009 64.624 280.38 64.4823 279.888 64.126C279.593 63.8937 279.357 63.5767 279.239 63.2047C277.705 58.8386 276.721 54.2244 275.522 49.7579C274.302 45.2677 273.102 40.7775 271.883 36.2874C270.093 29.6319 268.578 22.6181 265.293 16.4842C264.959 15.8464 264.586 15.2224 264.192 14.6102C264.055 14.3779 263.897 14.1535 263.74 13.9291C263.701 13.8464 263.642 13.7716 263.583 13.689C263.484 13.5709 263.405 13.4468 263.327 13.3307C263.209 13.1653 263.091 13.0078 262.953 12.8425C262.776 12.5846 262.579 12.3346 262.383 12.0945C262.343 12.0354 262.304 11.9862 262.245 11.9291C262.127 11.7874 262.009 11.6457 261.891 11.5059C261.478 11.0413 261.065 10.5925 260.632 10.1693C260.534 10.0689 260.416 9.96257 260.298 9.85431C260.18 9.72045 260.062 9.60431 259.924 9.49604C259.491 9.0984 259.059 8.72439 258.606 8.36809C258.292 8.11809 257.957 7.87794 257.623 7.65353C257.288 7.40549 256.954 7.19683 256.639 6.99801C256.384 6.83266 256.147 6.70864 255.911 6.57478C255.616 6.40942 255.302 6.24408 255.007 6.09447C254.869 6.02754 254.751 5.96061 254.633 5.9114C253.925 5.57872 253.217 5.27951 252.469 5.03148C252.135 4.90746 251.801 4.80707 251.466 4.70864C251.407 4.69092 251.349 4.67517 251.309 4.66729C250.503 4.43304 249.677 4.25194 248.851 4.11808C247.71 3.91926 246.569 3.811 245.428 3.80313C243.147 3.76179 240.884 4.07675 238.701 4.75786C237.108 5.25589 235.574 5.94487 234.119 6.83266C233.233 7.37203 232.407 7.95273 231.601 8.60037C231.031 9.05706 230.48 9.53737 229.949 10.0531C229.103 10.8661 228.336 11.7539 227.608 12.6909C227.49 12.8425 227.392 12.9901 227.294 13.1397C227.195 13.2559 227.116 13.372 227.038 13.498C226.389 14.4016 225.838 15.3484 225.327 16.3268C225.268 16.435 225.208 16.5354 225.149 16.6437C225.051 16.8326 224.933 17.0157 224.815 17.1988C224.186 18.1948 223.458 19.1417 223.124 20.2362C222.769 21.4153 220.98 21.1004 221.216 19.8464C221.353 19.1161 221.412 18.3937 221.471 17.6712C221.491 17.4567 221.53 17.2401 221.55 17.0236C221.688 16.0945 222.022 15.1988 222.416 14.3445C222.553 14.0866 222.671 13.8287 222.809 13.5807C223.419 12.376 224.166 11.2323 224.972 10.1437C225.071 10.0118 225.169 9.87793 225.268 9.74604C225.582 9.36415 225.877 8.99013 226.192 8.62596C227.451 7.20667 228.847 5.91139 230.362 4.79919C231.404 4.04328 232.506 3.36414 233.627 2.78147C239.744 -0.35436 246.923 -0.852389 253.433 1.3543C255.754 2.15155 257.898 3.23816 259.825 4.58265C261.399 5.65352 262.835 6.89958 264.133 8.29328C264.468 8.64958 264.802 9.01572 265.117 9.39761C266.002 10.4508 266.808 11.5708 267.556 12.7578C268.008 13.4803 268.441 14.2283 268.834 15C272.335 21.7894 274.007 29.3583 275.994 36.6791C277.135 40.9035 278.295 45.1181 279.455 49.3445C280.596 53.5433 281.993 57.7598 282.838 62.0334C282.917 62.4901 282.897 62.9468 282.76 63.3445Z" fill="#1E1E1E"/>
<path d="M236.656 54.5059C236.597 55.061 236.577 55.6338 236.558 56.183C236.518 57.0374 236.459 57.9015 236.439 58.7559L236.42 59.8504C234.964 58.8307 233.489 57.9429 231.797 57.3031C229.791 56.5551 227.667 56.0984 225.543 55.8917C221.943 55.5433 218.344 55.809 214.863 56.622C214.922 56.5216 214.961 56.4153 215.02 56.3149L217.105 52.4803C217.774 51.2519 218.442 50.0157 219.131 48.7795C219.347 48.3799 219.564 47.9744 219.76 47.559C220.567 48.7716 221.53 49.874 222.632 50.813C225.917 53.6338 230.264 54.9035 234.551 54.7126C235.259 54.6811 235.968 54.6142 236.656 54.5059Z" fill="#1E1E1E"/>
<path d="M247.768 48.9114C245.506 51.2185 242.635 52.9035 239.547 53.8425C238.603 54.1417 237.639 54.3563 236.656 54.5059C235.967 54.6142 235.259 54.6811 234.551 54.7126C230.263 54.9035 225.916 53.6338 222.631 50.813C221.53 49.874 220.566 48.7716 219.76 47.559C219.17 46.6712 218.658 45.7323 218.226 44.7539C217.714 43.5827 217.301 42.3642 217.026 41.1358C216.062 37.0275 216.219 32.8268 217.203 28.7441C217.754 26.4783 218.501 24.2362 219.406 22.0866C219.858 20.9665 220.33 19.8287 220.881 18.75C221.058 18.3858 221.254 18.0295 221.471 17.6712C221.569 17.5315 221.648 17.3898 221.727 17.248C222.041 16.7421 222.494 16.3445 222.769 15.8464C223.163 15.1161 224.166 15.1161 224.677 15.5728C224.933 15.7795 225.07 16.0945 224.972 16.4842C224.972 16.5276 224.952 16.5689 224.952 16.6102C224.874 16.8012 224.835 17 224.815 17.1988C224.736 17.622 224.716 18.0374 224.598 18.4528C224.441 19.0079 224.244 19.565 224.067 20.1201C223.674 21.25 223.222 22.3622 222.848 23.4901C222.101 25.6653 221.412 27.8464 220.96 30.0964C219.721 36.3622 220.448 43.7736 225.759 48.0413C228.454 50.2145 232.132 50.8878 235.495 50.5059C239.193 50.0906 242.536 48.2559 245.723 46.4961C247.237 45.6575 249.086 47.559 247.768 48.9114Z" fill="#1E1E1E"/>
<path d="M230.597 20.8405C230.578 20.7342 230.558 20.6299 230.538 20.5236C230.499 20.3642 230.42 20.2263 230.302 20.1102C230.125 19.9035 229.87 19.7264 229.614 19.683C229.398 19.6496 229.181 19.6614 228.965 19.7185C228.689 19.7933 228.335 20.0728 228.237 20.3425C228.119 20.6378 228.02 20.933 227.922 21.2303C227.843 21.435 227.804 21.6516 227.765 21.8602C227.706 22.0708 227.686 22.2913 227.667 22.5059C227.667 22.6063 227.647 22.7066 227.647 22.807C227.627 23.0728 227.608 23.2992 227.686 23.5551C227.726 23.7027 227.804 23.8386 227.883 23.9764C228.06 24.3327 228.492 24.5275 228.866 24.5551C229.279 24.5846 229.614 24.435 229.909 24.1496C230.125 23.9311 230.263 23.6358 230.341 23.3346C230.361 23.2303 230.4 23.124 230.42 23.0177C230.459 22.8149 230.519 22.6141 230.538 22.4055C230.558 22.0984 230.617 21.7815 230.617 21.4744C230.617 21.2638 230.617 21.0512 230.597 20.8405Z" fill="#1E1E1E"/>
<path d="M247.945 22.2283C247.867 22.1279 247.768 22.0275 247.69 21.9252C247.532 21.7775 247.355 21.6771 247.158 21.624C247.04 21.563 246.903 21.5354 246.765 21.5433C246.568 21.5118 246.391 21.5315 246.195 21.6004C246.077 21.6575 245.959 21.7126 245.841 21.7677C245.605 21.9173 245.428 22.1142 245.31 22.3602C245.113 22.6791 244.916 23 244.798 23.3523C244.68 23.6496 244.562 23.9488 244.484 24.2539C244.464 24.3405 244.425 24.4291 244.405 24.5177C244.346 24.7952 244.346 25.1575 244.444 25.4212C244.464 25.4527 244.484 25.4842 244.503 25.5157C244.543 25.6752 244.601 25.8327 244.68 25.9645C244.759 26.0649 244.838 26.1653 244.936 26.2677C245.093 26.4153 245.251 26.5157 245.467 26.5669C245.585 26.6299 245.723 26.6555 245.86 26.6496C245.978 26.6752 246.116 26.6673 246.234 26.6279C246.45 26.5866 246.647 26.4941 246.824 26.376C246.864 26.3563 246.903 26.3405 246.942 26.313C247.198 26.1516 247.434 25.8897 247.552 25.6181C247.591 25.5433 247.611 25.4645 247.65 25.3878C247.768 25.0866 247.867 24.7716 247.965 24.4606C248.064 24.1024 248.122 23.7303 248.162 23.3602C248.201 22.9744 248.182 22.561 247.945 22.2283Z" fill="#1E1E1E"/>
<path d="M237.757 23.1909C237.639 24.4606 237.285 25.6732 236.793 26.8425C236.498 27.498 236.145 28.0472 235.692 28.5945C235.299 29.0846 234.905 29.6161 234.237 29.7638C233.804 29.8642 233.273 29.6811 233.135 29.1909C232.938 28.5275 233.174 28.122 233.312 27.498C233.391 27.0669 233.489 26.6693 233.627 26.246C233.961 25.2657 234.276 24.2696 234.433 23.2401C234.689 21.6633 234.512 19.9705 233.764 18.5512C233.036 17.1831 231.876 16.1043 230.46 15.7874C229.004 15.4645 227.53 15.7303 226.349 16.6259C225.897 16.9665 225.464 16.8996 225.149 16.6437C225.09 16.6004 225.031 16.5433 224.972 16.4842C224.776 16.2441 224.658 15.9035 224.677 15.5728C224.677 15.3484 224.756 15.1161 224.913 14.9173C225.346 14.3267 225.897 13.8622 226.506 13.5059C226.762 13.3642 227.018 13.2401 227.294 13.1397C228.375 12.7086 229.595 12.5925 230.775 12.7421C231.542 12.8425 232.25 13.0649 232.938 13.3897C234.295 14.0374 235.436 15.0827 236.242 16.3445C237.541 18.3858 237.993 20.809 237.757 23.1909Z" fill="#1E1E1E"/>
<path d="M238.367 35.5095C238.444 35.4805 238.405 35.4883 238.347 35.5154C238.347 35.5115 238.367 35.5095 238.367 35.5095Z" fill="#1E1E1E"/>
<path d="M240.039 35.7303C239.626 35.3149 238.977 35.2755 238.446 35.4842C238.17 35.5374 238.013 35.5689 237.856 35.6181C237.698 35.6693 237.541 35.7342 237.364 35.7814C237.207 35.8287 237.049 35.874 236.872 35.9193C236.754 35.9547 236.204 36.0413 236.617 35.9941C236.282 36.0315 235.968 36.0826 235.633 36.0964C235.476 36.1023 235.338 36.1004 235.181 36.1004C235.142 36.1004 235.082 36.0984 235.043 36.0944C235.004 36.0905 234.945 36.0846 234.886 36.0767C234.492 36.0295 234.138 35.9429 233.764 35.8385C233.725 35.8287 233.666 35.811 233.627 35.7972C233.588 35.7775 233.528 35.7598 233.469 35.7401C233.292 35.6732 233.115 35.6023 232.938 35.5216C232.604 35.3641 232.289 35.1712 231.955 34.9881C231.935 34.9744 231.856 34.9311 231.837 34.9114C231.778 34.8681 231.719 34.8248 231.66 34.7795C231.444 34.624 231.247 34.4803 231.011 34.3484C230.263 33.9035 229.536 34.7441 229.713 35.4685C229.87 36.1968 230.46 36.9448 231.011 37.437C231.581 37.9488 232.25 38.3661 232.958 38.6338C234.532 39.2224 236.164 39.3622 237.797 38.9606C238.662 38.7539 239.351 38.2913 239.941 37.6791C240.452 37.1653 240.59 36.2716 240.039 35.7303Z" fill="#1E1E1E"/>
<path d="M256.521 19.128C256.207 18.4036 255.794 17.8012 255.263 17.2087C254.26 16.0906 252.961 15.2933 251.545 14.8169C248.752 13.876 245.231 14.6142 243.383 17C242.635 17.9606 243.658 19.2953 244.759 18.6516C245.664 18.1299 246.766 17.6693 247.749 17.5138C248.241 17.4311 248.87 17.4114 249.323 17.4488C249.519 17.4646 249.854 17.5177 250.09 17.5689C250.227 17.6004 250.385 17.6398 250.522 17.6752C250.739 17.7323 250.581 17.687 250.699 17.7323C251.742 18.1181 252.43 18.5984 253.138 19.4547C253.158 19.4803 253.276 19.6162 253.296 19.6457C253.374 19.7599 253.473 19.872 253.551 19.9862C253.709 20.2146 253.866 20.4547 254.023 20.6909C254.338 21.1653 254.613 21.563 255.046 21.7795C255.636 22.1929 256.266 22.0295 256.58 21.4508C257.111 20.8209 256.836 19.8032 256.521 19.128Z" fill="#1E1E1E"/>
<path d="M263.72 38.2382C261.851 39.9646 259.353 40.8858 256.836 40.8189C255.931 40.8032 255.006 40.6535 254.121 40.372C253.866 40.2894 253.629 40.1634 253.433 40.0059C252.961 39.6418 252.705 39.0925 252.843 38.4213C253 37.6083 253.944 36.8602 254.79 37.1338C255.164 37.25 255.498 37.3347 255.852 37.3839C259.57 37.9488 263.287 35.4823 263.484 31.4409C263.562 29.6811 262.815 27.624 260.966 27.1162C259.904 26.8268 258.842 27.3662 258.586 28.2618C258.665 28.7776 258.724 29.2992 258.763 29.8228C258.98 31.9055 256.108 32.1791 255.38 30.4626C255.085 29.7224 254.987 28.9587 255.065 28.2284C254.633 25.1752 253.944 22.187 252.961 19.2579C252.626 18.1949 252.233 17.1496 251.82 16.1201C251.624 15.6555 251.427 15.1811 251.23 14.7264C250.994 14.1693 250.738 13.622 250.482 13.0748C249.932 11.9291 249.342 10.7992 248.712 9.70474C248.476 9.28938 248.241 8.89174 248.005 8.48426C247.257 7.24804 246.49 6.00197 245.86 4.71654C245.703 4.41733 245.565 4.11025 245.428 3.80316C245.369 3.6693 245.31 3.5374 245.27 3.40551C244.818 2.30118 246.234 1.70276 247.021 2.2756C247.71 2.7815 248.299 3.43898 248.85 4.11811C249.008 4.30118 249.165 4.49213 249.303 4.68308C249.44 4.82481 249.538 4.9567 249.656 5.09843C250.463 6.11811 251.171 7.18111 251.84 8.30907C251.86 8.35237 251.879 8.40159 251.899 8.44293C252.135 8.83269 252.351 9.23032 252.567 9.62993C253.177 10.7343 253.728 11.8543 254.259 13C254.554 13.6713 254.849 14.3524 255.124 15.0413C256.324 18.0039 257.268 21.0827 257.917 24.2205C258.468 23.9291 259.078 23.7382 259.727 23.6732C263.15 23.3327 265.962 26.0374 266.631 29.2421C267.3 32.4862 266.159 35.9882 263.72 38.2382Z" fill="#1E1E1E"/>
<path d="M256.718 50.1574C256.698 52.1397 256.659 54.1318 256.619 56.124C256.6 57.0866 256.58 58.0492 256.56 59.0039C256.56 59.6023 256.54 60.1161 256.422 60.622C256.344 61.0295 256.226 61.4271 256.009 61.8602C255.439 63.1043 253.748 62.7814 253.256 61.6771C252.509 59.8759 252.902 57.6102 252.941 55.7165C253 53.8011 253.039 51.8759 253.079 49.9488C253.157 46.6968 253 43.2677 253.433 40.0059C253.531 39.4094 253.63 38.811 253.748 38.2303C253.885 37.557 254.318 37.2184 254.81 37.1436C255.164 37.0846 255.538 37.1673 255.852 37.3838C256.206 37.6004 256.482 37.9645 256.56 38.4369C256.698 39.2263 256.797 40.0236 256.836 40.8189C257.052 43.9074 256.777 47.1023 256.718 50.1574Z" fill="#1E1E1E"/>
<path d="M239.862 64.25C239.724 65.122 238.859 65.685 238.033 65.6279C237.108 65.561 236.538 64.872 236.4 64C236.361 63.7342 236.341 63.4606 236.341 63.1791C236.341 62.5649 236.4 61.9251 236.4 61.3287C236.42 60.8385 236.42 60.3405 236.42 59.8504L236.439 58.7559C236.459 57.9015 236.518 57.0373 236.557 56.183C236.577 55.6338 236.597 55.061 236.656 54.5059C236.695 54.1161 236.774 53.7342 236.892 53.3602C237.069 52.813 237.462 52.3641 238.072 52.3307C238.662 52.2972 239.193 52.6791 239.39 53.2204C239.449 53.4193 239.508 53.6259 239.547 53.8425C239.685 54.5472 239.724 55.2854 239.743 56C239.783 56.8878 239.842 57.7756 239.881 58.6634C239.881 59.5511 239.881 60.4409 239.901 61.3287C239.921 62.2913 239.999 63.3031 239.862 64.25Z" fill="#1E1E1E"/>
<path d="M282.936 84.6417C281.481 80.2263 279.554 75.8602 276.8 72.1102C276.151 71.2126 275.443 70.3504 274.676 69.5374C274.066 68.872 273.417 68.2421 272.728 67.6358C270.388 65.5866 267.556 64 264.527 63.1949C263.405 62.8878 262.265 62.7303 261.144 62.6653C260.022 62.5984 258.921 62.622 257.78 62.6653C256.934 62.6968 256.069 62.748 255.223 62.7815C253.964 62.8228 253.433 61.2047 254.476 60.5059C254.692 60.3563 254.908 60.2244 255.144 60.1082C255.597 59.8504 256.069 59.6437 256.561 59.4862C257.131 59.2874 257.702 59.1456 258.311 59.0551C260.141 58.7637 262.068 58.9055 263.877 59.2283C268.972 60.124 273.496 62.8799 277.016 66.6062C277.174 66.7814 277.351 66.9547 277.508 67.1378C277.764 67.4035 277.98 67.6771 278.216 67.9508C278.708 68.5315 279.16 69.1299 279.612 69.7441C279.671 69.8445 279.75 69.9429 279.829 70.0511C282.701 74.1259 284.648 78.8661 286.202 83.5886C286.89 85.6791 283.644 86.7342 282.936 84.6417Z" fill="#1E1E1E"/>
<path d="M236.341 63.1791C236.184 63.1614 236.046 63.0964 235.889 62.996C233.548 61.4271 230.775 60.3996 227.923 59.8582C226.998 59.685 226.074 59.561 225.149 59.4862C224.402 59.4193 223.674 59.3937 222.946 59.3937C213.918 59.4193 205.795 63.6771 198.419 68.5315C190.571 73.7106 183.196 79.6299 174.443 83.248C173.538 83.622 172.417 82.9567 172.142 82.0689C171.808 81.0728 172.397 80.1515 173.322 79.7618C178.357 77.6279 182.98 74.6161 187.464 71.5196C194.86 66.4488 202.156 60.9055 210.673 57.8681C211.184 57.685 211.715 57.5019 212.247 57.3366C213.112 57.0708 213.978 56.8307 214.863 56.622C218.344 55.809 221.943 55.5433 225.543 55.8917C227.667 56.0984 229.791 56.5551 231.797 57.3031C233.489 57.9429 234.964 58.8307 236.42 59.8504C236.774 60.1082 237.148 60.3818 237.502 60.6555C238.662 61.5196 237.541 63.3956 236.341 63.1791Z" fill="#1E1E1E"/>
<path d="M256.147 63.2677C255.046 68.7125 250.502 73.0669 245.172 74.4409C239.842 75.8208 234.275 73.3366 231.069 68.9783C229.162 66.3917 228.237 63.3937 227.981 60.2145C227.863 58.5629 225.228 58.2322 224.992 59.996C224.087 66.8563 228.748 73.7244 234.747 76.7283C241.1 79.8996 248.614 78.4389 253.826 73.7972C256.678 71.2499 258.685 67.6988 259.314 63.9192C259.668 61.8681 256.56 61.2047 256.147 63.2677Z" fill="#1E1E1E"/>
<path d="M220.547 44.7126C220.547 45.7244 220.193 46.6633 219.76 47.559C219.564 47.9744 219.347 48.3799 219.131 48.7795C218.442 50.0157 217.774 51.2519 217.105 52.4803L215.02 56.3149C214.961 56.4153 214.922 56.5216 214.863 56.622C214.607 57.0945 214.332 57.5688 214.076 58.0492C213.683 58.7637 213.368 59.5767 212.64 60.0078C211.755 60.5236 210.516 60 210.457 58.8956C210.457 58.5157 210.535 58.183 210.673 57.8681C210.83 57.4448 211.067 57.0531 211.303 56.6299C211.637 56.0157 211.991 55.4015 212.325 54.7874C213.014 53.559 213.702 52.3307 214.391 51.1023C215.099 49.8326 215.807 48.5551 216.515 47.2933C217.027 46.4134 217.518 45.4921 218.226 44.7539C218.482 44.4626 218.777 44.2066 219.131 43.9901C219.682 43.6338 220.547 44.0059 220.547 44.7126Z" fill="#1E1E1E"/>
<path d="M283.074 64.6319C283.015 64.1673 282.936 63.752 282.759 63.3445C282.681 63.187 282.602 63.0216 282.523 62.8563C282.326 62.5236 282.11 62.2657 281.815 62.0335C281.658 61.9252 281.481 61.8012 281.481 61.7933C281.363 61.7343 281.245 61.7008 281.107 61.685C280.832 61.561 280.478 61.5689 280.202 61.7441C279.927 61.9252 279.73 62.315 279.77 62.6653C279.77 62.6968 279.75 62.7401 279.75 62.7716C279.73 62.8464 279.73 62.9134 279.75 62.9803C279.75 63.063 279.77 63.0551 279.77 62.9705C279.77 62.9291 279.77 62.9882 279.77 63.0886C279.73 63.2618 279.75 63.437 279.829 63.6024C279.829 63.6693 279.848 63.7264 279.868 63.7933C279.868 63.9351 279.888 64.0335 279.888 64.126C279.908 64.3248 279.947 64.5079 279.947 64.689V64.939C279.927 65.1378 279.888 65.3209 279.848 65.5039C279.711 65.876 279.612 66.0256 279.553 66.1673C279.455 66.2658 279.416 66.3248 279.416 66.3405C279.337 66.4154 279.278 66.4902 279.199 66.5571C279.081 66.6575 279.042 66.689 279.022 66.6988C278.963 66.748 278.885 66.7894 278.826 66.8307C278.767 66.8721 278.688 66.9055 278.609 66.9468C278.452 66.9961 278.294 67.063 278.117 67.1221C278.019 67.1378 277.941 67.1457 277.882 67.1535C277.783 67.1634 277.528 67.122 277.41 67.1535C277.488 67.1535 277.606 67.2047 277.429 67.1634C277.272 67.1378 277.173 67.1221 277.075 67.0965C276.504 66.9646 275.875 67.187 275.482 67.6201C275.325 67.7933 275.206 67.9843 275.128 68.1752C275.049 68.441 275.049 68.7224 275.088 69.0217C275.01 69.1968 274.971 69.254 274.931 69.2874C274.833 69.3957 274.754 69.4528 274.675 69.5374C275.442 70.3504 276.151 71.2126 276.8 72.1102C277.154 71.9272 277.468 71.6457 277.724 71.313C277.822 71.1791 277.921 71.0394 278.019 70.8898C278.078 70.7658 278.137 70.6319 278.176 70.5C278.747 70.4331 279.298 70.2835 279.829 70.0512C280.871 69.5945 281.776 68.8228 282.386 67.8189C282.956 66.9055 283.172 65.7028 283.074 64.6319Z" fill="#1E1E1E"/>
<path d="M279.947 64.689V64.939C279.928 65.1378 279.888 65.3209 279.849 65.5039C279.809 65.6279 279.77 65.6772 279.77 65.7106C279.711 65.876 279.612 66.0256 279.553 66.1673C279.455 66.2658 279.416 66.3248 279.416 66.3406C279.337 66.4154 279.278 66.4902 279.2 66.5571C279.082 66.6575 279.042 66.689 279.022 66.6988C278.963 66.748 278.885 66.7894 278.826 66.8307C278.767 66.8721 278.688 66.9055 278.609 66.9468C278.452 66.9961 278.295 67.063 278.118 67.1221C278.019 67.1378 277.941 67.1457 277.882 67.1535C277.784 67.1634 277.528 67.122 277.41 67.1535C277.272 67.1378 277.173 67.1221 277.075 67.0965C276.505 66.9646 275.876 67.187 275.482 67.6201C275.325 67.7933 275.207 67.9843 275.128 68.1752C271.627 64.4488 267.083 61.6929 261.989 60.7973C260.18 60.4725 258.252 60.3327 256.423 60.622C256.541 60.1161 256.561 59.6024 256.561 59.0039C256.58 58.0492 256.6 57.0866 256.62 56.124C256.659 54.1319 256.698 52.1398 256.718 50.1575C256.777 47.1024 257.053 43.9075 256.836 40.8189C259.354 40.8858 261.852 39.9646 263.72 38.2382C266.159 35.9882 267.3 32.4862 266.631 29.2421C265.963 26.0374 263.15 23.3327 259.728 23.6732C259.078 23.7382 258.468 23.9291 257.918 24.2205C257.269 21.0827 256.325 18.0039 255.125 15.0413C254.2 12.7244 253.099 10.4685 251.84 8.30906C251.172 7.18111 250.463 6.11811 249.657 5.09842C249.401 4.77362 249.126 4.44291 248.851 4.1181C249.736 4.25984 250.601 4.45866 251.466 4.70866C257.642 6.5 262.304 10.8996 265.293 16.4843C268.578 22.6181 270.093 29.6319 271.883 36.2874C273.102 40.7776 274.302 45.2677 275.522 49.7579C276.721 54.2244 277.705 58.8386 279.239 63.2047C279.357 63.5768 279.593 63.8937 279.888 64.126C279.908 64.3248 279.947 64.5079 279.947 64.689Z" fill="#1E1E1E"/>
<path d="M174.286 87.3976C172.673 85.4311 171.257 83.2638 169.919 81.0472C169.309 80.0275 168.719 78.998 168.129 77.9685C167.618 77.1063 167.146 76.2342 166.654 75.3622C165.336 72.939 164.078 70.4823 162.819 68.0256C161.127 64.6653 159.515 61.2539 157.961 57.8248C157.233 56.1653 156.505 54.5059 155.777 52.8386C155.423 52.0079 155.089 51.1693 154.754 50.3228C154.361 49.376 153.869 48.4311 153.81 47.4015C153.732 46.2716 155.344 45.2933 156.171 46.2716C157.37 47.6929 157.96 49.7834 158.688 51.4842C159.416 53.1535 160.144 54.813 160.891 56.4645C162.445 59.876 164.078 63.2539 165.75 66.5984C166.241 67.5354 166.713 68.4744 167.205 69.4035C168.267 71.4212 169.349 73.4212 170.43 75.4212C170.627 75.8031 170.844 76.1771 171.04 76.559C171.65 77.7027 172.299 78.8405 172.928 79.9783C173.499 81.0394 174.069 82.0945 174.62 83.1732C175.191 84.2598 175.722 85.3641 176.214 86.4842C176.745 87.7047 174.994 88.2362 174.286 87.3976Z" fill="#1E1E1E"/>
<path d="M209.572 82.7835C204.006 86.7067 198.144 90.2126 192.184 93.5295C189.254 95.1752 186.264 96.7461 183.235 98.2402C180.206 99.7362 177.138 101.291 173.951 102.411C171.139 103.398 168.031 104.012 165.277 102.539C163.075 101.358 161.58 99.1811 160.4 97.0414C158.924 94.3898 157.803 91.5374 156.564 88.7638C155.108 85.439 153.633 82.1122 152.178 78.7874C150.506 75.0217 148.854 71.2559 147.182 67.4921C145.51 63.7146 143.917 59.7283 141.714 56.2303C140.908 54.9626 139.039 55.939 139.413 57.3209C140.396 60.9823 142.048 64.5492 143.563 68.0217C145.097 71.5414 146.631 75.061 148.166 78.5807C149.7 82.1004 151.234 85.6201 152.768 89.1398C154.125 92.2284 155.364 95.3839 156.918 98.374C158.197 100.825 159.829 103.26 162.091 104.904C164.805 106.886 168.09 107.553 171.394 106.974C174.954 106.354 178.2 104.726 181.445 103.175C184.651 101.634 187.818 100.008 190.945 98.2992C198.007 94.4449 204.694 90.061 211.263 85.437C212.915 84.2697 211.224 81.6161 209.572 82.7835Z" fill="#1E1E1E"/>
<path d="M216.908 74.9291C217.557 73.7835 216.023 72.3189 214.941 73.1516C212.266 75.2146 210.791 78.5551 210.26 81.8366C209.984 83.435 209.926 85.0905 210.103 86.7008C210.299 88.3976 210.653 90.3268 211.558 91.7972C212.66 93.5787 215.216 92.187 214.744 90.2893C214.41 89.0079 213.898 87.8189 213.741 86.4901C213.584 85.1398 213.584 83.7795 213.8 82.437C214.253 79.6673 215.512 77.3287 216.908 74.9291Z" fill="#1E1E1E"/>
<path d="M163.861 25.8326C163.369 24.2578 161.855 23.0315 160.163 23.2303C158.373 23.437 157.39 24.9842 156.583 26.4055C155.58 28.2106 154.616 30.0472 153.633 31.8681C153.102 32.8405 152.571 33.807 152.02 34.7755C151.489 35.7559 150.879 36.6023 150.86 37.748C150.82 38.809 152.158 39.3543 152.984 38.8307C153.712 38.3523 154.027 37.6929 154.459 36.9409C154.892 36.1614 155.344 35.3819 155.797 34.6004C156.623 33.1614 157.449 31.7303 158.295 30.2972C158.747 29.5197 159.199 28.7441 159.632 27.9606C159.829 27.626 160.085 26.9114 160.458 26.7106C160.557 26.7204 160.596 26.8405 160.596 26.8956C160.714 27.5807 160.478 28.2559 160.301 28.9114C159.455 31.8582 158.452 34.7677 157.351 37.6259C156.78 39.0688 156.19 40.4941 155.6 41.9212C154.951 43.4665 154.282 44.9881 154.086 46.6633C153.968 47.6771 155.089 48.2952 155.856 47.5649C157.351 46.1397 158.196 44.2323 159.022 42.3681C159.789 40.6023 160.517 38.8051 161.186 36.996C161.874 35.1634 162.504 33.3149 163.094 31.4508C163.664 29.6909 164.471 27.685 163.861 25.8326Z" fill="#1E1E1E"/>
<path d="M137.23 41.1515C136.462 44.0984 135.558 47.2263 136.679 50.1988C136.797 50.5216 136.934 50.8287 137.111 51.1279C138.174 53.1535 139.964 54.7224 140.809 56.8877C141.163 57.809 140.101 58.5236 139.315 58.1732C137.643 57.4448 136.246 56.0905 135.164 54.5393C134.495 53.5925 133.925 52.5728 133.512 51.5767C133.492 51.5177 133.453 51.4685 133.434 51.4094C133.532 51.2697 133.61 51.1279 133.689 50.9862C134.653 49.3267 135.459 47.5846 136.049 45.75C136.443 44.5551 136.64 43.2677 136.777 41.9901C136.758 41.9567 136.718 41.9232 136.718 41.8818C136.325 41.2263 136.147 40.4212 135.931 39.6909C135.695 38.9527 135.459 38.2145 135.223 37.4665C135.066 37.0177 134.928 36.561 134.771 36.1063C135.204 34.4134 135.636 32.7283 136.089 31.0433C136.934 27.748 137.82 24.4527 138.724 21.1752C139.314 19 142.698 19.6712 142.166 21.8799C140.888 27.0826 139.511 32.2716 138.174 37.4586C137.859 38.687 137.544 39.9232 137.23 41.1515Z" fill="#1E1E1E"/>
<path d="M159.77 11.2913C158.57 10.6338 156.977 10.7579 155.836 11.4842C154.44 12.3701 153.791 13.9291 153.259 15.4232C152.65 17.252 150.88 22.6614 150.27 24.496C149.68 26.2775 148.834 28.3681 148.893 30.2677C148.932 31.0315 149.975 31.4409 150.486 30.8327C151.47 29.6358 152.001 27.9488 152.532 26.5059C153.083 25.0138 153.574 23.4941 154.105 21.9882C154.518 20.75 156.013 15.7008 156.78 14.6043C156.997 14.2697 157.941 13.3464 158.452 13.8563C158.767 14.185 158.334 15.1063 158.236 15.4547C157.98 16.252 156.564 20.6122 156.328 21.4094C155.856 22.9429 155.384 24.4705 154.892 25.996C153.869 29.1693 152.846 32.3425 151.824 35.5177C151.627 36.1574 152.178 36.8445 152.787 36.9744C153.496 37.1299 154.027 36.6417 154.243 36.0137C155.521 32.2401 156.78 28.4645 158.059 24.6948C158.708 22.7952 160.714 17.3504 161.206 15.4075C161.619 13.8346 161.285 12.122 159.77 11.2913Z" fill="#1E1E1E"/>
<path d="M156.82 11.1988C156.368 9.64957 154.401 9.16138 153.005 9.47634C151.431 9.83264 150.389 11.1673 149.661 12.5216C148.815 14.063 148.107 15.6811 147.458 17.309C146.73 19.1476 146.061 21.0295 145.589 22.9508C145.078 24.9764 144.665 26.9468 144.881 29.0334C144.999 29.9704 146.337 30.3799 146.789 29.4311C147.536 27.7933 147.95 26.1004 148.461 24.3681C148.953 22.689 149.484 21.0118 150.094 19.3799C150.723 17.7618 151.411 16.1752 152.198 14.6299C152.493 14.0374 153.221 12.374 154.008 12.5944C154.637 12.7677 154.932 13.4232 155.778 13.2637C156.722 13.0846 157.076 12.0492 156.82 11.1988Z" fill="#1E1E1E"/>
<path d="M151.214 10.75C150.368 9.05116 148.283 8.85825 146.73 9.68699C144.999 10.6102 144.173 12.5216 143.838 14.3582C142.993 18.9311 142.737 23.62 142.068 28.2204C141.852 29.7736 144.291 30.2559 144.448 28.7106C144.861 24.9783 145.392 21.2598 145.845 17.5315C146.041 15.9488 146.061 14.1023 146.907 12.7027C147.634 11.5236 148.991 11.0925 150.191 11.8779C150.919 12.3563 151.509 11.3602 151.214 10.75Z" fill="#1E1E1E"/>
<path d="M143.76 11.1535C142.284 11.1712 141.104 12.376 140.416 13.5866C139.727 14.7913 139.531 16.2027 139.334 17.5492C139.118 18.9842 138.882 20.4153 138.685 21.8523C138.488 23.3563 138.114 25.0905 139.039 26.4035C139.275 26.746 139.806 26.9232 140.16 26.6515C140.809 26.1771 141.143 25.7244 141.399 24.9606C141.576 24.3681 141.714 23.7815 141.851 23.1732C142.127 21.8878 142.324 20.5807 142.54 19.2854C142.756 18.126 142.855 16.8484 143.248 15.7382C143.563 14.8799 143.937 14.6988 144.743 14.1496C146.1 13.2145 145.392 11.1338 143.76 11.1535Z" fill="#1E1E1E"/>
<path d="M137.111 51.1279C136.836 51.6338 136.561 52.1318 136.285 52.6062C135.931 53.2519 135.558 53.8996 135.164 54.5393C133.296 57.6259 131.27 60.622 129.323 63.6515C126.903 67.4291 124.484 71.2047 122.085 74.9901C118.898 79.9783 115.751 84.9901 112.584 90.0118C111.798 91.2815 111.011 92.5511 110.204 93.8208C109.85 92.9921 109.477 92.1771 109.064 91.3818C108.887 91.0236 108.69 90.6751 108.493 90.3267C109.26 89.1397 110.028 87.9527 110.795 86.7657C111.503 85.6555 112.21 84.5511 112.938 83.4389C117.6 76.1929 122.281 68.9645 126.923 61.7007C129.106 58.2913 131.408 54.9212 133.434 51.4094C133.532 51.2696 133.61 51.1279 133.689 50.9862C134.653 49.3267 135.459 47.5846 136.049 45.75C136.443 44.5551 136.639 43.2677 136.777 41.9901C136.757 41.9566 136.718 41.9232 136.718 41.8818C136.325 41.2263 136.147 40.4212 135.931 39.6909C135.695 38.9527 135.459 38.2145 135.223 37.4665C135.066 37.0177 134.928 36.561 134.771 36.1063C134.476 35.185 134.181 34.2637 133.886 33.3425C133.414 31.8641 132.922 30.3877 132.45 28.9015C132.096 27.8051 131.86 26.3956 131.211 25.4153C130.699 24.6358 130.109 25.4645 129.972 26.0964C129.716 27.3326 129.971 28.7598 130.129 29.9881C130.286 31.2992 130.522 32.5944 130.817 33.872C131.112 35.2263 131.604 36.5865 131.545 37.9822C131.525 38.8602 130.365 39.1515 129.814 38.5452C129.264 38.6043 128.654 38.3464 128.3 37.6496C127.297 35.7657 126.766 33.6496 125.92 31.6988C125.113 29.872 124.307 28.0374 123.501 26.2047C122.694 24.37 121.927 22.5275 121.14 20.685C120.747 19.7303 120.354 18.7598 119.921 17.8129C119.685 17.248 119.449 16.6338 118.859 16.3936C118.839 16.7755 118.819 17.0905 118.839 17.4232C118.918 18.3031 119.036 19.1732 119.174 20.0452C119.449 21.6732 119.842 23.2736 120.314 24.8503C121.317 28.0964 122.852 31.1338 124.563 34.0551C125.271 35.2499 123.383 36.3129 122.557 35.3011C120.255 32.4862 118.583 29.183 117.423 25.7401C116.675 23.5649 116.006 21.1082 115.79 18.7184C115.023 18.37 114.394 16.8917 113.666 18.311C112.938 19.7873 114.079 21.7558 114.63 23.1082C115.476 25.1495 116.322 27.1909 117.167 29.2342C117.954 31.1181 119.075 33.2165 119.252 35.2677C119.331 36.3129 118.091 36.9606 117.364 36.122C116.38 34.994 115.791 33.4586 115.181 32.0964C114.591 30.7933 114.04 29.4665 113.469 28.1535C112.899 26.8425 112.329 25.5236 111.758 24.2125C111.365 23.3149 110.952 22.4035 110.657 21.4566C110.303 21.2322 110.047 20.8917 109.988 20.4271C109.929 20.0295 109.988 19.9783 109.673 19.9625C109.457 19.9547 109.201 20.1948 109.044 20.5511C108.434 21.9468 109.595 23.6633 110.185 24.8681C112.014 28.6614 113.863 32.3878 115.22 36.37C115.594 37.5 114.059 38.7125 113.292 37.5669C111.62 35.059 110.185 32.5039 108.828 29.8228C108.71 29.5728 108.572 29.3248 108.454 29.0767C108.001 28.9015 107.549 28.7027 107.195 28.3621C106.762 27.9625 106.349 27.5649 105.916 27.183C105.543 26.8602 103.753 25.1338 103.419 25.3739C102.809 25.7972 103.576 27.059 103.812 27.4488C104.422 28.5767 105.13 29.6732 105.779 30.7775C107.215 33.1338 108.67 35.4744 110.165 37.7992C111.64 40.1299 113.411 42.3877 114.63 44.87C114.925 45.4921 114.787 46.057 114.433 46.4468C114.433 46.5295 114.433 46.6043 114.413 46.6791C113.764 48.5885 112.23 50.1909 111.03 51.7499C109.85 53.2775 108.631 54.7559 107.411 56.2578C103.025 61.6594 98.5996 67.0295 94.1741 72.3759C92.9546 71.8602 91.696 71.4113 90.4175 71.0314C93.1711 67.6692 95.9641 64.307 98.7374 60.9547C100.999 58.1909 103.281 55.4271 105.602 52.6889C106.703 51.3681 107.824 50.057 108.965 48.7618C109.791 47.8169 110.617 46.8031 111.581 45.9901C110.578 44.7795 109.732 43.4015 108.867 42.0885C107.903 40.6378 106.959 39.1673 106.015 37.6988C104.186 34.811 102.278 31.8897 100.744 28.8346C100.095 27.557 99.6815 26.0472 100.193 24.6437C100.685 23.2657 101.924 22.1712 103.439 22.2027C104.284 22.2283 105.032 22.5944 105.72 23.0669C105.661 22.8425 105.602 22.6102 105.562 22.3779C105.189 20.0196 106.329 17.0826 108.945 16.6259C109.634 16.5098 110.322 16.6102 110.932 16.8582C111.443 15.8464 112.27 15.0314 113.43 14.7086C114.315 14.4684 115.299 14.5925 116.085 15.0413C116.518 14.1279 117.324 13.4468 118.426 13.307C120.058 13.1063 121.415 14.1535 122.222 15.4881C123.146 17.0492 123.737 18.8503 124.445 20.5098C125.172 22.2362 125.88 23.9625 126.588 25.6889C126.765 26.1535 126.962 26.6279 127.159 27.0925C127.159 25.5314 127.493 24.0039 128.791 23.0078C129.736 22.2952 130.994 22.0787 132.076 22.5944C133.059 23.059 133.689 24.0118 134.063 25.0078C134.83 26.9763 135.439 29.0177 136.089 31.0432C136.285 31.6988 136.482 32.3464 136.698 32.9842C137.131 34.3051 137.564 35.6239 137.996 36.935C138.055 37.1102 138.115 37.2834 138.174 37.4586C138.626 38.6377 139.177 39.8976 139.275 41.0944C139.295 41.2598 139.295 41.4015 139.255 41.5413C139.983 44.7539 138.646 48.1889 137.111 51.1279Z" fill="#1E1E1E"/>
<path d="M116.223 103.673C116.223 104.303 116.184 104.927 116.085 105.531C115.928 106.38 115.102 106.819 114.335 106.77C113.725 106.736 113.174 106.396 112.997 105.707C112.407 103.209 112.329 100.636 111.66 98.1377C111.267 96.6771 110.775 95.2244 110.204 93.8208C109.85 92.9921 109.476 92.1771 109.063 91.3818C108.886 91.0236 108.69 90.6751 108.493 90.3267C107.215 88.061 105.72 85.9448 103.969 84.0196C102.789 82.6909 101.491 81.4547 100.114 80.3346C100.016 79.4881 99.9763 78.6417 100.114 77.8365C100.232 77.0472 101.039 76.6318 101.747 76.7401C102.12 77.0059 102.455 77.2716 102.809 77.5708C103.478 78.1102 104.127 78.6909 104.756 79.2972C107.097 81.5216 109.103 84.0354 110.795 86.7657C111.444 87.8208 112.034 88.8996 112.584 90.0118C112.781 90.3937 112.958 90.7755 113.135 91.1574C114.118 93.3228 114.885 95.5728 115.397 97.8976C115.81 99.7303 116.243 101.73 116.223 103.673Z" fill="#1E1E1E"/>
<path d="M120.727 108.65C120.098 107.443 119.036 106.533 118.033 105.642C117.581 105.236 117.167 104.805 116.754 104.362C116.715 104.313 116.696 104.291 116.676 104.28C116.578 104.144 116.479 104.031 116.4 103.915C116.282 103.748 116.164 103.575 116.027 103.415C115.889 103.234 115.869 103.215 115.948 103.354C115.869 103.222 115.751 103.104 115.633 102.996C115.083 102.474 113.902 102.565 113.607 103.364C113.057 104.937 113.863 106.335 114.925 107.461C115.318 107.866 115.751 108.238 116.164 108.618C116.381 108.827 116.617 109.037 116.833 109.256C116.912 109.346 117.01 109.441 117.089 109.531C117.128 109.573 117.168 109.612 117.207 109.654C117.384 109.874 117.522 110.1 117.679 110.337C117.777 110.62 117.836 110.74 117.856 110.864C117.875 110.898 117.915 111.094 117.934 111.179C117.954 111.262 117.974 111.392 117.974 111.413C117.974 111.569 117.974 111.724 117.994 111.88C117.954 112.341 117.915 112.622 117.836 112.902C117.816 112.972 117.797 113.043 117.777 113.114C117.738 113.222 117.699 113.331 117.64 113.433C117.581 113.541 117.521 113.646 117.462 113.748C117.443 113.772 117.285 113.967 117.285 113.978C116.971 114.36 116.735 114.699 116.617 115.183C116.381 116.067 117.187 116.911 118.053 116.862C119.764 116.766 120.826 114.634 121.239 113.205C121.691 111.695 121.435 110.03 120.727 108.65Z" fill="#1E1E1E"/>
<path d="M119.921 118.78C119.921 119.957 119.882 121.144 119.783 122.323C119.587 124.472 119.115 126.646 118.191 128.606C117.325 130.382 116.046 131.951 114.512 133.171C113.745 133.768 112.742 134.423 111.7 134.789C110.834 135.096 109.929 135.203 109.123 134.939C107.963 134.547 107.51 133.087 108.631 132.323C109.3 131.868 110.067 131.667 110.795 131.36C110.854 131.337 110.893 131.319 110.952 131.295C111.562 131.02 112.152 130.638 112.644 130.207C113.785 129.244 114.63 128.008 115.259 126.679C115.869 125.435 116.223 124.098 116.44 122.738C116.518 122.222 116.597 121.701 116.656 121.177C116.715 120.646 116.715 120.098 116.715 119.543C116.735 118.447 116.695 117.317 116.833 116.256C116.872 115.923 116.951 115.608 117.03 115.293C117.364 114.065 119.154 113.833 119.587 115.152C119.666 115.417 119.724 115.683 119.783 115.957C119.941 116.878 119.902 117.858 119.921 118.78Z" fill="#1E1E1E"/>
<path d="M108.434 100.285C108.355 100.157 108.277 100.035 108.218 99.9055C108.08 99.6968 107.903 99.5118 107.726 99.3326C107.53 99.0984 107.293 98.8996 107.038 98.7106C105.858 97.8189 104.363 97.0807 102.848 97.2185C102.396 97.2618 101.924 97.6004 101.865 98.0807C101.767 98.5905 102.003 98.9803 102.416 99.2578C102.514 99.3228 102.455 99.2854 102.416 99.248C102.435 99.2677 102.455 99.2874 102.494 99.3071C102.651 99.4252 102.809 99.5255 102.986 99.6181C103.182 99.7244 103.379 99.8366 103.576 99.9566C103.91 100.167 104.245 100.352 104.579 100.567C105.149 100.988 105.7 101.476 106.29 101.854C106.468 101.99 106.625 102.138 106.822 102.236C107.156 102.407 107.529 102.425 107.883 102.311C108.198 102.216 108.434 101.986 108.572 101.691C108.769 101.203 108.709 100.728 108.434 100.285Z" fill="#1E1E1E"/>
<path d="M118.367 120.73C118.288 120.392 117.934 119.957 117.6 119.827C117.089 119.624 116.558 119.504 116.026 119.339C115.358 119.083 114.709 118.76 114.099 118.372C114.02 118.313 113.941 118.254 113.863 118.195C113.705 118.075 113.568 117.949 113.43 117.817C113.292 117.685 113.155 117.549 113.037 117.409C112.899 117.262 112.84 117.181 112.781 117.098C112.388 116.559 111.601 116.293 111.011 116.711C110.401 117.134 110.283 117.854 110.618 118.484C111.208 119.533 112.034 120.494 112.978 121.22C113.509 121.624 114.06 121.967 114.669 122.22C115.417 122.522 116.184 122.797 116.99 122.762C117.639 122.732 118.308 122.189 118.426 121.522C118.465 121.256 118.446 120.99 118.367 120.73Z" fill="#1E1E1E"/>
<path d="M108.69 94.5847C108.08 93.9095 107.274 93.3622 106.467 92.9528C105.641 92.5433 104.756 92.2343 103.832 92.1595C102.789 92.0748 101.688 92.1103 100.803 92.752C100.095 93.2736 100.271 94.3819 101.157 94.5945C101.511 94.6791 101.884 94.7421 102.238 94.7874C102.317 94.7914 102.376 94.7973 102.455 94.8032C102.573 94.8209 102.671 94.8268 102.75 94.8386C102.927 94.8642 103.104 94.8957 103.261 94.9331C103.458 94.9764 103.635 95.0315 103.832 95.0847C103.91 95.1083 103.989 95.1299 104.068 95.1555C104.107 95.1614 104.146 95.1713 104.186 95.1772C104.5 95.2559 104.835 95.4606 105.11 95.6102C105.267 95.6929 105.405 95.7815 105.543 95.874C105.661 95.9469 105.681 95.9685 105.661 95.9626C105.7 95.9941 105.759 96.0256 105.799 96.0512C106.074 96.2795 106.349 96.5315 106.605 96.7953C106.664 96.8583 106.723 96.9233 106.782 96.9862C106.92 97.1457 107.018 97.2874 107.116 97.4252C107.451 97.8504 107.746 98.3445 108.238 98.5945C109.024 98.9823 109.89 98.5157 110.086 97.7087C110.381 96.5709 109.398 95.3642 108.69 94.5847Z" fill="#1E1E1E"/>
<path d="M105.543 95.874C105.602 95.9213 105.641 95.9567 105.661 95.9626C105.622 95.935 105.582 95.9055 105.563 95.878C105.563 95.878 105.563 95.874 105.543 95.874Z" fill="#1E1E1E"/>
<path d="M104.068 87.3306C104.068 88.9409 103.99 90.559 103.832 92.1614C103.754 93.1082 103.616 94.0531 103.478 94.9921C103.36 95.7303 103.222 96.4685 103.085 97.2066C103.065 97.2834 103.065 97.3484 103.045 97.4232C102.908 98.0787 102.75 98.7263 102.593 99.374C101.944 102.029 101.059 104.628 99.9969 107.134C99.3872 108.628 98.679 110.089 97.9119 111.508C97.2431 112.744 96.4957 114.388 95.4533 115.451C95.2763 115.632 95.0795 115.799 94.8631 115.941C94.0173 116.537 92.916 116.073 92.5029 115.252C92.3456 114.945 92.2668 114.587 92.3651 114.215C92.6995 112.703 93.9779 111.242 94.7056 109.882C95.4924 108.463 96.2006 107.002 96.8103 105.508C98.0101 102.669 98.895 99.7224 99.5244 96.7007C100.134 93.6889 100.488 90.6102 100.528 87.5295C100.567 85.9192 100.508 84.3011 100.37 82.683C100.311 81.9291 100.193 81.1318 100.115 80.3346C100.016 79.4881 99.9769 78.6417 100.115 77.8365C100.233 77.0472 101.039 76.6318 101.747 76.7401C102.121 76.7992 102.495 76.9901 102.691 77.3543C102.731 77.4291 102.77 77.496 102.809 77.5708C103.557 79.0157 103.695 80.9074 103.852 82.4842C103.911 82.998 103.95 83.5039 103.97 84.0196C104.048 85.124 104.088 86.2263 104.068 87.3306Z" fill="#1E1E1E"/>
<path d="M95.4528 115.451C95.2758 115.632 95.079 115.799 94.8626 115.941C94.0168 116.537 92.9155 116.073 92.5024 115.252C92.9352 114.819 93.6037 114.62 94.2921 114.904C94.6855 115.061 95.0791 115.242 95.4528 115.451Z" fill="#1E1E1E"/>
<path d="M111.7 134.789C110.834 135.096 109.929 135.203 109.123 134.939C107.963 134.547 107.51 133.087 108.631 132.323C109.3 131.868 110.067 131.667 110.795 131.36C111.208 132.482 111.503 133.618 111.7 134.789Z" fill="#1E1E1E"/>
<path d="M129.854 187.376C129.342 188.612 128.497 189.691 127.316 190.339C127.218 190.189 127.1 190.039 127.002 189.89C126.412 189.02 125.822 188.148 125.231 187.276C126.038 186.976 126.451 186.388 126.687 185.492C126.923 184.62 126.943 183.699 126.785 182.811C127.808 184.339 128.831 185.856 129.854 187.376Z" fill="#1E1E1E"/>
<path d="M130.503 184.778C130.424 185.665 130.208 186.553 129.854 187.376C128.831 185.856 127.808 184.339 126.785 182.811C124.661 179.665 122.537 176.528 120.255 173.498C116.97 169.091 113.253 164.951 108.572 162.004C104.127 159.215 98.2459 157.297 92.9156 158.311C92.3059 158.417 91.6963 158.575 91.1062 158.776C89.2967 159.372 89.7291 162.443 91.7353 162.154C91.8336 162.136 91.952 162.12 92.07 162.112C91.7946 162.933 91.4799 163.738 91.1062 164.494C90.0441 166.693 88.5096 168.51 86.8574 170.262C85.3429 171.854 83.809 173.465 83.6516 175.774C83.514 177.955 84.163 180.104 84.104 182.287C84.0647 184.628 83.2977 186.612 81.7438 188.364C80.426 189.856 78.8326 191.051 78.5179 193.136C78.2228 195.012 78.8329 196.978 79.3443 198.762C79.9737 200.929 80.6621 203.128 80.7998 205.394C80.8981 207.37 80.5046 209.337 79.6785 211.13C78.0656 214.699 74.722 217.569 70.8472 218.358C68.841 218.766 66.9725 219.844 64.9859 220.492C62.9797 221.148 60.9339 221.628 58.849 222.002C54.7382 222.732 50.5293 222.831 46.3595 222.425C44.255 222.217 42.1697 221.868 40.1045 221.38C39.062 221.122 38.0199 220.831 36.9774 220.5C35.994 220.183 34.9909 219.827 34.0271 219.437C30.1917 217.909 26.3166 215.876 23.3466 212.988C23.2679 212.913 23.2092 212.839 23.1502 212.764C21.852 212.789 20.5539 212.823 19.2755 212.573C13.0601 211.352 6.80518 209.03 2.83206 203.825C-0.629657 199.293 -1.10167 192.811 2.37972 188.14C3.20581 187.028 4.30736 186.238 5.42849 185.459C6.56929 184.687 6.82504 183.972 6.471 182.636C6.07762 181.134 5.46767 179.715 5.27099 178.154C5.09397 176.703 5.40886 175.242 5.95959 173.898C7.13972 171.165 9.57878 169.057 11.9784 167.423C14.2206 165.896 16.6985 164.585 18.4884 162.476C20.5536 160.045 20.1013 157.199 19.5112 154.285C18.8622 151.073 18.626 147.927 19.3734 144.707C20.0618 141.628 21.4781 138.73 23.4647 136.291C25.2546 134.091 27.5755 132.382 29.8571 130.689C32.001 129.087 34.2433 127.461 35.7971 125.244C37.587 122.705 38.0198 119.526 38.3148 116.514C38.9835 109.74 39.9277 103.183 42.3273 96.7834C44.5499 90.8996 47.9328 85.3799 52.5353 81.0571C54.994 78.7323 57.8854 76.5748 61.0521 75.0964C65.5366 71.7106 71.1815 70.1004 76.7282 69.6358C81.3503 69.246 86.0118 69.7283 90.4176 71.0315C91.6961 71.4114 92.9547 71.8602 94.1742 72.376C96.8688 73.5039 99.426 74.9646 101.747 76.7402C101.039 76.6319 100.232 77.0472 100.114 77.8366C99.9766 78.6417 100.016 79.4882 100.114 80.3347C100.193 81.1319 100.311 81.9291 100.37 82.6831C100.508 84.3012 100.567 85.9193 100.527 87.5295C100.488 90.6102 100.134 93.689 99.5241 96.7008C98.8947 99.7224 98.0098 102.669 96.81 105.508C96.2003 107.002 95.4921 108.463 94.7053 109.882C93.9776 111.242 92.6992 112.703 92.3648 114.215C92.2665 114.587 92.3453 114.945 92.5026 115.252C92.9157 116.073 94.017 116.537 94.8628 115.941C95.0792 115.799 95.2759 115.632 95.453 115.451C96.7511 116.155 97.9507 117.094 99.1505 117.949C100.586 118.986 101.983 120.065 103.321 121.236C105.976 123.559 108.415 126.307 110.008 129.494C110.322 130.116 110.578 130.738 110.795 131.36C110.067 131.667 109.3 131.868 108.631 132.323C107.51 133.087 107.962 134.547 109.123 134.939C109.929 135.203 110.834 135.096 111.699 134.789C111.955 136.209 112.053 137.669 112.073 139.187C112.112 142.242 112.329 145.063 114.532 147.287C117.993 150.815 123.265 152.549 125.802 156.998C127.513 160.02 127.159 163.248 126.412 166.51C126.018 168.195 125.546 169.947 125.822 171.681C126.077 173.232 126.864 174.644 127.651 175.988C129.264 178.778 130.758 181.449 130.503 184.778Z" fill="#1E1E1E"/>
<path d="M92.9156 158.311C92.7583 159.612 92.4634 160.892 92.07 162.112C91.952 162.12 91.8336 162.136 91.7353 162.154C89.7291 162.443 89.2967 159.372 91.1062 158.776C91.6963 158.575 92.3059 158.417 92.9156 158.311Z" fill="#1E1E1E"/>
<path d="M149.523 222.193C147.595 219.155 145.668 216.142 143.563 213.213C142.599 211.868 141.517 210.591 140.495 209.287C139.393 207.876 138.409 206.348 137.406 204.872C134.043 200.016 130.641 195.211 127.316 190.339C127.218 190.189 127.1 190.039 127.002 189.89C126.412 189.02 125.822 188.148 125.231 187.276C122.596 183.325 119.941 179.35 117.089 175.531C114.02 171.415 110.48 167.431 105.976 164.842C103.851 163.614 101.609 162.685 99.2096 162.169C96.7903 161.653 94.4893 161.772 92.07 162.112C91.952 162.12 91.8336 162.136 91.7353 162.154C89.7291 162.443 89.2967 159.372 91.1062 158.776C91.6963 158.575 92.3059 158.417 92.9156 158.311C98.2459 157.297 104.127 159.215 108.572 162.004C113.253 164.951 116.97 169.091 120.255 173.498C122.537 176.528 124.661 179.665 126.785 182.811C127.808 184.339 128.831 185.856 129.854 187.376C130.129 187.766 130.385 188.148 130.64 188.537C134.22 193.783 137.702 199.102 141.242 204.374C143.012 207.012 144.546 209.801 146.257 212.474C146.336 212.606 146.435 212.738 146.533 212.872C147.084 213.718 147.634 214.541 148.205 215.362C149.444 217.13 150.723 218.856 152.001 220.598C153.122 222.126 150.526 223.819 149.523 222.193Z" fill="#1E1E1E"/>
<path d="M191.83 209.827C190.237 211.494 188.644 213.171 187.031 214.839C182.035 220.043 176.98 225.197 171.67 230.094C168.523 232.998 165.277 235.787 161.934 238.468C158.688 241.067 155.384 243.705 151.765 245.756C148.264 247.738 144.33 249.201 140.278 248.884C136.423 248.587 133.06 246.626 130.286 244.037C127.297 241.266 124.799 237.945 122.163 234.833C119.252 231.356 116.341 227.886 113.41 224.409C110.44 220.89 107.49 217.354 104.54 213.819C101.589 210.291 98.5015 206.846 95.8265 203.12C94.8234 201.742 96.9081 200 98.0882 201.203C101.589 204.772 104.736 208.722 107.982 212.531C111.188 216.299 114.394 220.077 117.58 223.852C120.432 227.215 123.284 230.575 126.116 233.929C128.536 236.783 130.857 239.805 133.748 242.195C136.443 244.427 139.609 245.606 143.13 245.091C146.848 244.551 150.25 242.453 153.299 240.344C159.967 235.705 166.123 230.327 172.083 224.807C176.115 221.063 180.068 217.22 183.963 213.337C184.612 212.697 185.241 212.059 185.89 211.419C187.385 210.988 189.135 210.614 190.06 209.933C190.788 209.411 191.456 208.823 192.106 208.183C192.361 208.673 192.342 209.295 191.83 209.827Z" fill="#1E1E1E"/>
<path d="M176.489 200.88C176.39 201.02 176.292 201.154 176.194 201.278C175.938 201.593 175.623 201.85 175.289 202.065C174.6 202.547 173.774 202.87 173.027 203.262C172.909 203.327 172.771 203.394 172.634 203.461C171.473 204.067 170.332 204.663 169.192 205.262C167.48 206.157 165.769 207.079 164.058 207.959C163.33 208.341 162.603 208.715 161.875 209.071C160.793 209.602 159.731 210.134 158.649 210.663C157.193 211.386 155.738 212.1 154.282 212.815C152.315 213.778 150.309 214.74 148.205 215.362C147.614 215.553 146.985 215.711 146.375 215.827C145.392 216.01 144.232 214.831 145.176 213.976C145.609 213.587 146.061 213.213 146.533 212.872C148.323 211.512 150.309 210.441 152.355 209.411C154.853 208.142 157.39 206.888 159.908 205.626C161.934 204.622 163.979 203.685 166.025 202.738C166.556 202.488 167.087 202.232 167.638 201.982C168.936 201.368 170.234 200.746 171.532 200.132C171.945 199.941 172.339 199.726 172.752 199.535C173.243 199.285 173.754 199.069 174.285 198.945C174.679 198.844 175.072 198.805 175.505 198.844C176.39 198.929 176.941 200.15 176.489 200.88Z" fill="#1E1E1E"/>
<path d="M203.258 177.898C202.589 178.112 201.684 177.89 201.369 177.232C201.232 176.976 201.094 176.703 200.917 176.461C200.878 176.445 200.721 176.279 200.681 176.246C200.603 176.153 200.563 176.146 200.524 176.122C200.366 176.037 200.229 175.963 200.071 175.898C200.012 175.872 199.993 175.856 199.973 175.846C199.953 175.846 199.933 175.839 199.855 175.831C199.678 175.797 199.52 175.756 199.343 175.73C199.304 175.722 199.265 175.722 199.245 175.715C198.518 175.707 198.203 175.748 197.632 176.037C197.023 176.344 196.531 176.744 196.079 177.224C195.744 177.224 195.429 177.25 195.115 177.307C193.384 177.632 191.869 178.602 190.532 179.797C189.411 180.801 188.388 181.972 187.464 183.043C185.182 185.707 183.156 188.571 181.386 191.608C180.481 193.136 179.655 194.713 178.908 196.315C178.16 197.9 177.629 199.693 176.488 201.037C176.39 201.136 176.292 201.218 176.194 201.278C175.958 201.419 175.682 201.476 175.426 201.453C174.777 201.402 174.168 200.921 174.148 200.207C174.148 200.106 174.148 200 174.168 199.9C174.168 199.577 174.207 199.26 174.285 198.945C174.541 197.476 175.249 196.073 175.859 194.762C175.918 194.604 175.997 194.439 176.075 194.281C176.508 193.36 176.96 192.455 177.432 191.559C177.708 191.043 177.983 190.529 178.278 190.024C179.439 187.998 180.717 186.039 182.114 184.163C182.645 183.449 183.195 182.736 183.746 182.047C184.041 181.681 184.336 181.317 184.651 180.961C185.634 179.789 186.677 178.628 187.818 177.591C188.683 176.793 189.607 176.071 190.611 175.465C191.142 175.142 191.673 174.86 192.243 174.628C193.109 174.262 193.994 174.004 194.899 173.888C196.158 173.715 197.456 173.797 198.714 174.203C199.658 174.512 200.681 175.041 201.566 175.756C202.314 176.354 202.924 177.075 203.258 177.898Z" fill="#1E1E1E"/>
<path d="M214.43 187.931C214.273 188.272 213.997 188.545 213.663 188.695C213.269 188.852 212.817 188.862 212.325 188.638C211.716 188.354 211.244 187.99 210.536 188.039C209.906 188.081 209.336 188.372 208.844 188.77C207.605 189.774 206.779 191.301 205.972 192.646C205.638 193.226 205.303 193.817 204.969 194.406C204.438 195.394 203.907 196.398 203.376 197.402C202.51 199.053 201.645 200.713 200.721 202.331C200.367 202.963 199.993 203.593 199.6 204.215C198.852 205.419 198.046 206.589 197.161 207.701C196.394 208.656 195.587 209.569 194.702 210.415C192.558 212.433 189.982 214.366 187.031 214.839C186.854 214.872 186.658 214.898 186.461 214.913C185.674 214.988 184.494 214.142 183.963 213.337C184.612 212.697 185.241 212.059 185.89 211.419C187.385 210.988 189.136 210.614 190.06 209.933C190.788 209.411 191.457 208.823 192.106 208.183C192.637 207.667 193.128 207.112 193.6 206.547C195.961 203.783 197.711 200.589 199.403 197.384C201.193 193.957 202.864 190.207 205.402 187.242C206.523 185.915 207.998 184.878 209.749 184.579C210.712 184.411 211.912 184.488 212.876 184.927C212.955 184.953 213.033 184.994 213.112 185.035C213.663 185.325 214.135 185.748 214.43 186.329C214.705 186.886 214.666 187.467 214.43 187.931Z" fill="#1E1E1E"/>
<path d="M215.905 187.467C215.846 187.717 215.728 187.939 215.571 188.122C215.315 188.429 214.961 188.62 214.529 188.654C214.233 188.679 213.958 188.687 213.663 188.695H213.545C213.073 188.703 212.483 188.496 212.266 188.039C212.109 187.724 211.991 187.459 212.05 187.118C212.05 187.077 212.05 187.028 212.07 186.976C212.188 186.421 212.581 186.096 213.053 185.931C213.053 185.642 212.994 185.35 212.916 185.069C212.916 185.018 212.896 184.976 212.876 184.927C212.679 184.272 212.306 183.673 211.794 183.193C211.145 182.569 210.359 182.205 209.513 182.055C209.198 181.998 208.883 181.972 208.549 181.972C208.234 181.972 207.9 181.998 207.566 182.055C203.73 182.685 202.058 186.13 199.973 188.961C199.364 189.815 198.184 188.961 198.302 188.106C198.852 183.65 202.865 179.632 207.329 178.976C207.565 178.935 207.802 178.909 208.038 178.894C208.156 178.886 208.293 178.886 208.392 178.886C209.296 178.86 210.162 178.984 210.988 179.234C211.283 179.325 211.578 179.433 211.834 179.557C212.778 179.972 213.624 180.579 214.312 181.366C215.177 182.362 215.787 183.567 216.023 184.844C216.181 185.699 216.141 186.587 215.905 187.467Z" fill="#1E1E1E"/>
<path d="M208.136 175.337C205.736 174.173 203.042 174.988 200.8 176.12C198.852 177.096 197.102 178.494 195.666 180.118C194.328 181.644 192.538 183.961 192.794 186.136C192.873 186.815 193.738 187.482 194.387 186.945C195.646 185.886 196.374 184.244 197.416 182.972C198.458 181.705 199.678 180.622 201.075 179.756C202.412 178.917 204.182 177.988 205.834 178.173C206.424 178.238 206.896 178.488 207.211 178.835C207.624 179.303 207.625 179.72 207.565 180.211C207.369 182.008 209.611 182.854 210.575 181.262C211.873 179.12 210.142 176.309 208.136 175.337Z" fill="#1E1E1E"/>
<path d="M203.454 177.823C203.395 177.856 203.317 177.88 203.258 177.898C202.589 178.112 201.684 177.89 201.369 177.232C201.232 176.976 201.094 176.703 200.917 176.461C200.878 176.445 200.721 176.28 200.681 176.246C200.662 176.205 200.622 176.179 200.622 176.163C200.603 176.154 200.563 176.146 200.524 176.122C200.366 176.037 200.229 175.963 200.071 175.898C200.012 175.872 199.993 175.856 199.973 175.846C199.953 175.846 199.934 175.839 199.855 175.831C199.678 175.797 199.521 175.756 199.344 175.73C199.304 175.722 199.265 175.722 199.246 175.715C198.518 175.707 198.203 175.748 197.633 176.037C197.023 176.344 196.531 176.744 196.079 177.224C196.02 177.276 195.98 177.325 195.921 177.374C194.82 178.587 194.092 180.03 193.207 181.415C192.263 182.868 191.122 184.612 189.352 185.1C188.565 185.317 187.896 184.537 188.231 183.789C188.644 182.886 189.234 182.014 189.765 181.175C190.04 180.728 190.276 180.262 190.532 179.797C190.748 179.4 190.965 179.002 191.181 178.61C192.165 176.85 193.306 175.15 194.899 173.888C196.394 172.693 198.301 172.154 200.19 172.468C201.94 172.752 203.907 173.98 204.32 175.831C204.497 176.652 204.222 177.441 203.454 177.823Z" fill="#1E1E1E"/>
<path d="M113.666 223.022C113.647 223.545 113.587 224.043 113.509 224.524C112.427 230.709 106.271 234.236 100.291 234.85C96.9279 235.199 93.5254 234.833 90.162 234.575C86.602 234.293 83.0218 234.012 79.4421 233.746C72.2826 233.215 65.143 232.683 57.9835 232.136C54.4628 231.87 50.9419 231.654 47.4408 231.331C44.5495 231.057 41.6387 230.533 39.2784 228.732C37.4099 227.297 36.3676 224.972 36.5053 222.616C36.5643 221.852 36.702 221.138 36.9773 220.5C38.0198 220.831 39.0619 221.122 40.1044 221.38C39.6323 222.335 39.6914 223.537 40.1634 224.549C41.1272 226.624 43.8615 227.215 45.8874 227.504C48.759 227.911 51.6896 228.01 54.6006 228.244C57.7476 228.492 60.9144 228.74 64.0811 228.998C70.2571 229.496 76.4527 229.994 82.6287 230.492C85.7954 230.742 88.9425 230.982 92.1092 231.222C94.8825 231.439 97.6952 231.62 100.468 231.282C104.658 230.766 109.949 228.085 110.126 223.23C110.145 222.533 110.48 221.902 111.03 221.579C111.247 221.445 111.503 221.372 111.798 221.354C112.703 221.295 113.706 222.067 113.666 223.022Z" fill="#1E1E1E"/>
<path d="M283.074 204.341C281.717 205.104 280.203 205.468 278.708 205.866C277.233 206.258 275.738 206.606 274.243 206.896C271.332 207.461 268.401 207.868 265.431 208.075C260.298 208.423 254.987 208.291 249.913 207.36C247.69 206.963 245.487 206.15 244.032 204.333C243.284 203.386 242.871 202.281 242.615 201.128C242.379 200 242.32 198.829 242.242 197.701C242.222 197.285 242.202 196.878 242.183 196.465C241.868 191.177 241.573 185.882 241.278 180.594C241.258 180.47 241.258 180.337 241.258 180.213C241.18 178.984 241.121 177.756 241.042 176.528C240.963 175.067 240.885 173.606 240.826 172.138C240.668 169.266 240.373 166.352 240.531 163.472C240.55 163.124 240.649 162.825 240.806 162.592C241.475 161.555 243.186 161.705 243.52 163.157C243.54 163.207 243.56 163.248 243.56 163.297C244.071 166.27 244.11 169.341 244.307 172.352C244.504 175.374 244.681 178.396 244.858 181.415L245.782 197.087C245.9 198.937 245.763 201.402 247.395 202.663C248.929 203.85 251.23 203.959 253.06 204.183C257.859 204.754 262.717 204.779 267.516 204.315C269.975 204.075 272.414 203.709 274.833 203.187C277.252 202.663 279.672 201.693 282.13 201.402C283.704 201.218 284.451 203.559 283.074 204.341Z" fill="#1E1E1E"/>
<path d="M279.829 162.941C278.118 162.799 276.387 162.36 274.696 162.102C273.122 161.87 271.529 161.679 269.936 161.522C266.808 161.215 263.622 161.098 260.475 161.132C257.21 161.165 253.945 161.364 250.719 161.746C248.28 162.037 245.861 162.376 243.521 163.157C243.167 163.274 242.813 163.398 242.458 163.539C241.672 163.854 240.983 163.289 240.806 162.592C240.708 162.195 240.767 161.746 241.082 161.405C243.265 159.024 246.451 158.567 249.519 158.144C250.031 158.069 250.542 158.002 251.054 157.945C252.175 157.811 253.296 157.705 254.437 157.63C255.243 157.563 256.049 157.522 256.875 157.48C257.859 157.439 258.862 157.405 259.865 157.388C260.042 157.388 260.219 157.38 260.396 157.388C263.701 157.346 267.025 157.496 270.309 157.795C272.021 157.953 273.732 158.152 275.463 158.409C277.135 158.659 278.944 158.85 280.557 159.39C282.779 160.136 282.15 163.124 279.829 162.941Z" fill="#1E1E1E"/>
<path d="M283.428 196.917C283.231 195.161 283.055 193.402 282.897 191.642C282.583 188.187 282.346 184.728 282.189 181.264C282.032 177.801 281.933 174.333 281.894 170.868C281.874 169.1 281.874 167.335 281.894 165.567C281.914 164 282.11 161.898 281.225 160.529C280.832 159.923 279.789 159.728 279.298 160.368C278.275 161.728 278.334 163.728 278.255 165.37C278.196 167.136 278.176 168.907 278.157 170.675C278.137 174.281 278.216 177.882 278.373 181.484C278.531 185.016 278.786 188.543 279.101 192.065C279.258 193.825 279.435 195.585 279.632 197.341C279.829 199.049 279.671 201.366 281.068 202.573C281.874 203.26 282.838 202.953 283.389 202.153C284.353 200.724 283.605 198.516 283.428 196.917Z" fill="#1E1E1E"/>
<path d="M290.057 168.087C287.224 166.524 283.585 166.016 280.537 167.266C279.081 167.862 279.317 170.323 281.087 170.13C283.802 169.831 286.555 170.181 288.896 171.717C291.138 173.187 292.515 175.655 292.751 178.307C292.987 181.053 292.122 183.685 290.135 185.624C288.326 187.405 285.611 188.441 283.054 188.232C282.051 188.15 281.068 188.614 280.852 189.687C280.655 190.598 281.304 191.787 282.307 191.892C288.306 192.506 294.089 188.965 295.997 183.185C297.905 177.455 295.328 170.98 290.057 168.087Z" fill="#1E1E1E"/>
<path d="M286.949 180.116C286.831 180.244 286.811 180.289 286.831 180.268C286.87 180.23 286.909 180.191 286.929 180.15C286.929 180.138 286.949 180.126 286.949 180.116Z" fill="#1E1E1E"/>
<path d="M284.608 181.195C284.392 181.15 284.372 181.167 284.451 181.183C284.49 181.187 284.53 181.193 284.569 181.197C284.569 181.197 284.589 181.195 284.608 181.195Z" fill="#1E1E1E"/>
<path d="M283.959 181.087C284.097 181.104 284.097 181.077 283.822 181.041C283.9 181.071 283.939 181.079 283.959 181.087Z" fill="#1E1E1E"/>
<path d="M289.939 175.575C289.093 174.1 287.461 173.055 285.769 172.866C284.805 172.758 283.743 172.776 282.839 173.185C282.288 173.433 281.816 173.701 281.383 174.118C281.265 174.242 281.147 174.378 281.029 174.52C280.714 174.925 280.557 175.276 280.557 175.799C280.576 176.478 281.186 176.935 281.816 176.965C281.953 176.961 282.13 176.957 282.189 176.945C282.406 176.903 282.563 176.815 282.76 176.715C283.153 176.547 283.409 176.443 283.684 176.366C283.802 176.327 283.94 176.299 284.077 176.268C284.136 176.254 284.274 176.236 284.333 176.226C284.569 176.205 284.785 176.183 285.022 176.179C285.002 176.175 284.962 176.169 284.923 176.161C284.962 176.169 285.002 176.173 285.061 176.177C285.159 176.175 285.238 176.201 285.179 176.197C285.297 176.215 285.435 176.236 285.553 176.266C285.671 176.293 285.71 176.305 285.769 176.329C285.828 176.344 285.867 176.358 285.907 176.366C285.887 176.38 285.966 176.409 286.025 176.443C286.143 176.5 286.241 176.563 286.359 176.628C286.517 176.772 286.615 176.866 286.713 176.961C286.733 176.992 286.753 177.024 286.772 177.055C286.871 177.181 286.949 177.311 287.028 177.445C287.087 177.626 287.166 177.77 287.205 177.886C287.244 178.033 287.264 178.185 287.323 178.333C287.166 177.807 287.303 178.297 287.323 178.447V178.957C287.303 179.096 287.284 179.238 287.264 179.378C287.244 179.421 287.205 179.565 287.185 179.65C287.146 179.716 287.126 179.783 287.107 179.809C287.067 179.915 287.008 180.016 286.949 180.116C286.89 180.228 286.851 180.256 286.831 180.268C286.753 180.368 286.674 180.457 286.575 180.541C286.418 180.675 286.3 180.742 286.202 180.805C286.143 180.839 286.084 180.87 286.025 180.905C285.828 180.986 285.611 181.051 285.395 181.112C285.375 181.118 285.159 181.171 285.061 181.179C284.904 181.193 284.766 181.195 284.609 181.195C284.51 181.197 284.471 181.191 284.451 181.183C284.274 181.157 284.136 181.128 283.999 181.094C283.979 181.09 283.92 181.081 283.881 181.061C283.566 180.931 283.31 180.815 283.035 180.768C282.347 180.655 281.56 180.961 281.265 181.622C280.95 182.329 281.127 182.994 281.619 183.559C281.993 183.984 282.602 184.177 283.114 184.342C283.448 184.451 283.782 184.514 284.137 184.545C285.041 184.628 285.927 184.561 286.792 184.274C288.602 183.677 289.919 182.299 290.509 180.512C291.04 178.896 290.765 177.037 289.939 175.575Z" fill="#1E1E1E"/>
<path d="M282.76 176.713C282.74 176.732 282.78 176.726 282.898 176.648C282.819 176.677 282.799 176.697 282.76 176.713Z" fill="#1E1E1E"/>
<path d="M285.061 176.177C285.1 176.189 285.139 176.195 285.179 176.197C285.08 176.181 285.061 176.177 285.061 176.177Z" fill="#1E1E1E"/>
<path d="M285.631 176.291C285.592 176.287 285.632 176.309 285.828 176.35C285.73 176.319 285.69 176.307 285.631 176.291Z" fill="#1E1E1E"/>
<path d="M276.072 164.776C271.056 165.486 266.002 165.785 260.947 165.642C258.508 165.573 256.069 165.411 253.65 165.148C252.391 165.012 251.152 164.848 249.893 164.659C249.323 164.573 248.575 164.311 247.985 164.339C247.966 164.132 247.867 163.923 247.69 163.738C246.805 162.807 245.271 163.211 244.759 164.335C244.091 165.829 245.408 167.124 246.726 167.526C248.221 167.972 249.854 168.128 251.368 168.35C253.02 168.589 254.673 168.78 256.325 168.923C262.973 169.502 269.68 169.28 276.269 168.348C277.233 168.215 278.02 167.48 277.961 166.459C277.902 165.555 277.016 164.638 276.072 164.776Z" fill="#1E1E1E"/>
<path d="M171.315 213.132C169.604 210.86 167.264 209.102 164.608 208.14C163.232 207.652 161.875 207.38 160.439 207.291C159.121 207.209 157.311 207.311 156.387 208.404C155.895 209.012 156.052 209.854 156.721 210.246C157.036 210.425 157.311 210.423 157.626 210.508C157.705 210.528 157.98 210.598 158.078 210.608C158.688 210.683 159.298 210.693 159.928 210.73C160.931 210.793 161.973 211 162.917 211.327C165.002 212.029 166.969 213.313 168.287 215.075C171.119 218.854 171.119 224.063 168.523 227.961C168.011 228.752 168.523 229.931 169.29 230.327C170.214 230.799 171.139 230.356 171.67 229.559C174.836 224.72 174.797 217.805 171.315 213.132Z" fill="#1E1E1E"/>
<path d="M260.77 126.049C260.829 127.004 260.081 128.008 259.117 128.14C259.039 128.15 258.98 128.157 258.901 128.157C248.516 128.14 238.131 127.992 227.765 127.9C218.619 127.825 209.473 127.742 200.347 127.667C195.665 127.626 191.004 127.585 186.323 127.543C183.058 127.518 178.986 127.211 176.272 129.411C173.715 131.476 173.165 135.228 172.633 138.266C171.847 142.764 171.06 147.264 170.332 151.77C169.604 156.276 168.916 160.791 168.247 165.299C167.559 169.787 167.106 174.378 166.005 178.785C165.592 180.419 162.956 180.37 162.956 178.569C162.976 177.797 162.995 177.018 163.035 176.236C163.271 171.715 164.038 167.15 164.667 162.693C165.415 157.429 166.202 152.177 167.047 146.931C167.736 142.681 168.287 138.341 169.329 134.157C170.254 130.39 172.063 126.787 175.702 125.02C179.301 123.268 183.432 123.476 187.326 123.518C192.145 123.559 196.944 123.6 201.763 123.642C220.724 123.817 239.704 123.874 258.665 124.173C259.295 124.181 259.885 124.431 260.278 124.87C260.553 125.177 260.75 125.585 260.77 126.049Z" fill="#1E1E1E"/>
<path d="M264.173 133.295C264.015 134.905 263.838 136.506 263.642 138.108C262.855 144.524 261.832 150.972 260.435 157.281C260.416 157.315 260.416 157.356 260.396 157.388C259.904 159.264 257.387 159.008 256.875 157.48C256.777 157.207 256.758 156.89 256.817 156.541C257.761 151.081 258.724 145.628 259.452 140.134C259.806 137.437 260.219 134.73 260.435 132.016C260.514 130.947 260.534 129.685 259.845 128.787C259.648 128.522 259.393 128.323 259.118 128.14C258.705 127.858 258.232 127.61 257.898 127.218C257.446 126.713 257.446 126.173 257.82 125.634C258.39 124.813 259.374 124.663 260.278 124.87C260.77 124.97 261.242 125.169 261.616 125.419C262.756 126.14 263.582 127.311 263.956 128.596C264.428 130.132 264.31 131.726 264.173 133.295Z" fill="#1E1E1E"/>
<path d="M179.754 134.805C179.695 136.008 179.479 137.213 179.321 138.407C179.085 140.183 178.83 141.959 178.574 143.736C178.082 147.213 177.571 150.691 177.06 154.177C176.135 160.675 175.348 167.24 174.266 173.722C174.168 174.236 174.089 174.744 173.991 175.258C173.637 177.209 171.1 176.85 170.687 175.242C170.628 175.041 170.628 174.809 170.647 174.569C171.434 167.522 172.673 160.5 173.696 153.488C174.227 150.002 174.719 146.524 175.23 143.047C175.486 141.27 175.761 139.502 176.037 137.726C176.273 136.274 176.45 134.839 176.882 133.453C176.981 133.146 177.079 132.846 177.197 132.547C177.728 131.252 179.597 131.858 179.734 133.079C179.774 133.652 179.774 134.232 179.754 134.805Z" fill="#1E1E1E"/>
<path d="M256.561 133.535C256.364 134.059 255.873 134.441 255.125 134.431C254.496 134.423 253.847 134.415 253.217 134.407C248.221 134.341 243.225 134.325 238.229 134.291C228.198 134.24 218.168 134.266 208.136 134.398C203.101 134.465 198.085 134.531 193.07 134.632C190.611 134.681 188.133 134.738 185.655 134.805C183.707 134.854 181.721 134.939 179.754 134.805C179.184 134.764 178.613 134.707 178.023 134.622C177.394 134.531 177.02 134.018 176.882 133.453C176.725 132.715 177.02 131.868 177.866 131.693C180.678 131.094 183.609 131.087 186.481 131.004C189.215 130.921 191.969 130.854 194.722 130.787C214.784 130.341 234.846 130.457 254.928 130.955C256.384 130.988 256.994 132.514 256.561 133.535Z" fill="#1E1E1E"/>
<path d="M256.266 139.22C256.089 141.287 255.852 143.346 255.656 145.403C255.243 149.478 254.869 153.555 254.436 157.63C254.416 157.671 254.416 157.713 254.416 157.754C254.298 158.701 253.197 159.297 252.332 159.124C251.643 158.982 251.23 158.518 251.053 157.945C250.955 157.663 250.935 157.356 250.955 157.049C251.329 152.99 251.742 148.939 252.135 144.89C252.332 142.898 252.528 140.905 252.725 138.921C252.883 137.486 252.922 135.876 253.217 134.407C253.335 133.858 253.492 133.329 253.709 132.831C254.2 131.677 256.226 131.776 256.482 133.045C256.521 133.203 256.541 133.37 256.56 133.535C256.816 135.386 256.423 137.386 256.266 139.22Z" fill="#1E1E1E"/>
<path d="M192.735 175.74C192.735 175.913 192.716 176.079 192.676 176.254C192.558 176.693 192.283 177.116 191.909 177.374C191.654 177.565 191.339 177.673 191.024 177.665C189.942 177.648 188.88 177.624 187.818 177.591C185.615 177.549 183.412 177.49 181.209 177.441C179.557 177.4 177.885 177.358 176.233 177.317C174.64 177.276 172.889 177.333 171.414 176.718C170.765 176.453 170.569 175.823 170.687 175.242C170.785 174.744 171.119 174.279 171.611 174.104C172.417 173.805 173.342 173.73 174.266 173.722C174.974 173.722 175.702 173.764 176.39 173.772C177.984 173.797 179.596 173.823 181.19 173.856C184.396 173.905 187.602 173.947 190.808 174.03C191.359 174.047 191.89 174.254 192.244 174.628C192.519 174.909 192.696 175.283 192.735 175.74Z" fill="#1E1E1E"/>
<path d="M241.612 180.197C241.494 180.205 241.356 180.213 241.258 180.213C235.751 180.486 230.204 180.396 224.697 180.238C221.865 180.163 219.052 180.022 216.239 179.856C214.784 179.774 213.309 179.707 211.853 179.557C211.578 179.531 211.283 179.508 211.007 179.474C210.103 179.374 209.217 179.242 208.391 178.886C208.234 178.811 208.077 178.736 207.919 178.644C206.936 178.089 207.054 176.685 208.116 176.279C208.451 176.153 208.785 176.063 209.139 176.004C210.181 175.839 211.263 175.913 212.305 175.947C213.682 175.996 215.059 176.096 216.436 176.163C219.19 176.287 221.924 176.37 224.677 176.445C230.145 176.594 235.594 176.494 241.042 176.528H241.396C243.736 176.545 243.992 180.071 241.612 180.197Z" fill="#1E1E1E"/>
<path d="M170.155 181.84C170.057 180.886 169.211 179.955 168.168 180.081C168.011 180.096 167.834 180.089 167.677 180.089C167.519 180.071 167.382 180.039 167.224 179.998C167.067 179.923 166.89 179.839 166.733 179.74C166.615 179.64 166.497 179.541 166.379 179.425C166.3 179.317 166.221 179.216 166.142 179.1C166.123 179.059 166.083 178.984 166.064 178.943C166.044 178.894 166.024 178.835 166.005 178.785C165.965 178.661 165.926 178.535 165.906 178.411C165.887 178.313 165.867 178.22 165.867 178.122C165.867 177.921 165.867 177.73 165.887 177.541C165.887 177.474 165.887 177.423 165.906 177.407V177.291C165.926 177.242 165.926 177.201 165.926 177.15V176.976C165.965 176.902 165.965 176.785 165.965 176.718C166.005 176.52 166.005 176.344 166.005 176.171C166.005 176.13 166.024 176.089 166.024 176.045C166.142 175.673 165.906 175.242 165.611 175.033C165.257 174.785 164.883 174.827 164.51 175.01C163.861 175.209 163.369 175.673 163.035 176.236C162.759 176.652 162.582 177.126 162.523 177.565C162.307 178.744 162.464 179.939 163.035 181.002C163.29 181.508 163.644 181.955 164.077 182.337C165.218 183.4 166.85 183.972 168.384 183.823C168.66 183.799 168.916 183.715 169.152 183.591C169.781 183.258 170.234 182.594 170.155 181.84Z" fill="#1E1E1E"/>
<path d="M165.887 177.512C165.946 177.254 165.887 177.378 165.887 177.512Z" fill="#1E1E1E"/>
<path d="M175.427 201.453C175.407 201.659 175.367 201.866 175.289 202.065C175.013 202.746 174.424 203.319 173.716 203.419C173.362 203.461 173.007 203.476 172.634 203.461C171.611 203.435 170.549 203.228 169.546 203.12C168.365 202.996 167.205 202.862 166.025 202.738C165.907 202.722 165.789 202.713 165.671 202.697C163.094 202.406 160.518 202.124 157.941 201.843C155.64 201.585 153.319 201.327 151.018 201.079C149.129 200.862 147.083 200.839 145.254 200.297C143.425 199.768 141.832 198.646 141.38 196.705C140.868 194.504 142.107 192.421 143.818 191.136C145.51 189.856 147.654 189.061 149.562 188.173C151.588 187.234 153.633 186.339 155.699 185.492C157.744 184.646 159.829 183.864 161.954 183.118C162.642 182.868 163.35 182.594 164.078 182.337C165.454 181.864 166.871 181.508 168.346 181.724C169.172 181.856 169.585 182.919 169.152 183.591C169.113 183.64 169.073 183.681 169.034 183.724C167.402 185.335 165.1 185.823 163.074 186.595C162.504 186.811 161.914 187.035 161.363 187.26C159.849 187.848 158.354 188.47 156.859 189.102C155.05 189.874 153.24 190.671 151.47 191.508C149.798 192.289 148.028 193.028 146.494 194.032C145.845 194.455 144.605 195.585 145.55 196.207C146.69 196.97 148.677 196.862 149.995 197.012C154.047 197.459 158.118 197.908 162.189 198.364C164.235 198.589 166.261 198.813 168.307 199.045C169.742 199.203 171.296 199.252 172.752 199.535C173.224 199.626 173.696 199.742 174.168 199.9C174.247 199.915 174.345 199.949 174.423 199.982C175.171 200.256 175.466 200.839 175.427 201.453Z" fill="#1E1E1E"/>
<path d="M244.366 198.904C243.835 199.683 243.245 200.431 242.615 201.128C240.983 202.978 239.036 204.531 236.813 205.709C230.991 208.805 224.383 209.228 217.912 208.831C214.529 208.632 211.165 208.281 207.782 208.016C206.169 207.892 204.537 207.809 202.904 207.801C201.252 207.793 199.58 207.992 197.928 207.884C197.652 207.868 197.397 207.809 197.161 207.701C196.689 207.502 196.335 207.12 196.217 206.539C196.059 205.75 196.551 204.904 197.318 204.663C198.066 204.431 198.833 204.299 199.6 204.215C200.682 204.098 201.783 204.098 202.865 204.091C204.655 204.083 206.444 204.165 208.234 204.289C214.469 204.722 220.724 205.817 226.979 205.079C232.447 204.431 238.013 201.967 241.219 197.301C241.475 196.929 241.789 196.63 242.183 196.465C242.596 196.281 243.087 196.264 243.599 196.522C244.366 196.919 244.897 198.114 244.366 198.904Z" fill="#1E1E1E"/>
<path d="M177.354 194.504C176.921 194.431 176.508 194.356 176.076 194.281C172.791 193.742 169.486 193.36 166.162 193.159C164.274 193.043 162.405 193.035 160.517 192.961C158.963 192.904 156.996 193.102 155.659 192.155C155.423 191.99 155.403 191.541 155.6 191.36C155.875 191.126 156.19 190.945 156.505 190.803C157.803 190.248 159.475 190.28 160.773 190.23C161.422 190.207 162.071 190.197 162.72 190.207C163.959 190.222 165.179 190.272 166.398 190.339C170.096 190.522 173.774 190.927 177.433 191.559C177.61 191.583 177.767 191.608 177.944 191.642C179.793 191.974 179.203 194.829 177.354 194.504Z" fill="#1E1E1E"/>
<path d="M176.076 194.281C175.997 194.439 175.918 194.604 175.859 194.762C175.249 196.073 174.541 197.476 174.285 198.937C173.754 199.069 173.243 199.285 172.752 199.535C171.296 199.252 169.742 199.203 168.306 199.045C166.261 198.813 164.235 198.589 162.189 198.364C158.118 197.907 154.046 197.459 149.995 197.012C148.677 196.862 146.69 196.97 145.549 196.207C144.605 195.585 145.844 194.455 146.493 194.031C148.028 193.028 149.798 192.289 151.47 191.508C153.24 190.671 155.049 189.874 156.859 189.102C158.354 188.47 159.849 187.848 161.363 187.26C160.97 187.451 160.576 187.642 160.183 187.823C159.396 188.189 158.59 188.594 157.882 189.077C157.154 189.575 156.741 189.998 156.505 190.803C156.19 190.945 155.875 191.126 155.6 191.36C155.403 191.541 155.423 191.99 155.659 192.155C156.997 193.102 158.963 192.904 160.517 192.961C162.405 193.035 164.274 193.043 166.162 193.159C169.486 193.36 172.791 193.742 176.076 194.281Z" fill="#1E1E1E"/>
<path d="M176.469 183.425C176.351 183.64 176.214 183.823 176.076 183.972C175.525 184.553 174.797 184.811 174.03 185.159C173.243 185.508 172.457 185.864 171.67 186.222C169.979 186.986 168.287 187.758 166.595 188.522C165.317 189.092 164.019 189.657 162.74 190.207C162.327 190.388 161.914 190.563 161.501 190.736C160.734 191.069 159.908 191.392 159.082 191.616C158.177 191.856 157.548 191.9 156.721 191.476C156.544 191.376 156.407 191.144 156.466 190.935C156.486 190.886 156.505 190.844 156.505 190.803C156.741 189.998 157.154 189.575 157.882 189.077C158.59 188.594 159.396 188.189 160.183 187.823C160.577 187.642 160.97 187.451 161.364 187.26C162.642 186.654 163.92 186.039 165.219 185.451C166.497 184.878 167.756 184.297 169.034 183.724C169.447 183.533 169.88 183.35 170.293 183.159C171.08 182.803 171.867 182.445 172.653 182.089C173.539 181.691 174.325 181.209 175.308 181.366C175.367 181.366 175.427 181.374 175.486 181.392C176.351 181.591 176.922 182.602 176.469 183.425Z" fill="#1E1E1E"/>
<path d="M260.435 132.016C260.219 134.73 259.806 137.437 259.452 140.134C258.724 145.628 257.761 151.081 256.816 156.541C256.757 156.89 256.777 157.207 256.875 157.48C256.049 157.522 255.242 157.563 254.436 157.63C254.869 153.555 255.243 149.478 255.656 145.404C255.852 143.346 256.089 141.287 256.266 139.22C256.423 137.386 256.816 135.386 256.56 133.535C256.993 132.514 256.383 130.988 254.928 130.955C234.846 130.457 214.784 130.341 194.722 130.787C191.968 130.854 189.214 130.921 186.48 131.004C183.609 131.087 180.678 131.094 177.865 131.693C177.02 131.868 176.724 132.715 176.882 133.453C176.449 134.839 176.272 136.274 176.036 137.726C175.761 139.502 175.486 141.27 175.23 143.047C174.719 146.524 174.227 150.002 173.696 153.488C172.673 160.5 171.434 167.522 170.647 174.569C170.627 174.809 170.627 175.041 170.686 175.242C170.568 175.823 170.765 176.453 171.414 176.718C172.889 177.333 174.639 177.276 176.233 177.317C177.885 177.358 179.557 177.4 181.209 177.441C183.412 177.49 185.615 177.549 187.818 177.591C186.677 178.628 185.634 179.789 184.651 180.961C183.943 180.86 183.137 180.968 182.448 180.976C181.642 180.984 180.835 180.992 180.049 181.002C179.242 181.01 178.436 181.01 177.649 181.026C176.902 181.033 176.016 181.11 175.308 181.366C174.325 181.209 173.538 181.691 172.653 182.089C171.866 182.445 171.08 182.803 170.293 183.159C169.88 183.35 169.447 183.533 169.034 183.724C169.073 183.681 169.113 183.64 169.152 183.591C169.781 183.258 170.234 182.594 170.155 181.841C170.057 180.886 169.211 179.955 168.169 180.081C168.011 180.096 167.834 180.089 167.677 180.089C167.52 180.071 167.382 180.039 167.225 179.998C167.067 179.923 166.89 179.839 166.733 179.74C166.615 179.64 166.497 179.541 166.379 179.425C166.3 179.317 166.221 179.216 166.143 179.1C166.123 179.059 166.084 178.984 166.064 178.943C166.044 178.894 166.025 178.835 166.005 178.785C167.106 174.378 167.559 169.787 168.247 165.299C168.916 160.791 169.604 156.276 170.332 151.77C171.06 147.264 171.847 142.764 172.634 138.266C173.165 135.228 173.715 131.476 176.272 129.411C178.986 127.211 183.058 127.518 186.323 127.543C191.004 127.585 195.665 127.626 200.347 127.667C209.473 127.742 218.619 127.825 227.765 127.9C238.131 127.992 248.516 128.14 258.901 128.157C258.98 128.157 259.039 128.15 259.118 128.14C259.393 128.323 259.648 128.522 259.845 128.787C260.533 129.685 260.514 130.947 260.435 132.016Z" fill="#1E1E1E"/>
<path d="M186.323 182.478C186.382 183.142 185.89 183.906 185.241 184.073C184.375 184.297 183.432 184.181 182.527 184.171C182.389 184.171 182.252 184.171 182.114 184.163C181.445 184.163 180.796 184.156 180.127 184.148C178.809 184.13 177.393 184.23 176.075 183.972C175.682 183.898 175.328 183.799 174.974 183.65C174.521 183.467 174.285 182.935 174.325 182.486C174.344 181.972 174.679 181.606 175.131 181.425C175.19 181.4 175.249 181.382 175.308 181.366C176.016 181.11 176.902 181.033 177.649 181.026C178.436 181.01 179.242 181.01 180.048 181.002C180.835 180.992 181.642 180.984 182.448 180.976C183.136 180.968 183.943 180.86 184.651 180.961C184.808 180.969 184.946 180.992 185.064 181.026C185.772 181.209 186.244 181.756 186.323 182.478Z" fill="#1E1E1E"/>
<path d="M236.262 189.591C235.613 189.634 234.964 189.624 234.295 189.6C232.919 189.526 231.522 189.343 230.165 189.276C228.12 189.177 226.074 189.053 224.048 188.878C222.002 188.713 219.977 188.537 217.951 188.372C217.145 188.297 216.357 188.238 215.571 188.122C215.177 188.073 214.804 188.014 214.43 187.931C213.643 187.766 212.876 187.533 212.129 187.167C211.322 186.679 211.44 185.482 212.266 185.234C212.483 185.167 212.699 185.118 212.916 185.069C212.975 185.051 213.053 185.043 213.112 185.035C214.076 184.837 215.04 184.811 216.023 184.844C216.751 184.86 217.479 184.919 218.226 184.976C220.252 185.126 222.298 185.293 224.324 185.441C226.35 185.598 228.395 185.799 230.401 186.024C232.388 186.246 234.532 186.238 236.459 186.687C236.794 186.762 237.029 186.911 237.226 187.118C237.973 187.931 237.6 189.508 236.262 189.591Z" fill="#1E1E1E"/>
<path d="M228.316 197.809C228.1 198.181 227.726 198.439 227.136 198.413C227.097 198.413 227.057 198.405 227.018 198.405C226.133 198.364 225.268 198.331 224.402 198.297C221.137 198.165 217.852 198.091 214.587 197.982C212.443 197.907 210.319 197.791 208.195 197.691L205.303 197.551C204.635 197.518 203.986 197.551 203.376 197.402C203.002 197.301 202.628 197.136 202.314 196.829C201.684 196.23 201.842 195.342 202.471 194.844C203.199 194.281 204.104 194.346 204.969 194.405C205.166 194.421 205.363 194.431 205.54 194.439C206.503 194.472 207.467 194.514 208.431 194.545C210.476 194.622 212.542 194.687 214.607 194.795C218.423 194.994 222.238 195.226 226.054 195.376C226.349 195.394 226.664 195.409 226.979 195.417C228.316 195.468 228.788 196.953 228.316 197.809Z" fill="#1E1E1E"/>
<path d="M242.183 196.465C241.789 196.63 241.474 196.929 241.219 197.301C238.013 201.967 232.446 204.431 226.979 205.079C220.724 205.817 214.469 204.722 208.234 204.289C206.444 204.165 204.654 204.083 202.864 204.091C201.783 204.098 200.681 204.098 199.6 204.215C199.993 203.593 200.367 202.963 200.721 202.331C201.645 200.713 202.51 199.053 203.376 197.402C203.986 197.551 204.635 197.518 205.303 197.551L208.195 197.691C210.319 197.791 212.443 197.907 214.587 197.982C217.852 198.091 221.137 198.165 224.402 198.297C224.737 198.746 225.287 199.004 225.956 198.795C226.31 198.687 226.664 198.555 227.018 198.405C227.057 198.405 227.097 198.413 227.136 198.413C227.726 198.439 228.1 198.181 228.316 197.809C228.788 196.953 228.316 195.468 226.979 195.417C226.664 195.409 226.349 195.394 226.054 195.376C226.703 194.986 227.372 194.622 228.021 194.23C229.044 193.6 230.047 192.919 231.03 192.205C232.152 191.384 233.253 190.512 234.295 189.6C234.964 189.624 235.613 189.634 236.262 189.591C237.6 189.508 237.973 187.931 237.226 187.118C237.029 186.911 236.793 186.762 236.459 186.687C234.532 186.238 232.387 186.246 230.401 186.024C228.395 185.799 226.349 185.598 224.324 185.441C222.298 185.293 220.252 185.126 218.226 184.976C217.479 184.919 216.751 184.86 216.023 184.844C215.787 183.567 215.177 182.362 214.312 181.366C213.623 180.579 212.778 179.972 211.853 179.557C213.309 179.707 214.784 179.774 216.239 179.856C219.052 180.022 221.865 180.163 224.697 180.238C230.204 180.396 235.751 180.486 241.258 180.213C241.258 180.337 241.258 180.47 241.278 180.594C241.573 185.882 241.868 191.177 242.183 196.465Z" fill="#1E1E1E"/>
<path d="M228.317 197.809C227.884 198.031 227.451 198.232 227.018 198.406C226.664 198.555 226.31 198.687 225.956 198.795C225.287 199.004 224.737 198.746 224.402 198.297C223.95 197.683 223.93 196.73 224.717 196.199C225.15 195.907 225.602 195.634 226.054 195.376C226.349 195.394 226.664 195.409 226.979 195.417C228.316 195.468 228.789 196.953 228.317 197.809Z" fill="#1E1E1E"/>
<path d="M236.262 189.591C235.613 189.634 234.964 189.624 234.295 189.6C235.082 188.927 235.85 188.222 236.597 187.5C236.794 187.309 237.01 187.185 237.226 187.118C237.973 187.931 237.6 189.508 236.262 189.591Z" fill="#1E1E1E"/>
<path d="M200.996 144.4C199.658 144.774 198.36 145.778 197.2 146.541C196.098 147.264 194.997 147.986 193.895 148.711C191.614 150.207 189.351 151.705 187.09 153.216C185.772 154.094 186.047 155.766 187.247 156.557C189.057 157.752 190.945 158.805 192.932 159.687C194.938 160.587 197.121 161.48 199.285 161.909C200.288 162.106 201.31 161.445 201.507 160.447C201.743 159.35 201.015 158.561 200.052 158.23C198.124 157.573 196.295 157.031 194.426 156.177C193.502 155.748 192.597 155.281 191.692 154.778C193.128 153.831 194.544 152.888 195.96 151.935C197.062 151.205 198.163 150.474 199.245 149.744C200.406 148.97 201.861 148.167 202.727 147.071C203.749 145.787 202.628 143.949 200.996 144.4Z" fill="#1E1E1E"/>
<path d="M215.197 140.768C213.899 142.608 213.014 144.732 212.05 146.764C211.067 148.856 210.103 150.961 209.198 153.085C207.369 157.287 205.54 161.528 204.045 165.856C203.376 167.778 206.641 168.927 207.428 167.045C209.178 162.902 210.752 158.693 212.542 154.569C213.407 152.569 214.292 150.571 215.197 148.583C216.141 146.476 217.282 144.39 217.951 142.171C218.403 140.707 216.102 139.48 215.197 140.768Z" fill="#1E1E1E"/>
<path d="M235.633 152.626C233.312 151.425 230.873 150.398 228.473 149.327C227.273 148.791 226.074 148.254 224.874 147.718C223.615 147.153 222.376 146.537 221.019 146.234C219.484 145.894 218.186 148.1 219.544 149.11C220.684 149.941 221.884 150.488 223.163 151.079C224.343 151.636 225.543 152.193 226.723 152.75C227.923 153.315 229.122 153.892 230.342 154.455C229.044 155.083 227.726 155.699 226.447 156.331C225.267 156.907 224.087 157.484 222.907 158.059C222.317 158.348 221.727 158.636 221.137 158.925C220.311 159.325 219.603 159.606 219.15 160.463C218.659 161.396 219.229 162.642 220.291 162.833C221.235 163.006 221.904 162.612 222.75 162.207C223.379 161.902 224.009 161.594 224.638 161.287C225.818 160.716 226.998 160.144 228.178 159.571C230.578 158.417 232.938 157.177 235.357 156.13C236.813 155.502 237.187 153.429 235.633 152.626Z" fill="#1E1E1E"/>
<path d="M130.994 117.295C130.856 116.978 130.699 116.679 130.444 116.437C130.326 116.331 130.188 116.244 130.07 116.15C129.834 115.98 129.618 115.817 129.382 115.653C128.811 115.246 128.26 114.819 127.67 114.437C127.178 114.126 126.706 113.827 126.215 113.524C125.979 113.374 125.743 113.248 125.487 113.142C125.153 113.004 124.799 112.841 124.445 112.785C124.091 112.732 123.756 112.823 123.52 113.085C123.304 113.323 123.166 113.74 123.304 114.051C123.835 115.22 124.897 116.067 125.821 116.913C126.254 117.301 126.706 117.655 127.159 118.022C127.749 118.512 128.398 119.195 129.185 119.331C129.735 119.427 130.286 119.266 130.66 118.848C131.014 118.472 131.23 117.787 130.994 117.295Z" fill="#1E1E1E"/>
<path d="M158.295 112.203C157.37 106.524 153.948 99.9449 147.851 98.6023C140.317 96.9429 134.102 104.303 131.525 110.504C131.191 111.274 131.348 112.154 132.056 112.64C132.686 113.053 133.768 113.098 134.259 112.404C137.092 108.319 139.413 102.498 145.136 101.933C150.132 101.439 153.358 106.636 154.479 110.842C155.738 115.557 154.892 120.953 151.549 124.63C148.598 127.896 143.956 129.768 139.59 128.713C137.308 128.161 135.204 126.758 133.709 124.965C132.922 124.033 132.332 122.972 131.88 121.848C131.447 120.74 130.975 119.508 130.758 118.333C130.542 117.075 128.693 116.734 128.398 118.161C128.103 119.579 128.064 120.809 128.379 122.228C128.693 123.589 129.342 124.902 130.129 126.057C131.643 128.344 133.827 130.244 136.325 131.36C141.635 133.715 147.89 132.443 152.296 128.795C157.154 124.776 159.278 118.394 158.295 112.203Z" fill="#1E1E1E"/>
<path d="M134.83 110.404C134.535 109.594 133.748 109.232 132.942 109.437C131.486 109.797 130.05 110.155 128.614 110.541C127.906 110.73 127.199 110.909 126.49 111.108C126.156 111.209 125.802 111.352 125.468 111.488C125.055 111.655 124.72 111.888 124.327 112.114C123.933 112.348 123.776 112.884 123.914 113.313C124.051 113.781 124.484 114.008 124.956 114.029C125.35 114.049 125.723 114.096 126.116 114.047C126.51 114 126.903 113.953 127.297 113.872C128.044 113.718 128.791 113.531 129.519 113.36C130.975 113.026 132.43 112.663 133.866 112.303C134.633 112.112 135.105 111.13 134.83 110.404Z" fill="#1E1E1E"/>
<path d="M149.424 114.13C149.129 114.894 148.657 115.608 148.224 116.305C147.693 117.159 147.143 117.982 146.553 118.795C145.51 120.272 144.369 121.683 143.15 123.012C142.599 123.626 141.34 123.659 140.927 122.829C140.789 122.547 140.672 122.264 140.534 121.982C139.039 120.878 137.977 119.466 137.328 117.691C136.758 116.047 136.364 113.99 137.072 112.321C137.918 110.287 140.298 109.98 141.95 111.226C142.206 111.425 142.422 111.665 142.619 111.923C142.757 111.766 142.914 111.616 143.071 111.474C144.232 110.339 146.021 109.185 147.752 109.632C148.677 109.874 149.463 110.563 149.719 111.5C149.955 112.396 149.759 113.283 149.424 114.13Z" fill="#F5C64C"/>
<path d="M284.353 89.1062C262.265 90.1456 242.143 90.5807 220.055 89.7519C213.899 89.5216 207.723 88.9684 201.567 89.1397C200.052 89.181 199.855 91.5747 201.37 91.8149C206.857 92.6751 212.444 92.8051 217.99 93.057C223.557 93.309 229.103 93.498 234.67 93.618C245.645 93.8582 256.64 93.8622 267.615 93.6259C273.929 93.4921 278.256 92.9114 284.55 92.622C286.812 92.5177 286.615 88.9999 284.353 89.1062Z" fill="#1E1E1E"/>
<path d="M230.361 4.79918C228.847 5.91138 227.451 7.20666 226.192 8.62595C225.877 8.99012 225.582 9.36414 225.267 9.74603C225.169 9.87792 225.07 10.0118 224.972 10.1437C216.219 10.309 207.447 10.4763 198.695 10.6496L184.218 10.933C181.878 10.9744 179.537 11.0728 177.197 11.1574C176.843 11.1653 176.489 11.1811 176.135 11.2067C176.154 10.9488 176.174 10.683 176.194 10.4271C176.253 9.78737 176.331 9.13186 176.37 8.47635C176.429 7.66336 176.469 6.84839 176.39 6.05311C176.331 5.37201 175.977 4.9232 175.485 4.70863C175.564 4.69879 175.643 4.69879 175.722 4.69879C184.278 4.73226 192.833 4.78344 201.389 4.80706C211.047 4.84052 220.704 4.84051 230.361 4.79918Z" fill="#1E1E1E"/>
<path d="M176.39 6.0531C176.469 6.84838 176.429 7.66335 176.37 8.47634C176.233 8.46846 176.075 8.46845 175.938 8.46845C173.597 8.43499 173.302 4.92319 175.485 4.70862C175.977 4.92319 176.331 5.372 176.39 6.0531Z" fill="#1E1E1E"/>
<path d="M238.701 4.75787C237.108 5.25591 235.574 5.94488 234.119 6.83268C233.233 7.37205 232.407 7.95275 231.601 8.60039C229.811 8.61613 228.001 8.62598 226.192 8.62598C227.451 7.20669 228.847 5.91141 230.361 4.7992C233.135 4.79133 235.908 4.78346 238.701 4.75787Z" fill="#1E1E1E"/>
<path d="M264.133 8.29328C262.284 8.32674 260.455 8.34249 258.606 8.36808C256.364 8.39367 254.142 8.4173 251.899 8.44289C250.601 8.45864 249.303 8.46847 248.005 8.48422C247.258 7.248 246.49 6.00193 245.861 4.7165C246.156 4.7165 246.451 4.70863 246.746 4.70863C247.611 4.69879 248.457 4.69091 249.303 4.68304C249.991 4.68304 250.64 4.67516 251.309 4.66729C254.161 4.6417 256.993 4.60823 259.825 4.58264C261.399 5.65351 262.835 6.89957 264.133 8.29328Z" fill="#1E1E1E"/>
<path d="M176.371 8.47634C176.331 9.13185 176.253 9.78735 176.194 10.4271C176.174 10.683 176.154 10.9488 176.135 11.2067C176.056 12.2362 175.958 13.2736 175.859 14.3031C175.84 14.4507 175.839 14.5925 175.82 14.7421C175.584 17.4901 175.328 20.2283 175.092 22.9763C173.558 40.4547 171.984 57.9429 170.431 75.4212C170.254 77.2972 170.096 79.1732 169.919 81.0472C169.309 80.0275 168.72 78.998 168.129 77.9684C167.618 77.1062 167.146 76.2342 166.654 75.3622C166.851 73.3799 167.028 71.3877 167.205 69.4035C167.343 67.935 167.461 66.4665 167.598 64.996C168.483 55.1279 169.369 45.2519 170.254 35.3838C170.706 30.4527 171.159 25.5157 171.611 20.5846C171.808 18.4271 172.004 16.2696 172.201 14.12C172.221 13.8051 172.26 13.498 172.28 13.181C172.339 12.6082 172.378 12.0275 172.417 11.4389C172.535 9.5472 172.653 7.60429 173.145 5.82083C173.46 4.66728 174.64 4.30901 175.486 4.70862C175.977 4.92318 176.331 5.372 176.39 6.0531C176.469 6.84838 176.43 7.66334 176.371 8.47634Z" fill="#1E1E1E"/>
<path d="M198.242 81.9055C197.554 79.4902 196.158 77.2756 194.348 75.5473C192.735 74.0118 189.844 71.9311 187.484 72.5846C186.579 72.8386 186.48 73.9764 187.051 74.5886C187.739 75.3012 188.781 75.6496 189.608 76.1201C190.493 76.6043 191.279 77.2087 192.007 77.8878C193.443 79.2224 194.505 80.9075 195.056 82.7835C195.626 84.7008 195.587 86.7559 195.076 88.6792C194.505 90.8189 193.306 92.376 191.87 93.9941C190.729 95.2914 192.44 97.5295 193.896 96.3996C198.105 93.1575 199.659 86.8839 198.242 81.9055Z" fill="#1E1E1E"/>
<path d="M232.938 13.3897C230.972 13.4311 229.005 13.4645 227.038 13.498C226.861 13.5059 226.684 13.5059 226.507 13.5059C225.268 13.5295 224.048 13.5551 222.809 13.5807C222.14 13.5885 221.472 13.6043 220.803 13.6141C212.247 13.7716 203.711 13.9291 195.174 14.0787C190.886 14.1614 186.618 14.2854 182.35 14.3031C180.206 14.3031 178.062 14.3346 175.918 14.3031C174.62 14.2775 173.421 14.2185 172.201 14.12C172.221 13.8051 172.26 13.498 172.28 13.181C172.339 12.6082 172.378 12.0275 172.417 11.4389C172.771 11.3976 173.125 11.3562 173.479 11.3385C174.365 11.2893 175.25 11.2401 176.135 11.2067C176.489 11.1811 176.843 11.1653 177.197 11.1574C179.538 11.0728 181.878 10.9744 184.219 10.933L198.695 10.6496C207.448 10.4763 216.22 10.309 224.972 10.1437C226.644 10.12 228.297 10.0866 229.949 10.0531C229.103 10.8661 228.336 11.7539 227.608 12.6909C227.49 12.8425 227.392 12.9901 227.294 13.1397C228.375 12.7086 229.595 12.5925 230.775 12.7421C231.542 12.8425 232.25 13.0649 232.938 13.3897Z" fill="#1E1E1E"/>
<path d="M265.117 9.39758C266.002 10.4507 266.808 11.5708 267.556 12.7578C266.022 12.7834 264.487 12.8169 262.953 12.8425C260.062 12.8996 257.151 12.9488 254.26 12.9999C253.001 13.0236 251.722 13.0492 250.483 13.0747C249.932 11.9291 249.342 10.7992 248.713 9.70468C248.988 9.69681 249.263 9.6968 249.539 9.68696C250.562 9.67121 251.565 9.64562 252.568 9.62987C255.027 9.58854 257.465 9.53735 259.924 9.49601C261.655 9.46255 263.386 9.43105 265.117 9.39758Z" fill="#1E1E1E"/>
<path d="M293.223 4.15354C293.184 4.13386 293.145 4.11614 293.105 4.09646C291.964 3.55315 290.646 3.65748 289.388 3.77362C282.562 4.40354 276.131 4.48425 269.325 4.48425C266.159 4.50787 262.992 4.54133 259.825 4.58266C261.399 5.65353 262.835 6.8996 264.133 8.2933C264.467 8.6496 264.802 9.01573 265.116 9.39762C266.002 10.4508 266.808 11.5709 267.555 12.7579C269.07 12.7342 270.565 12.7008 272.06 12.6752C278.216 12.559 284.352 12.4429 290.509 12.3445C288.385 32.1712 286.319 52.0079 284.235 71.8366C283.9 74.998 283.586 78.1595 283.291 81.3228C283.153 82.8406 282.976 84.3524 282.858 85.8701C282.74 87.5217 282.504 89.1811 282.72 90.8347C282.917 92.4941 284.962 92.5098 285.473 91.0335C286.378 88.4095 286.457 85.4213 286.792 82.6752C287.106 79.935 287.421 77.189 287.716 74.4508C288.326 68.8897 288.916 63.3287 289.506 57.7677C290.686 46.7874 291.866 35.7992 293.046 24.8169C293.499 20.6437 293.951 16.4626 294.384 12.2874C294.62 10.0512 295.78 5.52165 293.223 4.15354Z" fill="#1E1E1E"/>
<path d="M290.529 7.0905C290.411 6.75782 290.234 6.47436 289.978 6.23814C289.84 6.13577 289.683 6.03538 289.546 5.93499C289.231 5.77357 288.877 5.7027 288.523 5.72239C288.267 5.72829 288.031 5.79522 287.795 5.92514C287.559 6.01569 287.343 6.16137 287.185 6.36413C286.989 6.56098 286.851 6.79129 286.792 7.0531C286.674 7.29326 286.635 7.54916 286.654 7.81688C286.694 7.98224 286.733 8.14955 286.753 8.31491C286.871 8.64759 287.048 8.93105 287.303 9.16727C287.461 9.26963 287.598 9.37002 287.736 9.47042C288.07 9.63183 288.405 9.7027 288.759 9.68302C289.015 9.67711 289.27 9.61019 289.486 9.48027C289.722 9.38972 289.939 9.24403 290.116 9.04128C290.293 8.84443 290.431 8.61412 290.49 8.35231C290.608 8.11215 290.647 7.85624 290.627 7.58852C290.588 7.4212 290.568 7.25585 290.529 7.0905Z" fill="#F7F8F9"/>
<path d="M280.675 6.09448C278.196 6.09448 278.433 9.94093 280.891 9.94093C283.37 9.94093 283.153 6.09448 280.675 6.09448Z" fill="#F7F8F9"/>
</g>
<defs>
<clipPath id="clip0_1244_254">
<rect width="297" height="250" fill="white"/>
</clipPath>
</defs>
</svg>
