<svg width="307" height="268" viewBox="0 0 307 268" fill="none" xmlns="http://www.w3.org/2000/svg">
<g clip-path="url(#clip0_1212_715)">
<path d="M149.188 17.0964C147.086 16.7809 145.375 18.1359 144.153 19.6696C141.392 23.1257 139.754 27.4527 139.094 31.8065C138.776 33.8367 141.88 34.5044 142.223 32.4522C142.834 28.9227 144.275 25.7698 146.353 22.8714C146.793 22.2721 147.282 21.5432 147.868 21.0931C148.088 20.9268 148.382 20.8901 148.602 20.7605C148.577 20.9195 148.528 21.416 148.504 21.6043C148.382 22.0984 148.259 22.5901 148.161 23.0842C147.917 24.0699 147.698 25.0556 147.453 26.0414C146.549 29.9011 145.644 33.7657 144.764 37.6304C144.325 39.5994 143.811 41.5659 143.396 43.5496C143.102 45.0392 142.491 47.4754 143.445 48.8036C143.738 49.1925 144.178 49.2756 144.618 49.0555C145.644 48.5076 146.011 47.2235 146.377 46.1766C146.768 45.0637 147.062 43.9507 147.331 42.806L149.09 35.4168C149.677 32.9537 150.264 30.4906 150.826 28.025C151.363 25.7478 152.195 23.3581 152.366 21.0271C152.512 19.0043 151.168 17.3997 149.188 17.0964Z" fill="#1E1E1E"/>
<path d="M139.802 24.0283C139.167 21.8611 138.531 19.7014 137.847 17.5489C136.527 13.3834 135.281 9.07117 133.545 5.05977C132.788 3.30845 131.737 1.66473 130.026 0.723033C128.315 -0.208884 126.189 -0.289601 124.527 0.791519C120.519 3.44051 122.743 8.55016 124.136 11.9794C125.065 14.3153 126.018 16.6512 126.947 18.9847C127.435 20.1539 127.9 21.3231 128.389 22.4873C128.878 23.7054 129.293 25.0532 130.051 26.1343C131.004 27.4551 133.717 27.0442 133.399 25.0409C133.082 22.7882 131.908 20.5501 131.077 18.4392C130.222 16.2525 129.367 14.0658 128.511 11.8791C128.071 10.7858 127.631 9.69242 127.216 8.59907C126.849 7.64514 126.336 6.58605 126.385 5.53918C126.458 3.68513 127.998 4.0887 128.853 5.22608C130.075 6.81596 130.564 9.14453 131.224 10.9986C131.981 13.2097 132.715 15.4307 133.448 17.659C134.157 19.8897 134.841 22.1278 135.501 24.3732C135.843 25.4959 136.161 26.6186 136.503 27.7413C136.845 28.908 137.04 30.2582 137.823 31.217C138.751 32.3397 140.853 32.3177 141.122 30.6031C141.464 28.524 140.389 26.0193 139.802 24.0283Z" fill="#1E1E1E"/>
<path d="M130.1 21.9028C129.587 21.0393 129.001 20.2248 128.438 19.4005C127.363 17.8009 126.263 16.2012 125.188 14.5991C124.112 13.0337 123.086 11.4389 121.937 9.92237C120.935 8.57709 119.738 7.24648 118.174 6.56405C114.874 5.13071 110.988 6.62279 110.401 10.4116C109.863 14.0708 112.405 16.8298 114.605 19.403C116.071 21.1298 117.562 22.8567 119.029 24.5811C119.713 25.3981 120.422 26.2126 121.106 27.0271C121.937 27.9835 122.597 29.0132 123.99 28.9814C124.577 28.9692 125.163 28.4604 125.261 27.8734C125.579 26.1685 123.77 24.7426 122.768 23.5538C121.693 22.3064 120.642 21.0565 119.566 19.809C118.466 18.5127 117.367 17.2187 116.267 15.9199C115.412 14.922 114.483 13.8433 114.14 12.5494C113.945 11.8033 113.994 10.8225 114.483 10.2795C115.118 9.60443 116.194 9.89061 116.903 10.3382C117.929 10.9889 118.613 12.1018 119.298 13.0875C120.202 14.423 121.106 15.756 122.01 17.0842C123.061 18.6276 124.137 20.171 125.188 21.7144C125.725 22.4873 126.238 23.2701 126.825 24.0039C127.46 24.8184 128.096 25.831 129.22 25.9558C130.051 26.0511 130.736 25.6353 130.956 24.7988C131.249 23.7348 130.613 22.7956 130.1 21.9028Z" fill="#1E1E1E"/>
<path d="M119.761 30.4099C116.951 27.6557 114.433 24.6471 112.185 21.3916C111.647 20.6064 111.109 19.8114 110.621 18.9994C110.156 18.2705 109.668 17.4707 109.57 16.595C109.521 16.1107 109.619 15.4527 110.083 15.1763C110.376 15.0027 110.767 14.9733 110.963 15.257C111.671 16.3773 113.309 15.5139 112.991 14.2933C112.356 11.8791 109.179 11.3337 107.492 12.9725C105.464 14.9611 106.074 17.9721 107.296 20.2004C109.887 24.9456 113.554 29.2529 117.415 32.9977C119.028 34.5704 121.374 31.9777 119.761 30.4099Z" fill="#1E1E1E"/>
<path d="M118.539 31.0482C116.266 29.6149 113.871 28.5411 111.452 27.4257C109.423 26.4987 107.223 25.398 104.925 26.0486C103.752 26.3862 102.799 27.2643 102.384 28.4188C101.919 29.6956 102.237 31.0384 102.97 32.1415C103.654 33.1297 104.51 33.8953 105.463 34.5851C106.587 35.3947 107.712 36.2043 108.812 37.0115C110.009 37.8725 111.207 38.7335 112.404 39.5944C113.015 40.0372 113.626 40.4823 114.237 40.925C114.995 41.468 115.728 42.1652 116.657 42.3462C118.197 42.6421 119.174 40.9935 118.466 39.7118C118.172 39.1615 117.684 38.846 117.195 38.484C116.681 38.1171 116.169 37.7477 115.68 37.3808C114.751 36.696 113.797 36.0135 112.869 35.3287C111.036 33.9907 109.154 32.709 107.394 31.2952C107.052 31.0311 106.734 30.7498 106.441 30.4343C106.563 30.5688 106.294 30.2141 106.245 30.1603C106.245 30.1603 106.196 30.0796 106.172 30.0282C106.172 29.994 106.147 29.9451 106.123 29.8961C106.221 29.8937 106.294 29.8864 106.368 29.879C106.905 29.95 107.272 30.0282 107.639 30.1285C107.688 30.1456 107.76 30.1652 107.809 30.1848C108.005 30.2753 108.225 30.3511 108.42 30.4367C108.958 30.6642 109.472 30.8941 110.009 31.1216C112.478 32.1929 114.922 33.2374 117.513 33.9638C118.246 34.1693 119.052 33.6336 119.272 32.9463C119.541 32.1709 119.199 31.4738 118.539 31.0482Z" fill="#1E1E1E"/>
<path d="M120.593 49.6842C120.373 48.5835 120.153 47.4828 119.933 46.3821C119.737 45.323 119.517 44.2614 119.322 43.2023C119.102 42.1628 118.881 40.7588 118.197 39.9222C117.342 38.8851 115.924 39.1444 115.509 40.4212C115.191 41.4241 115.46 42.7522 115.631 43.7673C115.827 44.8729 116.047 45.976 116.242 47.0792C116.438 48.1407 116.609 49.2047 116.804 50.2663C117.049 51.5406 117.22 52.7465 117.806 53.9108C118.466 55.2047 120.812 54.7913 120.959 53.3237C121.081 52.0616 120.813 50.9194 120.593 49.6842Z" fill="#1E1E1E"/>
<path d="M118.172 60.5883C118.124 60.5883 118.123 60.6861 118.196 60.6861C118.245 60.6861 118.246 60.5883 118.172 60.5883Z" fill="#1E1E1E"/>
<path d="M169.62 184.971C162.337 179.937 155.787 173.888 150.337 166.917C144.838 159.907 140.145 152.236 136.308 144.201C127.778 126.321 123.696 106.604 122.034 86.9559C121.008 75.0171 121.252 63.0612 120.763 51.1077C120.69 49.036 117.244 48.6666 117.048 50.8386C115.997 61.7061 116.291 72.691 117.048 83.578C117.806 94.3843 119.248 105.142 121.741 115.694C126.018 133.938 133.521 151.828 145.106 166.665C151.363 174.678 158.622 182.024 166.859 187.987C167.738 188.633 168.936 188.738 169.742 187.857C170.402 187.128 170.524 185.604 169.62 184.971Z" fill="#1E1E1E"/>
<path d="M172.186 142.981C171.38 142.25 169.889 142.21 169.18 143.118C165.832 147.386 162.434 151.576 158.646 155.482C156.789 157.402 154.883 159.288 152.927 161.106C150.948 162.957 148.626 164.601 147.159 166.92C146.377 168.111 147.844 169.657 149.09 169.194C151.705 168.233 153.783 166.122 155.811 164.302C157.864 162.475 159.868 160.585 161.75 158.603C165.538 154.66 169.205 150.475 172.333 145.987C172.969 145.045 173.115 143.827 172.186 142.981Z" fill="#1E1E1E"/>
<path d="M252.694 94.6021C252.498 94.2034 252.181 93.8243 251.765 93.6384C251.594 93.5772 251.423 93.516 251.252 93.4549C250.885 93.3839 250.543 93.4035 250.201 93.5136C249.223 93.7019 248.27 94.0811 247.415 94.5752C247.317 93.8022 247.219 93.0097 247.024 92.2613C246.731 91.2878 245.655 90.7301 244.701 90.9086C243.699 91.1019 243.04 91.9824 243.064 93.0073C243.089 95.0325 243.748 97.0847 244.897 98.748C245.288 99.2959 245.826 99.6236 246.486 99.6701C247.122 99.7166 247.586 99.4916 248.05 99.1026C248.172 99.0048 248.392 98.8556 248.612 98.6991C248.857 98.7235 249.077 98.7162 249.297 98.6379C249.419 98.589 249.565 98.5303 249.687 98.474C249.883 98.474 250.054 98.4569 250.25 98.3982C250.567 98.2979 250.836 98.1145 251.081 97.9188C251.374 97.6864 251.668 97.4492 251.961 97.2168C252.376 96.8744 252.767 96.4635 252.865 95.8935C252.938 95.441 252.889 95.0154 252.694 94.6021Z" fill="#1E1E1E"/>
<path d="M225.101 119.996C226.543 119.448 228.033 118.913 229.549 118.563C229.891 118.482 230.258 118.406 230.6 118.338C230.624 118.335 230.893 118.286 230.942 118.277C231.162 118.242 231.382 118.213 231.602 118.184C232.359 118.088 233.141 118.086 233.923 118.003C234.363 117.959 234.877 117.973 235.292 117.836C235.928 117.628 236.465 116.992 236.514 116.322C236.588 115.674 236.098 114.967 235.536 114.676C235.121 114.456 234.559 114.454 234.095 114.414C232.384 114.28 230.551 114.608 228.913 115.072C227.104 115.584 225.394 116.344 223.927 117.484C223.365 117.907 223.096 118.6 223.414 119.257C223.707 119.857 224.441 120.248 225.101 119.996Z" fill="#1E1E1E"/>
<path d="M216.228 135.846C215.422 136.409 214.493 136.82 213.589 136.961C213.149 137.032 212.563 137.062 212.22 137.035C211.805 137.001 210.998 136.805 210.827 136.739C208.799 135.973 207.185 134.112 206.867 132.052C206.867 131.996 206.843 131.942 206.843 131.888C207.185 131.81 207.503 131.742 207.845 131.654C209.214 131.297 210.607 131.04 212.025 130.883C213.467 130.722 214.909 130.648 216.375 130.687C216.815 130.697 217.304 130.724 217.695 130.913C218.062 131.076 218.11 131.218 218.208 131.458C218.477 132.121 218.33 133.08 218.037 133.708C217.621 134.557 216.986 135.298 216.228 135.846ZM222.069 132.008C221.996 130.499 221.337 129 220.115 128.097C218.526 126.95 216.546 127.001 214.664 127.077C212.563 127.163 210.46 127.481 208.383 127.958C207.405 128.185 206.428 128.442 205.499 128.821C204.424 129.264 203.495 129.8 202.541 130.462C201.539 131.147 202.053 132.37 203.006 132.573C203.519 135.68 205.401 138.395 208.212 139.872C211.12 141.396 214.542 141.181 217.401 139.627C220.114 138.14 222.216 135.188 222.069 132.008Z" fill="#1E1E1E"/>
<path d="M301.819 204.59C301.281 206.151 300.475 207.501 299.546 208.773C300.719 206.258 301.086 203.306 300.597 200.598C299.546 194.73 295.367 190.306 291.041 186.509C289.623 185.262 288.084 184 286.617 182.657C289.721 184.161 293.142 185.108 296.002 187.089C298.544 188.855 300.524 191.463 301.623 194.354C302.87 197.656 302.968 201.242 301.819 204.59ZM291.945 245.944C289.501 248.202 286.202 249.285 283 250.007C279.334 250.853 275.545 251.316 271.806 251.719C263.081 252.656 254.282 252.822 245.532 252.12C241.133 251.77 236.783 251.254 232.433 250.523C228.449 249.863 224.489 248.965 220.53 248.192C220.236 247.781 219.772 247.49 219.234 247.583C217.548 247.879 216.644 249.224 215.104 249.921C213.613 250.611 211.902 250.878 210.265 250.934C205.963 251.081 201.808 249.547 197.507 249.388C192.985 249.222 189.075 251.051 184.773 252.037C184.236 252.162 182.231 252.587 182.745 251.619C183.087 250.961 183.918 250.464 184.529 250.088C185.506 249.479 186.508 248.901 187.511 248.344C189.539 247.211 191.714 246.177 194.036 245.766C196.382 245.352 198.704 245.497 201.051 245.643C202.053 245.704 202.248 244.415 201.711 243.838C197.849 239.724 191.201 241.933 186.973 244.051C184.724 245.171 180.472 247.265 179.03 250.007C178.125 250.137 177.221 250.562 176.292 250.511C175.583 250.469 174.557 249.992 174.581 249.148C174.63 248.268 175.73 247.488 176.365 247.018C177.539 246.154 178.785 245.389 180.056 244.697C182.5 243.388 185.091 242.427 187.78 241.788C190.566 241.123 193.45 241.018 196.236 240.284C197.409 239.974 197.018 238.501 196.114 238.183C192.496 236.928 188.293 237.753 184.7 238.746C181.107 239.739 177.612 241.331 174.532 243.447C173.579 244.107 172.651 244.951 171.918 245.903C171.551 244.958 171.624 243.721 172.015 242.909C172.773 241.385 174.508 240.543 176.024 239.991C178.077 239.247 180.251 238.726 182.402 238.371C183.575 238.176 184.773 238.029 185.971 237.931C187.242 237.826 188.512 237.836 189.759 237.462C191.348 236.985 191.055 234.798 189.588 234.404C189.026 234.247 188.415 234.201 187.829 234.191C187.731 233.846 187.511 233.577 187.144 233.443C182.549 231.794 177.661 231.011 172.846 230.102C173.653 228.194 177.025 228.226 178.81 228.546C182.305 229.184 185.726 230.082 189.197 230.774C196.236 232.156 203.324 233.279 210.436 234.135C224.538 235.815 238.738 236.476 252.914 236.033C256.873 235.918 260.832 235.722 264.767 235.363C268.825 234.991 273.004 234.754 277.012 233.93C278.943 233.538 278.234 230.576 276.377 230.63C272.711 230.742 269.044 231.259 265.354 231.484C264.938 230.082 264.4 228.698 263.765 227.355C264.303 226.976 264.816 226.528 265.33 226.127C266.234 225.41 267.162 224.728 268.14 224.08C270.168 222.717 272.295 221.509 274.495 220.462C276.621 219.447 278.87 218.608 281.142 217.933C282.242 217.603 283.366 217.314 284.491 217.065C284.833 216.994 285.175 216.94 285.517 216.879C287.522 220.501 289.379 224.214 291.163 227.886C292.727 231.073 294.707 234.465 295.122 238.034C295.489 241.167 294.218 243.838 291.945 245.944ZM169.302 239.066C167.592 236.209 166.125 233.548 165.343 230.27C164.61 227.213 164.488 223.962 165.001 220.861C165.441 218.17 166.37 215.597 167.641 213.205C167.763 213.244 167.885 213.281 168.031 213.293C168.496 214.726 169.547 215.983 170.94 216.82C173.408 218.285 176.659 218.429 179.445 218.036C182.256 217.634 184.944 216.676 187.364 215.201C188.512 214.511 189.686 213.674 190.712 212.696C190.932 212.632 191.128 212.562 191.299 212.488C192.936 211.828 194.33 210.602 195.038 208.971C195.747 207.364 195.869 205.507 195.307 203.837C195.014 202.99 194.525 202.217 194.036 201.464C193.792 201.092 193.132 200.381 193.279 199.864C193.548 198.896 195.698 198.575 196.456 198.35C198.142 197.834 199.706 197.091 200.757 195.667C201.857 196.472 203.079 197.091 204.301 197.472C206.306 198.113 208.505 198.04 210.509 197.536C210.949 197.433 211.413 197.286 211.927 197.091C212.611 199.092 213.417 201.051 213.564 203.093C213.711 205.074 212.978 206.569 211.511 207.89C209.972 209.301 208.114 210.365 206.721 211.972C205.352 213.55 204.497 215.521 204.277 217.603C203.935 221.1 205.156 225.256 208.114 227.257C208.163 227.411 208.212 227.555 208.261 227.719C208.285 227.866 208.31 227.978 208.358 228.091C208.358 228.142 208.383 228.194 208.383 228.245C208.432 228.482 208.456 228.732 208.481 228.969V229.659C208.481 229.803 208.481 229.938 208.53 230.072C201.246 229.155 193.987 227.947 186.802 226.442C184.871 226.039 182.94 225.606 181.01 225.173C178.957 224.72 176.855 224.317 174.777 224.679C171.502 225.246 168.252 228.184 168.887 231.775C169.058 232.609 169.522 233.372 170.427 233.548C173.433 234.115 176.463 234.786 179.494 235.311C177.221 235.815 174.948 236.471 172.871 237.545C171.575 238.205 170.426 239.142 169.595 240.301C169.62 239.89 169.547 239.465 169.302 239.066ZM280.287 157.395C282.12 160.193 281.411 162.774 280.092 165.611C279.945 165.924 279.798 166.242 279.651 166.56C279.774 163.823 280.018 161.062 279.553 158.378C279.382 157.358 279.114 156.397 278.747 155.485C279.309 156.074 279.847 156.705 280.287 157.395ZM201.955 190.863C201.881 189.1 201.564 187.285 201.808 185.521C202.077 183.787 202.688 182.116 203.666 180.664C203.935 180.302 204.228 179.952 204.57 179.612C205.377 181.302 207.943 181.106 208.603 179.096C209.141 177.467 209.091 175.485 209.238 173.776C209.409 171.929 209.507 170.082 209.58 168.226C209.678 165.359 209.923 162.348 209.654 159.45C210.411 159.418 211.144 159.264 211.78 158.965C213.32 158.234 214.053 155.737 212.098 154.893C210.827 154.345 209.678 154.303 208.358 154.066C207.161 153.851 206.037 153.499 204.912 152.995C202.688 151.963 200.757 150.468 199.071 148.653C195.478 144.764 193.816 139.608 193.792 134.369C193.743 128.263 195.796 122.283 198.704 116.992C201.295 112.289 204.643 107.813 208.847 104.401C210.998 106.262 212.513 108.732 212.317 111.804C212.293 112.196 212.22 112.582 212.147 112.964C211.902 112.433 211.486 111.956 211.095 111.531C210.607 111.029 210.02 110.626 209.434 110.259C208.847 109.889 208.236 109.628 207.552 109.437C206.941 109.261 206.207 109.092 205.572 109.197C205.23 109.251 204.961 109.332 204.717 109.552C204.472 109.757 204.253 110.051 204.204 110.374C204.106 111.034 204.399 111.653 204.985 111.983C205.23 112.118 205.45 112.196 205.719 112.289C205.596 112.24 205.45 112.193 205.328 112.147C206.012 112.394 206.648 112.758 207.259 113.157C207.748 113.531 208.211 113.962 208.627 114.436C208.774 114.632 208.945 114.83 209.116 115.001C209.19 115.072 209.262 115.146 209.336 115.212C209.629 115.466 209.972 115.61 210.314 115.699C210.558 115.755 210.778 115.75 210.998 115.701C210.705 116.195 210.338 116.66 209.971 117.085C208.554 118.619 206.794 119.319 204.937 120.138C204.13 120.49 203.69 121.087 203.666 121.965C203.666 122.1 203.714 122.293 203.763 122.42C204.032 123.252 204.765 123.633 205.596 123.672C208.407 123.802 211.218 121.916 213.075 119.928C215.055 117.792 216.302 115.026 216.473 112.108C216.693 108.537 215.079 104.481 212.293 101.933C214.248 100.707 216.326 99.7287 218.525 99.0169C220.994 98.2122 223.487 97.975 226.029 97.8111C226.738 97.7597 227.447 97.7181 228.155 97.6668C230.135 99.3153 232.139 100.854 233.899 102.772C235.732 104.772 237.296 107.123 238.445 109.586C239.569 111.929 240.376 114.485 240.791 117.044C241.011 118.404 241.133 119.766 241.133 121.138C241.157 122.2 241.084 123.168 241.231 124.14C240.962 124.428 240.816 124.82 240.816 125.272C240.938 129.491 238.029 133.39 235.096 136.142C231.772 139.287 227.789 141.763 224.88 145.351C222.045 148.849 220.09 153.335 220.97 157.882C221.385 159.985 222.436 161.842 223.438 163.708C224.171 165.09 225.198 166.761 224.929 168.392C224.66 169.999 222.9 170.897 221.629 171.618C219.894 172.599 218.232 173.538 216.741 174.876C213.784 177.476 211.756 181.116 210.851 184.922C210.216 187.573 210.265 190.129 210.754 192.668C210.656 192.708 210.558 192.749 210.484 192.781C210.093 192.935 209.727 193.07 209.336 193.172C208.651 193.378 208.187 193.429 207.308 193.429C206.819 193.441 206.965 193.451 206.476 193.368C206.085 193.307 205.694 193.214 205.303 193.111C204.986 192.996 204.79 192.915 204.594 192.822C204.252 192.656 203.935 192.47 203.593 192.265C203.348 192.079 203.153 191.944 203.006 191.8C202.737 191.585 202.468 191.357 202.224 191.12C202.126 191.027 202.052 190.944 201.955 190.863ZM261.883 223.972C261.248 222.989 260.588 222.037 259.879 221.14C258.633 219.537 257.264 218.018 255.699 216.693C254.135 215.345 252.376 213.919 250.421 213.212C249.614 212.926 248.759 213.007 248.27 213.77C247.781 214.472 247.879 215.389 248.49 215.986C249.834 217.253 251.374 218.288 252.718 219.547C254.038 220.78 255.309 222.101 256.408 223.532C258.364 226.068 259.781 228.8 260.906 231.743C258.51 231.877 256.091 232 253.671 232.083C248.979 232.247 244.286 232.3 239.594 232.237C241.084 230.339 241.255 227.629 240.669 225.266C239.96 222.399 237.785 219.718 239.154 216.717C240.4 214.014 242.649 211.921 243.968 209.24C245.362 206.373 245.435 203.218 245.068 200.102C244.75 197.35 243.969 194.307 244.653 191.563C245.288 189.129 247.39 187.882 249.785 187.657C255.626 187.118 261.883 190.482 266.478 193.759C273.615 198.874 278.943 205.742 283.391 213.197C282.291 213.44 281.167 213.716 280.092 214.036C277.574 214.773 275.13 215.722 272.783 216.842C270.486 217.93 268.262 219.202 266.185 220.648C265.158 221.347 264.181 222.084 263.227 222.859C262.787 223.211 262.323 223.576 261.883 223.972ZM306.683 198.685C306.243 191.602 301.794 185.255 295.44 182.209C290.332 179.763 279.554 177.31 282.878 169.304C284.222 166.049 286.055 163.065 285.395 159.393C284.809 156.086 282.609 153.347 280.067 151.27C277.11 148.861 273.639 147.369 270.388 145.449C269.704 145.04 269.02 144.605 268.336 144.138C266.063 140.19 267.065 135.005 267.114 130.553C267.211 119.468 262.005 108.361 253.476 101.297C248.563 97.2338 242.551 94.4283 236.269 93.3447C232.359 92.6745 228.302 92.5107 224.416 93.22C223.438 93.2004 222.46 93.2616 221.507 93.3961C220.945 93.3765 220.408 93.3765 219.894 93.3863C217.352 93.4181 214.835 93.7777 212.391 94.3133C207.381 95.3969 202.541 97.4686 198.338 100.367C189.783 106.257 183.844 115.559 181.84 125.737C181.327 128.263 181.083 130.864 181.083 133.442C181.059 136.091 181.45 138.72 181.645 141.371C181.841 143.805 181.987 146.454 180.985 148.746C180.912 148.878 180.863 149.013 180.789 149.137C179.836 148.017 178.761 147.007 177.759 145.933C176.512 144.617 175.29 143.289 174.093 141.932C171.698 139.204 169.424 136.35 167.298 133.402C163.045 127.478 159.281 121.163 156.153 114.571C149.872 101.414 146.01 87.0512 144.715 72.5368C144.348 68.4007 144.153 64.2499 144.202 60.0966C144.226 56.0338 144.324 51.7289 145.253 47.7616C145.864 45.1737 141.586 44.6087 141.464 47.4876C141.318 51.2251 140.756 54.9601 140.56 58.7C140.365 62.4496 140.34 66.2116 140.511 69.9637C140.854 77.5682 142.002 85.1532 143.836 92.5424C147.404 107.155 153.66 121.19 162.214 133.569C164.634 137.084 167.274 140.454 170.036 143.698C172.578 146.638 175.266 149.954 178.492 152.219C178.028 152.706 177.539 153.168 177.074 153.633C175.535 155.191 173.946 156.81 172.944 158.789C171.795 161.059 171.673 163.503 172.235 165.958C173.139 169.794 176.708 173.918 173.653 177.589C172.089 179.477 170.084 180.972 168.642 182.985C168.447 183.273 168.251 183.582 168.056 183.88C167.347 185.076 166.809 186.355 166.467 187.686C166.076 188.946 165.856 190.264 165.759 191.595C165.514 194.875 165.636 198.174 165.661 201.454C165.685 203.145 165.71 204.825 165.734 206.517C165.734 207.007 165.759 207.481 165.808 207.948C163.021 211.524 161.114 215.771 160.381 220.327C159.208 227.687 160.943 236.204 165.856 241.972C166.711 242.967 167.86 242.789 168.667 242.097C168.594 242.356 168.496 242.62 168.447 242.894C168.007 245.073 168.618 247.387 170.647 248.439C170.378 249.652 170.598 250.934 171.575 252.199C172.724 253.7 174.508 254.512 176.39 254.525C177.27 254.53 178.272 254.358 179.152 253.982C179.201 254.084 179.274 254.185 179.347 254.287C180.594 256.124 182.989 256.359 185.018 255.99C187.51 255.535 189.906 254.456 192.374 253.828C195.087 253.135 197.751 253.113 200.513 253.539C203.177 253.95 205.817 254.574 208.505 254.806C210.925 255.014 213.418 254.909 215.715 254.097C216.742 253.73 218.061 253.143 219.112 252.326C226.811 254.813 235.096 255.894 243.137 256.577C251.447 257.276 259.855 257.286 268.164 256.638C272.295 256.318 276.401 255.833 280.507 255.163C284.417 254.512 288.303 253.647 291.823 251.709C294.731 250.1 297.371 247.561 298.74 244.489C300.402 240.817 300.108 236.848 298.789 233.115C297.835 230.351 296.491 227.69 295.122 225.051C295.905 225.141 296.76 224.782 297.297 224.182C297.591 223.852 297.86 223.39 298.055 222.986C298.397 222.316 298.642 221.553 298.74 220.8C298.886 219.863 298.837 219.058 298.617 218.141C298.593 218.048 298.568 217.955 298.519 217.862C298.471 216.979 298.3 216.147 298.08 215.333C301.013 214.11 303.09 211.483 304.532 208.69C306.096 205.632 306.903 202.125 306.683 198.685Z" fill="#1E1E1E"/>
<path d="M214.37 264.186C209.433 269.8 187.511 267.334 184.04 267.249C176.781 267.075 169.522 266.857 162.263 266.6C149.09 266.146 135.916 265.578 122.743 264.888C116.266 264.558 109.789 264.186 103.288 263.795C100.062 263.599 96.836 263.391 93.5854 263.186C90.7747 262.99 87.8663 262.949 85.0801 262.34C82.3428 261.753 79.8005 260.588 77.9186 258.443C76.1833 256.452 75.3037 253.957 74.5461 251.46C72.713 245.284 70.9045 239.095 69.0959 232.917C65.4054 220.347 61.2745 207.807 58.3172 195.029C58.2195 194.513 58.2929 194.05 58.464 193.647C58.1218 193.307 57.9755 192.842 58.1221 192.287C59.6374 187.141 65.0144 185.81 69.8048 185.541C75.5239 185.22 81.2919 185.438 87.011 185.48C93.0967 185.531 99.1579 185.614 105.219 185.737C111.305 185.861 117.366 186.015 123.427 186.211C126.409 186.304 129.415 186.407 132.397 186.531C133.936 186.593 135.477 186.666 137.016 186.727C138.556 186.801 140.218 186.708 141.684 187.15C142.149 187.285 142.515 187.51 142.784 187.779C147.134 188.471 149.309 192.47 150.58 196.286C152.047 200.721 152.976 205.363 154.125 209.878C155.371 214.851 156.642 219.821 157.913 224.791C160.21 233.888 162.532 242.985 164.805 252.088C166.858 252.049 168.887 252.194 170.915 252.287C173.848 252.409 176.781 252.605 179.714 252.781C184.822 253.091 189.93 253.4 195.038 253.708C197.58 253.864 200.122 254.018 202.688 254.172C204.912 254.317 207.283 254.275 209.458 254.865C211.535 255.442 213.442 256.555 214.468 258.524C215.788 260.987 215.568 262.824 214.37 264.186Z" fill="#1E1E1E"/>
<path d="M79.8251 244.565C78.9697 242.099 75.5479 243.342 76.0612 245.788C76.5011 247.972 73.3727 249.202 71.7841 249.395C68.6801 249.77 65.4543 249.542 62.3503 249.545C59.1486 249.547 55.9716 249.547 52.7698 249.547C50.0325 249.547 47.2704 249.64 44.5331 249.413C42.0157 249.205 39.4984 248.715 37.2988 247.412C35.2213 246.181 33.828 244.078 32.8504 241.923C31.7262 239.413 30.9928 236.716 30.2351 234.071C29.4041 231.08 28.6712 228.059 28.0357 225.016C27.3025 221.521 26.7649 217.994 26.276 214.457C26.0316 212.672 25.8361 210.884 25.665 209.091C25.4939 207.278 25.3964 205.561 24.6143 203.905C24.0766 202.819 22.0964 202.905 21.7054 204.05C21.0699 205.794 21.1923 207.511 21.3145 209.345C21.4367 211.138 21.6077 212.928 21.8032 214.716C22.1943 218.322 22.8052 221.9 23.5384 225.457C24.2472 228.984 25.1027 232.484 26.0803 235.943C26.9358 238.949 27.8401 241.945 29.2333 244.753C30.5775 247.451 32.5086 249.743 35.0749 251.33C37.6411 252.901 40.6718 253.563 43.6291 253.825C46.9286 254.116 50.2276 254.038 53.5515 254.035C57.242 254.033 60.9326 254.028 64.6232 254.021C68.3381 254.016 72.4933 254.466 75.9394 252.793C78.9701 251.311 80.9983 247.935 79.8251 244.565Z" fill="#1E1E1E"/>
<path d="M32.6312 199.889C32.3135 199.639 31.9954 199.429 31.6288 199.295C31.2378 199.162 30.8468 199.153 30.4557 199.167C30.0647 199.18 29.6737 199.211 29.2826 199.263C28.3783 199.385 27.4493 199.576 26.545 199.864C25.714 200.136 24.7858 200.473 24.0526 200.972C23.6371 201.261 23.2455 201.574 22.9034 201.963C22.7078 202.178 22.5368 202.42 22.3902 202.665C22.2191 202.966 22.1951 203.333 22.244 203.67C22.0485 204.267 22.537 204.869 23.1235 204.984C23.2702 205.062 23.4167 205.123 23.5878 205.16C23.9788 205.241 24.3698 205.145 24.7364 205.045C25.0786 204.952 25.4211 204.832 25.7633 204.703C25.8366 204.671 25.934 204.639 26.0074 204.607C26.5695 204.341 26.643 204.301 26.252 204.49C26.3253 204.389 26.6429 204.319 26.7652 204.27C27.1073 204.133 27.4493 204.008 27.7915 203.9C28.1336 203.793 28.5007 203.709 28.8673 203.624C28.9162 203.614 28.9401 203.607 28.989 203.599C29.1846 203.57 29.3562 203.548 29.5517 203.526C29.8939 203.487 30.2603 203.462 30.627 203.455C31.2868 203.443 31.8245 203.321 32.3866 202.944C33.3398 202.286 33.6578 200.689 32.6312 199.889Z" fill="#1E1E1E"/>
<path d="M67.4343 207.249C67.1411 206.334 66.3099 205.921 65.4056 205.864C63.9147 205.774 62.2524 206.322 60.7615 206.515C59.2951 206.708 57.8046 206.848 56.3138 206.941C53.3076 207.124 50.2526 207.122 47.2464 206.875C44.2891 206.633 41.3315 206.248 38.3986 205.644C36.8833 205.326 35.3683 204.94 33.853 204.529C32.3866 204.133 30.8955 203.614 29.3557 203.609C28.0848 203.604 27.4735 205.405 28.4267 206.212C29.6976 207.259 31.3108 207.767 32.8506 208.274C34.3903 208.79 36.0033 209.208 37.5919 209.582C40.7203 210.316 43.8979 210.835 47.0996 211.077C50.3258 211.321 53.5763 211.368 56.8025 211.162C58.3667 211.062 59.9306 210.908 61.4704 210.698C63.1812 210.463 65.0634 210.319 66.6031 209.558C67.3852 209.171 67.6787 208.024 67.4343 207.249Z" fill="#1E1E1E"/>
<path d="M45.8773 207.623C44.5331 202.095 42.9691 196.621 41.1849 191.216C40.2562 188.437 39.2781 185.678 38.2516 182.938C37.2984 180.431 36.4185 177.819 35.172 175.437C33.9989 173.15 31.702 171.188 28.9646 171.479C26.5939 171.733 25.0539 173.59 24.394 175.767C23.7096 178.032 23.9293 180.578 24.1249 182.897C24.3448 185.477 24.7848 188.048 25.3713 190.567C26.6911 196.271 29.0132 202.455 32.9482 206.875C34.1458 208.225 36.712 206.591 35.9543 204.937C34.1213 200.831 31.9218 196.978 30.602 192.646C29.2822 188.378 28.5487 183.961 28.4753 179.494C28.4509 178.717 28.329 176.175 29.3799 175.933C30.7486 175.613 31.6775 178.487 32.0197 179.328C33.8772 183.846 35.5632 188.427 37.0785 193.06C38.8138 198.311 40.3294 203.631 41.6736 209C42.0158 210.409 43.824 210.915 44.9727 210.184C45.8037 209.643 46.1706 208.545 45.8773 207.623Z" fill="#1E1E1E"/>
<path d="M48.6633 166.937C47.9057 163.689 47.0262 160.465 46.0241 157.275C45.242 154.753 44.2644 152.168 42.3091 150.297C40.4028 148.477 37.6896 147.927 35.3189 149.194C33.0948 150.397 31.9953 152.956 31.3843 155.299C29.5757 162.436 29.6979 170.102 31.3843 177.232C31.7998 178.981 34.6593 178.433 34.4638 176.652C33.8772 170.875 33.9259 164.943 34.9036 159.212C35.2213 157.358 35.4897 154.719 36.9317 153.31C38.2026 152.051 39.4982 153.376 40.2314 154.528C41.5268 156.515 42.0645 158.938 42.7244 161.179C43.531 163.994 44.2639 166.834 44.8994 169.696C46.1703 175.319 47.0748 181.021 47.6125 186.757C48.2724 193.324 48.4435 199.928 48.1746 206.522C48.1257 207.67 49.3476 208.584 50.423 208.523C51.6694 208.452 52.3784 207.43 52.4273 206.275C52.9894 193.057 51.6939 179.815 48.6633 166.937Z" fill="#1E1E1E"/>
<path d="M117.219 137.257C113.847 137.727 110.498 138.165 107.199 139.053C106.514 139.239 106.099 140.026 106.246 140.696C106.392 141.437 106.979 141.865 107.737 141.88C109.619 141.917 111.476 141.807 113.358 141.648C112.747 142.565 112.111 143.477 111.5 144.4C110.84 145.412 110.181 146.425 109.496 147.437C108.837 148.44 108.079 149.426 107.517 150.485C106.417 152.54 109.325 154.567 110.889 152.821C111.329 152.332 111.525 152.014 111.843 151.512C111.892 151.432 111.941 151.346 111.989 151.253C112.356 150.678 112.698 150.094 113.065 149.529C113.749 148.479 114.434 147.428 115.118 146.378C116.462 144.314 117.806 142.242 119.126 140.158C119.908 138.916 118.661 137.057 117.219 137.257Z" fill="#1E1E1E"/>
<path d="M106.783 152.268C106.735 161.563 99.8424 170.055 91.0438 172.655C81.6586 175.427 71.1004 171.716 64.8191 164.4C58.2446 156.759 56.1918 145.662 58.8802 136.049C60.1756 131.416 62.7906 126.923 66.7011 124.042C70.6605 121.141 75.6216 119.967 80.4853 120.319C92.1679 121.168 100.453 130.482 104.877 140.623C105.928 143.03 109.668 141.932 108.837 139.339C105.219 128.29 96.2004 118.526 84.5912 116.056C78.8476 114.835 72.738 115.381 67.41 117.924C62.1064 120.478 58.0491 125.094 55.7028 130.462C50.9369 141.279 52.1589 154.528 58.6601 164.373C65.1368 174.135 77.2102 180.047 88.9172 178.134C101.504 176.08 111.745 164.973 111.598 151.989C111.549 148.881 106.808 149.186 106.783 152.268Z" fill="#1E1E1E"/>
<path d="M82.2935 151.828C82.0735 150.747 81.389 149.749 80.9491 148.768C80.4847 147.743 80.0698 146.704 79.6787 145.647C79.2632 144.492 78.9206 143.318 78.5784 142.135C78.4807 141.115 78.2362 140.104 77.894 139.177C77.503 138.15 76.4036 137.529 75.3282 137.876C74.204 138.25 73.8373 139.351 74.0328 140.427C74.2283 141.398 74.4484 142.362 74.6928 143.318C74.7172 144.082 74.619 144.7 74.2279 145.351C74.1791 145.393 74.0328 145.596 74.0084 145.618C73.9839 145.657 73.8126 145.804 73.7637 145.843C73.6171 145.953 73.4706 146.056 73.2995 146.146C73.1773 146.192 73.0792 146.232 72.9814 146.263C72.6393 146.329 72.5171 146.329 72.3949 146.332C71.8572 144.184 71.5397 141.951 70.831 139.86C70.5377 139.062 69.731 138.556 68.9001 138.725C68.0202 138.903 67.5312 139.61 67.5068 140.484C67.4335 142.922 68.0693 145.444 68.5582 147.814C69.0714 150.16 69.7069 152.474 70.4646 154.756C70.8068 155.842 72.0284 156.468 73.1282 156.113C74.2281 155.756 74.8148 154.543 74.4726 153.45C74.106 152.332 73.764 151.207 73.4218 150.077C74.5461 149.869 75.597 149.37 76.4524 148.626C76.6724 149.179 76.868 149.739 77.1124 150.282C77.6745 151.527 78.1873 152.882 79.1405 153.865C79.7271 154.477 80.803 154.511 81.4873 154.066C82.2694 153.565 82.4645 152.684 82.2935 151.828Z" fill="#1E1E1E"/>
<path d="M88.1354 147.777C87.8177 146.183 87.3044 144.629 86.8889 143.091C86.6689 142.296 86.4489 141.506 86.2045 140.718C85.9112 139.786 85.6423 138.686 84.9091 138.001C84.2247 137.367 82.7338 137.453 82.3916 138.458C82.245 138.869 82.147 139.207 82.147 139.647C82.147 139.823 82.1714 140.009 82.1714 140.185C82.1959 140.606 82.3183 141.024 82.3916 141.438C82.5627 142.357 82.7337 143.274 82.9292 144.189C83.1003 144.996 83.2713 145.806 83.4424 146.616C83.6135 147.445 83.7356 148.313 84.0045 149.12C84.3711 150.199 85.6423 150.928 86.7421 150.517C87.8175 150.118 88.5509 148.915 88.1354 147.777Z" fill="#1E1E1E"/>
<path d="M81.7317 129.993C78.9699 129.993 79.2145 134.315 82.0008 134.315C84.7625 134.315 84.5179 129.993 81.7317 129.993Z" fill="#1E1E1E"/>
<path d="M93.9032 138.358C93.8299 137.424 93.7814 136.494 93.6836 135.565C93.4636 133.586 93.2189 131.666 92.7545 129.729C92.3879 128.3 89.9929 128.403 89.8218 129.893C89.724 130.925 89.6016 131.957 89.5771 132.996C89.5771 133.928 89.6261 134.868 89.6505 135.797C89.675 136.731 89.724 137.663 89.7973 138.595C89.8462 139.654 89.9683 141.034 90.8726 141.672C91.5569 142.306 92.6811 142.252 93.2432 141.486C94.0253 140.736 93.9765 139.41 93.9032 138.358Z" fill="#1E1E1E"/>
<path d="M93.0727 144.771C90.1887 144.771 90.4572 149.238 93.3168 149.238C96.2007 149.238 95.9323 144.771 93.0727 144.771Z" fill="#1E1E1E"/>
<path d="M61.6174 174.439C61.4952 169.111 61.1778 163.63 60.1024 158.395C59.6625 156.189 58.6111 154.007 56.5336 152.921C54.6273 151.911 52.3299 152.173 50.4479 153.117C48.2483 154.223 46.8062 156.192 46.1219 158.53C45.2909 161.291 45.8779 164.06 46.5623 166.778C46.9778 168.453 49.2749 167.766 49.3238 166.254C49.446 163.236 49.1528 158.251 52.4767 156.786C56.1672 155.167 56.2403 161.032 56.5092 163.212C57.609 172.345 57.6095 181.615 56.4608 190.743C55.8009 196.037 54.6033 201.166 53.4057 206.351C52.8436 208.736 56.3873 209.971 57.4627 207.772C57.5604 207.596 57.6334 207.418 57.7312 207.242C57.8778 206.955 57.9269 206.65 57.9024 206.354C59.3444 201.327 60.1997 196.061 60.8107 190.885C61.4462 185.433 61.7152 179.93 61.6174 174.439Z" fill="#1E1E1E"/>
<path d="M72.9097 173.695C71.3944 170.405 67.8994 168.551 64.331 169.275C62.4002 169.664 60.6401 170.821 59.638 172.518C58.6115 174.238 58.6116 176.026 59.1004 177.919C59.5159 179.565 61.8136 178.915 61.838 177.401C61.8869 176.129 62.9621 174.468 64.0375 173.798C65.0884 173.145 66.5303 173.157 67.5812 173.807C70.7096 175.723 69.4147 180.49 68.6815 183.278C66.653 191.02 64.1108 198.703 60.3469 205.786C59.0516 208.259 63.0844 210.294 64.2087 207.75C67.4349 200.334 70.5143 192.884 72.6406 185.066C73.6671 181.356 74.5961 177.357 72.9097 173.695Z" fill="#1E1E1E"/>
<path d="M217.377 61.4689L221.654 80.5695L231.821 68.8435C231.821 68.8435 260.71 78.6151 273.59 59.8545C286.495 41.0964 281.02 14.5233 252.523 6.70599C224 -1.10889 208.773 20.7752 206.818 31.7185C204.863 42.6618 217.377 61.4689 217.377 61.4689Z" fill="#F5C64C"/>
<path d="M231.04 66.8206C229.744 67.2976 228.669 69.0293 227.789 70.086C226.86 71.1989 225.956 72.3338 225.076 73.4859C224.392 74.3762 223.756 75.2861 223.096 76.196C222.828 74.4985 222.559 72.7986 222.29 71.1011C221.752 67.689 221.312 64.1839 220.017 60.9601C219.479 59.6246 217.475 60.1529 217.377 61.4688C217.108 64.9348 217.768 68.4619 218.257 71.8887C218.746 75.3399 219.235 78.7863 219.748 82.2327C220.017 84.0232 222.608 84.5539 223.585 83.0374C225.125 80.6477 226.738 78.3167 228.473 76.0591C229.304 74.9559 230.16 73.8675 231.04 72.7986C231.92 71.7517 233.41 70.5556 233.728 69.2177C234.119 67.5128 232.702 66.2263 231.04 66.8206Z" fill="#1E1E1E"/>
<path d="M281.362 26.7507C275.203 13.2025 260.27 4.56574 245.801 3.31096C231.724 2.09286 217.45 8.39368 209.727 20.4205C202.248 32.0414 202.835 47.9377 211.927 58.5508C213.051 59.8496 214.297 61.0237 215.617 62.1122C216.57 62.9193 218.184 62.4962 218.868 61.5202C219.65 60.4 219.259 59.0693 218.281 58.2573C209.092 50.6112 206.892 36.7768 211.804 26.1661C216.937 15.0247 229.01 8.05369 241.084 7.88003C253.989 7.69658 267.578 14.0439 274.788 24.97C278.063 29.9207 279.578 35.7128 279.089 41.6222C278.576 47.4754 276.23 53.0669 272.637 57.6801C268.287 63.2471 261.932 66.9772 255.137 68.6356C247.781 70.426 240.375 69.8072 233.092 67.9556C230.55 67.3099 229.28 70.8149 231.748 71.8349C245.142 77.3677 262.665 74.342 273.15 64.2622C283.024 54.762 287.179 39.5065 281.362 26.7507Z" fill="#1E1E1E"/>
<path d="M67.0188 97.3733L81.488 102.062L76.4042 84.0867C76.4042 84.0867 97.4964 78.2238 95.9322 55.1656C94.368 32.1098 63.1329 5.53432 35.3928 16.4776C7.67723 27.4184 -5.59417 53.9939 6.50391 82.1324C18.602 110.268 47.5156 107.534 53.3569 103.625C59.2226 99.7165 67.0188 97.3733 67.0188 97.3733Z" fill="#F5C64C"/>
<path d="M93.1697 59.8594C92.3632 68.0069 88.086 75.7264 80.925 79.9262C79.263 80.9046 77.479 81.6016 75.6215 82.0957C74.3995 82.421 73.8377 83.8348 74.1555 84.9698C75.5486 89.8788 76.9661 94.7806 78.3836 99.6847C74.4976 98.7675 70.8311 97.0871 67.605 94.7096C66.5785 93.944 65.381 94.3036 64.7211 95.0569C64.6478 95.0912 64.5743 95.1157 64.501 95.1548C56.0445 99.516 47.124 104.173 37.2989 102.424C28.7447 100.9 20.9484 95.6929 15.5226 88.9958C5.52638 76.7268 2.1047 58.9495 8.1904 44.1489C14.105 29.747 27.9627 18.5738 43.4824 16.4727C59.2955 14.3325 75.9393 21.5652 85.3978 34.409C90.7258 41.6222 94.0496 50.819 93.1697 59.8594ZM93.4388 38.5232C85.5201 22.255 68.0451 11.6297 50.1302 11.0598C32.2153 10.4874 15.1069 20.9586 6.21057 36.3022C-2.88132 51.9784 -1.70839 72.0183 7.82343 87.2274C12.8826 95.2942 20.4105 102.101 29.3557 105.567C34.2438 107.465 39.4742 108.446 44.7289 107.94C50.2281 107.412 55.3602 105.43 60.2728 103.031C62.6191 101.889 64.9167 100.636 67.1897 99.3521C71.2712 102.268 76.037 104.105 81.0473 104.694C82.7337 104.892 84.1025 103.522 83.6381 101.81C82.1228 96.4609 80.6317 91.1092 79.1164 85.7623C86.8396 82.9323 92.9988 76.3135 95.8339 68.6282C99.4756 58.7587 97.9603 47.835 93.4388 38.5232Z" fill="#1E1E1E"/>
<path d="M112.111 225.068C110.767 226.758 108.739 227.81 106.319 227.475C103.362 227.071 100.893 224.684 99.9888 221.851C96.5915 211.392 111.769 207.489 113.774 218.261C114.214 220.648 113.553 223.233 112.111 225.068Z" fill="#F5C64C"/>
<path d="M227.202 28.228C226.298 29.2896 226.274 30.7547 226.176 32.0829C226.103 33.1322 226.054 34.1424 225.882 35.3605C225.785 35.9182 225.687 36.4734 225.516 37.0164C225.492 37.0873 225.467 37.1582 225.467 37.2292C225.321 37.4713 225.223 37.7159 225.101 37.941C225.027 38.0608 224.661 38.5598 224.978 38.188C224.832 38.3396 224.734 38.4987 224.587 38.6454C224.44 38.8166 224.269 38.9658 224.123 39.137C224.025 39.2153 223.928 39.2911 223.83 39.3596C223.659 39.4624 223.512 39.5455 223.365 39.6434C223.267 39.6703 223.194 39.7094 223.096 39.7363C223.023 39.7681 222.876 39.7926 222.827 39.8023C222.632 39.8072 222.412 39.8073 222.559 39.8366C222.486 39.8244 222.412 39.8121 222.339 39.8023C222.094 39.7143 221.997 39.6605 221.899 39.6067C221.777 39.4966 221.703 39.4134 221.654 39.3743C221.557 39.2226 221.459 39.0832 221.386 38.9365C221.361 38.8704 221.312 38.8093 221.312 38.7457C221.239 38.5476 221.166 38.3494 221.117 38.1513C221.092 38.0584 221.068 37.8285 221.068 37.8236C221.019 37.4273 220.994 37.0262 220.994 36.6299C220.994 36.5688 221.019 36.2997 221.019 36.2312C221.043 35.9867 221.068 35.857 221.092 35.7298C221.532 33.1591 222.901 30.2484 221.85 27.6752C221.532 26.9023 220.848 26.3397 219.968 26.3911C219.161 26.4375 218.404 27.0686 218.257 27.8758C218.013 29.1281 217.891 30.3951 217.573 31.6352C217.255 32.8558 216.839 34.0617 216.668 35.3115C216.326 37.5374 216.571 40.0788 217.964 41.9279C219.577 44.0314 222.339 44.8973 224.832 43.8676C227.251 42.8549 228.987 40.7391 229.793 38.2614C230.233 36.9063 230.355 35.4876 230.453 34.0763C230.526 33.1224 230.55 32.8044 230.624 31.8823C230.722 30.9088 231.015 29.9475 230.697 28.9887C230.233 27.5358 228.204 27.0295 227.202 28.228Z" fill="#1E1E1E"/>
<path d="M237.785 41.7445C237.932 40.4506 237.858 39.1199 237.858 37.8187V34.1791C237.834 31.7551 237.809 29.3336 237.565 26.9194C237.491 25.9973 236.783 25.2293 235.83 25.1755C234.974 25.1265 233.972 25.7111 233.874 26.6528C233.581 29.1404 233.483 31.6401 233.434 34.1448L233.386 37.6401C233.361 38.8827 233.239 40.1864 233.361 41.4241C233.459 42.5272 234.29 43.4444 235.414 43.5105C236.465 43.5692 237.638 42.8696 237.785 41.7445Z" fill="#1E1E1E"/>
<path d="M251.961 19.5057C249.444 24.6569 246.902 29.8081 244.433 34.9838C243.211 37.535 241.989 40.0861 240.767 42.6373C239.52 45.2471 238.103 47.8399 237.027 50.5353C236.025 53.133 239.545 55.0457 240.963 52.5337C242.331 50.0828 243.382 47.4118 244.58 44.8656C245.826 42.2264 247.048 39.5896 248.27 36.9504C250.714 31.7478 253.085 26.5208 255.48 21.2937C256.507 18.9969 253.085 17.2187 251.961 19.5057Z" fill="#1E1E1E"/>
<path d="M260.442 37.7135C260.32 37.6817 260.099 37.6769 259.953 37.6793C259.171 37.6793 258.34 38.396 258.218 39.1836C257.998 40.9594 257.582 42.7082 257.02 44.4033C256.996 44.4742 256.922 44.6821 256.898 44.7286C256.8 44.9488 256.727 45.1664 256.629 45.3841C256.483 45.8024 256.287 46.2182 256.092 46.6242C255.945 46.9544 255.774 47.27 255.603 47.5831C255.383 47.8546 255.236 47.9989 255.114 48.153C255.065 48.1848 255.016 48.219 254.967 48.2533C254.845 48.3242 254.747 48.3609 254.698 48.3829C254.625 48.3927 254.551 48.4049 254.454 48.4147C254.307 48.378 254.234 48.3658 254.161 48.3535C253.941 48.2704 253.794 48.219 253.672 48.1505C253.623 48.1236 253.574 48.0918 253.525 48.0649C253.33 47.8839 253.11 47.7005 252.914 47.5048C252.89 47.4657 252.841 47.4118 252.816 47.3507C252.694 47.1844 252.597 47.0058 252.499 46.837C252.523 46.8958 252.548 46.9275 252.572 46.9471C252.548 46.908 252.499 46.8272 252.474 46.7441C252.401 46.5851 252.352 46.4237 252.328 46.2598C252.303 46.1668 252.303 46.0714 252.279 45.9761C252.254 45.7143 252.254 45.4526 252.254 45.1884V44.9683C252.279 44.9414 252.279 44.8558 252.279 44.8044C252.328 44.5427 252.377 44.281 252.426 44.0217C252.523 43.5276 252.621 43.0385 252.767 42.5517C253.085 41.4584 253.623 40.2182 252.963 39.1493C252.645 38.6332 252.059 38.5207 251.521 38.6332C250.323 38.8778 249.688 40.4188 249.273 41.4388C248.808 42.6495 248.49 43.8163 248.417 45.1175C248.295 47.226 249.028 49.2537 250.568 50.709C252.01 52.0567 254.185 52.8028 256.092 52.0665C258.218 51.252 259.269 49.2365 260.051 47.2357C260.979 44.8851 261.615 42.449 261.908 39.9418C262.03 38.9096 261.517 37.9606 260.442 37.7135Z" fill="#1E1E1E"/>
<path d="M269.485 48.2239C269.338 48.0723 269.216 47.9206 269.069 47.7641C269.02 47.7054 268.971 47.6442 268.923 47.588C268.776 47.4192 268.678 47.2651 268.58 47.1208C269.435 45.2374 270.291 43.3466 271.171 41.4535C271.977 39.6337 269.411 38.3373 268.409 40.0495C267.701 41.2455 266.992 42.4368 266.283 43.6328C266.234 43.5252 266.16 43.42 266.112 43.3124C266.038 43.1681 265.99 43.0433 265.965 43.0091C265.843 42.7107 265.696 42.4196 265.549 42.1286C265.476 41.9647 265.428 41.8815 265.403 41.7959C265.281 41.5562 265.183 41.314 265.085 41.0694C264.841 40.3944 264.181 39.9443 263.448 40.0959C262.764 40.2329 262.153 40.8689 262.25 41.6051C262.446 43.2928 262.861 44.8631 263.57 46.4065C263.741 46.7612 263.912 47.0988 264.108 47.4314C263.399 48.6935 262.666 49.9288 261.981 51.1811C261.663 51.7657 261.37 52.36 261.053 52.9495C260.564 53.9059 260.148 54.6446 260.466 55.7648C260.711 56.7432 261.933 57.3401 262.886 57.0001C263.961 56.6063 264.328 55.8162 264.817 54.8647C265.134 54.2728 265.452 53.6858 265.745 53.0914C266.063 52.4334 266.38 51.7681 266.698 51.1028C267.358 51.8806 268.14 52.7319 269.216 52.8101C270.144 52.8762 271.073 52.2475 271.244 51.3058C271.391 50.3641 270.902 49.6401 270.267 48.9968C270.022 48.7351 269.753 48.4905 269.485 48.2239Z" fill="#1E1E1E"/>
<path d="M38.1538 68.2735C38.0805 68.0754 37.9585 67.8895 37.8119 67.7109C36.9809 66.2287 34.6837 65.7003 33.1929 65.0766C31.7753 64.4896 30.3822 63.9025 28.9647 63.3179C27.2783 62.6135 25.5917 61.9115 23.9053 61.2071C24.1253 60.9698 24.3208 60.7252 24.5408 60.4928C25.5918 59.3775 26.4473 58.563 27.7427 57.4549C28.9403 56.4374 30.1862 55.5079 31.4571 54.5785C32.8258 53.5585 34.3414 52.7244 35.4657 51.4183C36.761 49.9629 35.3188 47.4729 33.4369 47.7884C31.555 48.1015 29.9662 49.1631 28.3775 50.1635C26.96 51.0514 25.6405 52.0836 24.3696 53.1476C21.7055 55.371 19.2126 57.8659 17.0619 60.5931C15.9376 62.0216 16.5241 64.2156 18.2105 64.9127C21.1189 66.1259 24.052 67.3416 26.9849 68.5572C28.4513 69.1638 29.9179 69.7704 31.3843 70.377C32.0442 70.6583 32.7281 70.9396 33.388 71.2185C34.5856 71.7101 35.4657 71.8715 36.7611 71.534C38.0564 71.1891 38.6181 69.428 38.1538 68.2735Z" fill="#1E1E1E"/>
<path d="M58.8802 37.4029C58.9291 36.1628 58.318 35.001 57.0471 34.6756C55.9717 34.3992 54.4315 34.8909 54.0893 36.1041C53.1117 39.6214 52.5986 43.2732 51.841 46.8395C51.0833 50.3959 50.2278 53.9328 49.2991 57.4452C48.3948 60.8157 47.3928 64.1594 46.3174 67.4859C45.7553 69.2642 45.1688 71.0326 44.5577 72.7961C43.9467 74.5377 42.8712 76.4676 43.14 78.3338C43.531 79.9946 45.511 81.4671 47.1241 80.0485C48.6394 78.7203 49.0795 76.8002 49.715 74.9486C50.3015 73.2804 50.8635 71.6074 51.4012 69.9246C52.5744 66.329 53.601 62.6967 54.5541 59.0449C55.4829 55.5325 56.3139 51.9956 57.0716 48.4391C57.8048 44.8338 58.7091 41.0914 58.8802 37.4029Z" fill="#1E1E1E"/>
<path d="M77.7968 55.2463C75.6216 53.8105 73.4704 52.3747 71.2952 50.9389C70.2198 50.2369 69.1688 49.5301 68.1178 48.8354C66.9447 48.082 65.6988 47.1819 64.4034 46.7416C63.4258 46.4188 62.3746 46.612 61.7392 47.4388C61.1526 48.1823 61.0548 49.4444 61.6903 50.1905C63.4255 52.1815 65.9426 53.5537 68.0934 55.0261C69.1443 55.7379 70.1953 56.4497 71.2218 57.159C67.4824 59.5316 64.012 62.3494 60.9814 65.6172C60.0038 66.6714 60.3702 68.5206 61.4211 69.3522C62.6676 70.3233 64.1586 69.9221 65.1606 68.8973C68.509 65.5096 72.8842 62.0999 77.1369 59.7909C77.9923 59.3237 78.652 58.7098 78.7987 57.6873C78.8964 56.819 78.5545 55.7477 77.7968 55.2463Z" fill="#1E1E1E"/>
<path d="M187.144 89.5706C186.167 85.6057 185.678 81.5136 185.996 77.4239C186.069 76.4235 185.629 75.4476 184.553 75.2274C183.649 75.0416 182.451 75.6702 182.353 76.6779C182.06 79.9531 182.109 83.2551 182.598 86.5034C179.836 84.7863 177.368 82.7023 174.973 80.3077C173.8 79.1557 171.893 80.7969 172.797 82.1471C175.632 86.4275 179.836 89.6832 184.431 91.8919C186.02 92.6477 187.56 91.1801 187.144 89.5706Z" fill="#1E1E1E"/>
<path d="M182.671 41.5782C173.848 39.5235 164.536 43.3124 158.915 50.2638C153.611 56.8484 150.703 66.4121 153.465 74.6698C154.98 79.2266 158.279 82.7855 162.85 84.3044C166.76 85.6008 172.309 85.2779 174.948 81.6726C176.219 79.9212 174.435 77.3481 172.382 78.6298C169.889 80.1903 167.518 80.8263 164.585 80.0386C161.75 79.2731 159.526 77.1769 158.304 74.5157C155.445 68.205 157.497 60.4293 161.139 54.8843C165.025 48.9405 171.722 45.1395 178.883 45.504C185.702 45.8489 191.69 50.5329 193.4 57.1933C195.258 64.4847 190.101 71.2503 183.233 73.2462C181.449 73.7623 182.036 76.4064 183.795 76.3575C192.13 76.1276 198.191 67.64 197.996 59.7273C197.8 51.0074 191.005 43.5105 182.671 41.5782Z" fill="#1E1E1E"/>
</g>
<defs>
<clipPath id="clip0_1212_715">
<rect width="307" height="268" fill="white"/>
</clipPath>
</defs>
</svg>
