<svg width="332" height="292" viewBox="0 0 332 292" fill="none" xmlns="http://www.w3.org/2000/svg">
<g clip-path="url(#clip0_1215_2765)">
<path d="M276.278 207.034C275.682 208.021 274.942 208.916 274.14 209.722C273.092 208.603 274.222 206.461 275.805 206.886C275.97 206.93 276.114 206.981 276.278 207.034Z" fill="#1E1E1E"/>
<path d="M212.443 224.452C212.36 224.565 212.278 224.667 212.176 224.781C211.168 224.287 210.181 223.689 209.276 222.996C209.523 222.745 209.791 222.5 210.058 222.257C211.579 220.828 213.717 222.788 212.443 224.452Z" fill="#1E1E1E"/>
<path d="M298.441 229.185C298.215 228.727 297.989 228.274 297.722 227.832C298.133 228.163 298.421 228.665 298.441 229.185Z" fill="#1E1E1E"/>
<path d="M156.255 46.4755C158.557 36.8415 160.614 27.1336 162.258 17.3577C162.711 14.6022 163.163 11.8447 163.533 9.07691C163.718 7.76702 163.903 6.44065 163.964 5.11842C164.006 3.64608 163.985 2.2786 163.862 0.80832C163.821 0.0227988 162.546 -0.38434 162.238 0.464927C161.374 2.80093 160.737 5.09785 160.285 7.55518C159.833 9.95492 159.442 12.3649 159.01 14.7688C158.126 19.6464 157.201 24.5159 156.214 29.3688C154.22 39.0768 151.938 48.7313 149.409 58.3118C148.689 61.0097 147.99 63.7056 147.25 66.3973C146.531 69.085 145.934 71.8096 145.174 74.491C144.68 76.2451 147.353 76.7078 147.908 75.0503C149.491 70.331 151.136 65.6611 152.472 60.8596C153.809 56.0868 155.083 51.2955 156.255 46.4755Z" fill="#F5C64C"/>
<path d="M161.127 72.1548C161.826 70.664 162.607 69.093 162.71 67.4335C162.751 66.6295 161.723 66.5143 161.25 66.9194C160.078 67.9373 159.338 69.5227 158.639 70.8902C157.879 72.3769 157.179 73.9006 156.46 75.412C155.041 78.3917 153.684 81.3837 152.389 84.4127C151.855 85.6321 153.581 86.5286 154.219 85.3524C155.864 82.4242 157.426 79.4733 158.947 76.4875C159.688 75.0501 160.428 73.6169 161.127 72.1548Z" fill="#F5C64C"/>
<path d="M165.732 85.4019C165.712 84.2051 165.814 83.0269 166.061 81.8733C162.607 84.4478 159.215 87.119 155.987 89.9444C154.815 90.9684 156.46 92.8068 157.714 91.9904C160.449 90.2138 163.121 88.3487 165.773 86.4507C165.732 86.1052 165.732 85.7577 165.732 85.4019Z" fill="#F5C64C"/>
<path d="M253.931 30.617C255.966 29.4798 258.063 28.3612 260.057 27.1562C262.154 25.8998 264.149 24.6434 266.081 23.1772C267.068 22.4493 266.41 20.7939 265.156 21.1908C264.211 21.4951 263.223 21.7295 262.319 22.1285C261.291 22.587 260.263 23.0908 259.235 23.5597C257.323 24.4336 255.473 25.4145 253.602 26.3851C249.84 28.3263 246.139 30.3826 242.438 32.4451C235.161 36.494 228.006 40.7424 220.893 45.069C215.65 48.2604 210.428 51.528 205.268 54.8572C205.72 54.7276 206.151 54.6145 206.604 54.5014C209.194 53.8598 211.888 53.4876 214.519 53.6356C223.503 48.0424 232.591 42.624 241.801 37.4132C245.831 35.1245 249.88 32.8707 253.931 30.617Z" fill="#F5C64C"/>
<path d="M169.515 99.0477C166.781 100.366 164.047 101.684 161.333 103.029C159.976 103.695 161.086 106.08 162.463 105.447C165.177 104.223 167.871 103.002 170.584 101.789C170.255 100.87 169.885 99.9504 169.515 99.0477Z" fill="#F5C64C"/>
<path d="M286.27 56.1753C288.881 55.2746 291.492 54.3718 294.083 53.4609C296.673 52.552 299.12 51.3984 301.587 50.2283C302.492 49.7945 301.957 48.1638 300.97 48.3386C298.565 48.7539 296.139 49.1446 293.795 49.8541C291.472 50.5491 289.169 51.2503 286.867 52.005C282.2 53.5226 277.574 55.1101 272.948 56.7222C263.696 59.9383 254.486 63.284 245.296 66.753C242.233 67.9149 239.17 69.0849 236.106 70.2817C236.949 71.2955 237.772 72.3093 238.615 73.3333C249.285 69.2145 260.017 65.2704 270.79 61.4827C275.929 59.6772 281.11 57.9355 286.27 56.1753Z" fill="#F5C64C"/>
<path d="M163.943 114.178C162.299 114.133 162.525 116.562 164.087 116.675C167.007 116.882 169.926 117.082 172.845 117.265C172.475 116.327 172.27 115.373 172.187 114.403C169.433 114.335 166.698 114.256 163.943 114.178Z" fill="#F5C64C"/>
<path d="M128.13 20.072C127.411 23.2491 127.041 26.5886 126.794 29.8355C126.527 33.1133 126.26 36.389 126.033 39.6668C125.581 46.2471 125.129 52.8233 124.78 59.4098C124.718 60.7176 126.959 60.8965 127.102 59.5763C127.781 53.0166 128.377 46.4507 128.933 39.8766C129.22 36.5865 129.467 33.2922 129.714 30C129.96 26.7695 130.125 23.4341 129.899 20.2015C129.837 19.1857 128.357 19.0809 128.13 20.072Z" fill="#F5C64C"/>
<path d="M179.507 92.9856C179.857 92.0417 180.227 91.0773 180.474 90.1005C180.618 89.5021 180.721 88.9202 180.638 88.3115C180.577 87.855 180.536 87.4889 180.268 87.0777C180.022 86.7158 179.549 86.6212 179.179 86.8412C178.315 87.3656 177.925 88.4246 177.637 89.3314C177.328 90.228 177.102 91.1451 176.814 92.0417C176.547 92.8478 176.28 93.6621 175.992 94.4599C175.642 95.4079 175.416 96.3148 175.313 97.3121C175.231 98.0647 176.054 98.513 176.609 97.9783C177.349 97.2812 177.945 96.4937 178.377 95.5745C178.788 94.7273 179.179 93.8718 179.507 92.9856Z" fill="#1E1E1E"/>
<path d="M181.028 100.551C180.946 100.364 180.885 100.172 180.761 99.9997C180.72 99.9072 180.658 99.8126 180.597 99.7201C180.473 99.5329 180.371 99.3458 180.247 99.1587C180.083 98.8996 179.857 98.6878 179.651 98.4698C179.569 98.4143 179.486 98.3588 179.404 98.3012C179.281 98.2271 179.137 98.1922 178.993 98.1942C178.746 98.1757 178.5 98.2189 178.315 98.3567C178.15 98.4698 178.006 98.6137 177.924 98.7865C177.78 99.0435 177.78 99.3561 177.862 99.6316C177.883 99.7365 177.903 99.8414 177.924 99.9483C177.986 100.142 178.068 100.316 178.171 100.493C178.253 100.687 178.356 100.878 178.438 101.069C178.541 101.262 178.623 101.454 178.747 101.628C178.829 101.719 178.89 101.809 178.952 101.898C179.096 102.093 179.24 102.235 179.466 102.348C179.651 102.445 179.857 102.484 180.083 102.471C180.268 102.486 180.515 102.422 180.658 102.323C180.782 102.237 180.864 102.134 180.946 102.017C181.069 101.875 181.152 101.713 181.193 101.515C181.234 101.303 181.234 101.055 181.152 100.851C181.111 100.75 181.069 100.652 181.028 100.551Z" fill="#1E1E1E"/>
<path d="M198.915 103.199C199.121 103.557 199.614 103.67 199.984 103.496C200.375 103.298 200.498 102.912 200.416 102.492C200.375 102.299 200.355 102.101 200.355 101.904C200.478 101.982 200.622 102.056 200.786 102.11C201.3 102.293 201.958 102.225 202.369 101.791C202.76 101.359 202.781 100.719 202.472 100.23C202.369 100.074 202.225 99.9258 202.102 99.8003C201.978 99.7016 201.855 99.568 201.711 99.5289C201.506 99.3706 201.321 99.1999 201.136 99.0148C201.094 98.9737 201.053 98.9284 201.012 98.8873C200.93 98.7783 200.868 98.6878 200.807 98.585C200.786 98.5686 200.745 98.4946 200.724 98.4555C200.663 98.2931 200.622 98.18 200.601 98.0669C200.622 97.9579 200.622 97.8488 200.663 97.7399C200.704 97.5712 200.745 97.4047 200.807 97.2361C200.807 97.1846 200.827 97.1559 200.827 97.1353C200.848 97.0798 200.869 97.0263 200.889 96.9708C201.033 96.6438 201.177 96.3354 201.341 96.0228C201.567 95.556 201.752 95.1612 201.773 94.6266C201.814 93.837 200.93 93.2982 200.231 93.4277C200.067 93.4606 199.902 93.5285 199.779 93.6169C199.327 93.837 199.018 94.3613 198.792 94.7993C198.648 94.9803 198.566 95.1345 198.483 95.2784C198.216 95.8234 198.052 96.4279 197.99 97.0346C197.887 97.4664 197.805 97.9044 197.764 98.3526C197.702 99.2204 197.723 100.125 197.928 100.974C198.113 101.785 198.524 102.486 198.915 103.199Z" fill="#1E1E1E"/>
<path d="M274.695 199.942C274.613 202.994 273.441 205.776 271.036 207.709C268.425 209.79 265.238 211.256 262.216 212.669C255.843 215.669 249.161 218.044 242.315 219.788C235.592 221.505 228.52 222.934 221.571 223.004C218.014 223.047 214.416 222.389 211.538 220.176C208.783 218.052 206.995 215.062 204.507 212.712C210.469 201.649 216.431 190.586 222.332 179.479C223.401 177.425 220.234 175.813 219.124 177.843C213.45 188.237 207.858 198.667 202.245 209.105L198.154 216.773C197.291 216.401 196.551 216.031 195.79 215.638C194.454 214.935 193.158 214.168 191.925 213.29C189.375 211.462 187.031 209.276 185.078 206.82C183.105 204.363 181.44 201.632 180.165 198.756C179.528 197.314 178.972 195.829 178.541 194.314C178.253 193.358 178.068 191.988 177.595 190.911C178.89 188.817 180.185 186.736 181.481 184.665C181.83 184.102 182.18 183.539 182.529 182.975C184.708 179.479 186.909 175.994 189.108 172.508C197.065 159.922 204.959 142.182 220.522 137.682C221.077 137.526 221.653 137.378 222.249 137.257C229.527 135.714 237.484 138.402 241.349 144.966C241.431 145.139 241.575 145.26 241.719 145.354C241.945 154.485 239.869 163.901 243.055 172.675C245.173 178.466 249.511 182.757 255.37 184.709C260.674 186.485 266.513 185.957 271.509 183.469C272.393 188.992 274.86 194.271 274.695 199.942ZM185.88 239.381C181.111 247.435 174.162 255.932 164.293 257.371C154.569 258.803 145.79 252.516 141.103 244.41C136.6 236.633 135.429 227.392 134.894 218.572C134.832 217.594 134.77 216.613 134.709 215.634C135.058 215.235 135.12 214.68 134.627 214.246C133.578 213.423 132.715 212.556 131.975 211.628C128.768 207.709 127.246 202.689 124.409 198.433C122.661 195.788 119.968 192.998 116.679 192.494C113.903 192.068 109.606 194.254 110.655 197.653C111.107 199.152 113.081 198.797 113.472 197.487C113.698 196.802 113.903 196.204 114.356 195.807C114.397 196.023 114.397 196.084 114.417 196.136V196.465C114.417 196.508 114.397 196.551 114.397 196.594C114.376 196.681 114.356 196.769 114.356 196.864C114.335 196.88 114.314 196.967 114.294 197.045C114.253 197.184 114.232 197.236 114.191 197.298C114.15 197.4 114.109 197.513 114.047 197.618C114.027 197.653 114.006 197.678 113.986 197.721C113.986 197.834 113.656 198.112 113.574 198.182C113.554 198.217 113.513 198.241 113.492 198.268C113.41 198.338 113.307 198.406 113.204 198.468C113.163 198.503 113.101 198.527 113.06 198.554C113.04 198.597 112.896 198.624 112.814 198.649C112.752 198.675 112.69 198.684 112.628 198.702C112.587 198.702 112.403 198.735 112.361 198.745C112.238 198.753 112.115 198.745 111.992 198.753C112.32 198.745 111.93 198.745 111.868 198.727C111.745 198.71 111.621 198.684 111.498 198.649C111.19 198.57 110.984 198.441 110.778 198.328C110.758 198.311 110.696 198.285 110.655 198.26C110.573 198.182 110.47 198.104 110.367 198.017C110.223 197.877 110.08 197.713 109.936 197.557C109.894 197.522 109.853 197.479 109.812 197.435C109.709 197.298 109.586 197.158 109.462 197.028C109.421 196.967 109.38 196.923 109.36 196.88C109.319 196.812 109.278 196.734 109.236 196.664C108.27 194.279 108.476 191.583 110.367 189.599C111.477 188.429 112.998 187.787 114.643 187.803C115.424 187.803 116.247 188.003 116.946 188.316C117.851 188.731 118.426 189.407 119.269 189.901C119.721 190.162 120.256 190.076 120.667 189.833C120.893 189.701 120.996 189.512 121.161 189.294C121.428 188.879 121.305 188.305 121.078 187.908C120.626 187.067 119.577 186.434 118.776 185.992C117.953 185.558 117.069 185.245 116.165 185.081C115.424 184.943 114.664 184.908 113.924 184.96C114.191 183.693 114.088 182.741 114.911 181.873C115.096 181.657 115.322 181.482 115.569 181.344C115.939 181.137 116.35 181.015 116.781 180.972C117.172 180.911 117.604 180.937 118.056 181.024C119.434 181.293 120.564 182.089 121.531 183.062C122.682 184.205 123.422 185.644 124.512 186.814C125.026 187.361 125.971 187.3 126.485 186.849C127.102 186.321 127.123 185.583 126.794 184.89C126.383 184.04 125.684 183.243 125.108 182.506C124.471 181.7 123.772 180.911 122.99 180.253C121.962 179.393 120.791 178.725 119.557 178.344C120.688 177.867 122.004 177.694 123.217 177.875C124.656 178.083 126.013 178.786 127.184 179.646C128.48 180.617 129.528 181.943 130.947 182.757C131.666 183.173 132.571 182.367 132.304 181.595C131.831 180.277 130.803 179.126 129.713 178.18C129.754 177.522 129.446 176.827 129.158 176.255C128.48 174.953 127.185 173.991 125.787 173.637C124.964 173.428 124.101 173.463 123.278 173.646C122.867 173.74 122.394 173.872 122.065 174.112C121.839 174.279 121.633 174.46 121.428 174.659C121.202 174.659 120.996 174.668 120.77 174.703C120.79 174.487 120.832 174.279 120.893 174.061C121.017 173.853 121.12 173.732 121.202 173.584C122.641 171.174 125.807 170.394 128.439 170.758C131.872 171.225 134.627 173.759 136.703 176.403C139.355 179.784 141.535 183.539 143.879 187.135C146.428 191.106 148.998 195.077 151.568 199.048C154.405 203.444 157.139 207.97 160.346 212.114C159.482 213.493 158.639 214.863 157.776 216.241C156.584 218.157 159.709 219.745 160.901 217.836C165.65 210.224 170.358 202.595 175.066 194.964C175.293 195.984 175.601 196.991 175.93 197.978C176.793 200.575 177.965 203.07 179.404 205.395C182.323 210.082 186.23 214.067 190.794 217.131C192.027 217.949 193.302 218.698 194.618 219.337C195.111 219.578 195.707 219.903 196.324 220.172L193.816 224.85C191.205 229.714 188.697 234.639 185.88 239.381ZM131.625 217.594C124.758 213.952 117.768 210.571 110.634 207.474C106.749 205.794 102.843 204.19 98.9158 202.673C96.8599 201.883 94.8039 201.137 92.7275 200.409C92.1313 200.193 91.5147 199.985 90.8979 199.777C92.3988 198.406 93.8171 196.89 95.2768 195.484C97.2504 193.613 99.2244 191.739 101.219 189.893C105.269 186.13 109.421 182.453 113.656 178.9C113.924 178.665 114.212 178.449 114.479 178.223C114.356 178.422 114.253 178.63 114.17 178.846C113.554 179.22 112.998 179.714 112.567 180.312C111.621 181.63 110.819 184.005 112.259 185.254C111.703 185.41 111.169 185.609 110.655 185.879C107.365 187.542 105.33 191.419 106.173 195.06C106.461 196.335 107.037 197.513 107.88 198.476C108.126 199.039 108.435 199.49 108.866 199.88C109.627 200.557 110.614 201.061 111.642 201.182C112.752 201.303 113.862 201.094 114.787 200.454C115.63 199.88 116.308 199.048 116.679 198.104C117.007 197.306 117.131 196.438 117.049 195.581C117.871 195.893 118.612 196.457 119.208 197.028C121.14 198.918 122.476 201.233 123.669 203.635C124.841 206.045 125.889 208.517 127.349 210.779C128.069 211.914 128.911 213.041 129.878 213.979C130.33 214.412 130.823 214.793 131.317 215.14C131.44 215.219 131.543 215.297 131.666 215.356C131.625 216.103 131.625 216.847 131.625 217.594ZM82.4686 181.118C81.1939 182.046 79.8984 182.965 78.6238 183.894C77.8014 184.491 76.9586 185.064 76.1362 185.679C75.4167 184.04 74.6152 182.41 73.8956 180.763C73.0527 178.786 72.3329 176.749 71.5722 174.737C70.0508 170.715 68.5707 166.666 67.1316 162.599C64.2945 154.476 61.6216 146.282 59.175 138.03C58.4966 135.766 57.8593 133.494 57.2015 131.223C56.8519 130.027 56.5024 128.822 56.1529 127.625C55.9473 126.897 55.7421 126.169 55.4542 125.474C57.6746 124.39 59.6684 122.727 61.7038 121.338C64.0269 119.753 66.3504 118.192 68.6941 116.632C72.7648 113.917 76.8972 111.273 81.0501 108.69C81.2968 110.38 81.6255 112.097 83.3936 112.887C83.9076 113.111 84.5039 113.206 85.059 113.138C85.3263 113.232 85.5933 113.319 85.84 113.38C87.1763 113.683 88.5128 113.362 89.5407 112.618C90.4659 112.677 91.4323 112.383 92.2135 111.922C92.4808 111.758 92.7277 111.559 92.9744 111.343C93.2623 112.297 93.7351 113.189 94.5164 113.831C96.3667 115.33 99.3063 115.071 100.355 112.766C100.869 111.612 100.643 110.286 100.314 109.105C99.923 107.666 99.4298 106.235 98.9569 104.814C98.3401 102.924 97.703 101.034 97.0656 99.1527C102.061 96.317 107.098 93.5697 112.197 90.917C112.423 90.7854 112.69 90.6641 112.917 90.5345C113.759 93.2653 114.294 96.0661 114.849 98.8586C115.096 100.131 115.26 101.425 116.083 102.482C116.926 103.557 118.365 104.086 119.619 103.393C121.12 102.552 121.264 100.861 121.264 99.3089C121.284 98.5542 121.264 97.8078 121.222 97.0717C123.196 96.9853 124.82 95.0955 124.923 93.0577C125.766 92.9281 126.609 92.4511 127.205 91.7992C128.582 90.3351 128.665 88.2274 128.336 86.3561C128.171 85.3238 127.904 84.2915 127.575 83.2777C127.678 83.2263 127.781 83.1647 127.904 83.1132C128.356 84.3697 128.912 85.5932 129.425 86.8146C130.166 88.6263 130.926 90.4215 131.687 92.2249C133.208 95.8235 134.668 99.4467 136.087 103.08C138.965 110.364 141.452 117.75 144.125 125.102C144.886 127.199 145.647 129.299 146.387 131.404C146.736 132.393 147.086 133.382 147.415 134.37C147.476 134.544 147.538 134.709 147.599 134.865C128.562 148.338 109.545 161.836 90.5687 175.352C87.8755 177.269 85.1618 179.177 82.4686 181.118ZM174.984 188.558C170.646 195.537 166.308 202.525 161.97 209.504C159.688 205.439 157.036 201.571 154.507 197.662C151.711 193.327 148.915 189 146.119 184.665C141.843 178.032 137.258 168.842 128.479 167.68C128.274 167.653 128.069 167.637 127.863 167.62C131.934 164.559 136.046 161.585 140.24 158.706C141.679 157.709 143.159 156.722 144.618 155.749C143.817 157.509 143.776 159.453 145.174 161.127C146.654 162.895 148.915 162.817 150.848 161.879C152.678 160.987 154.158 159.833 156.316 160.043C158.619 160.267 160.552 161.515 162.135 163.129C162.957 163.979 163.677 164.923 164.335 165.912C164.622 166.302 164.848 166.701 165.116 167.09C164.704 167.039 164.252 167.047 163.8 167.055C162.546 167.082 161.271 167.152 160.017 167.187C157.488 167.246 154.96 167.3 152.431 167.324C151.855 167.333 151.321 167.723 151.074 168.209C149.738 170.74 151.074 173.732 153.356 175.18C155.844 176.759 159.071 176.714 161.888 177.277C164.91 177.886 167.87 178.778 170.708 179.983C172.106 180.582 173.483 181.231 174.819 181.951C175.847 182.496 176.875 183.226 177.944 183.798C176.958 185.385 175.971 186.971 174.984 188.558ZM166.514 146.656C169.289 148.328 171.016 151.336 172.661 154.026C173.627 155.611 176.012 154.059 175.087 152.465C172.99 148.883 170.584 145.12 166.616 143.387C165.568 142.928 164.396 142.607 163.204 142.529C163.265 142.443 163.307 142.365 163.368 142.295C164.067 141.47 164.993 140.942 165.979 140.682C166.966 140.421 168.035 140.421 169.022 140.656C171.613 141.262 173.73 143.162 175.519 145.034C175.56 145.077 175.601 145.112 175.622 145.155C177.904 147.549 179.774 150.263 182.2 152.508C183.516 153.713 184.955 154.849 186.477 155.862C186.436 155.967 186.394 156.07 186.353 156.183C185.901 157.553 185.572 158.914 185.469 160.372C185.428 160.9 185.408 161.472 185.428 162.046C185.531 162.574 185.572 163.068 185.654 163.553C185.901 165.287 186.559 166.925 187.689 168.165C185.017 172.43 182.365 176.697 179.713 180.962C178.746 180.339 177.842 179.775 177.348 179.506C176.115 178.838 174.861 178.25 173.586 177.695C171.016 176.592 168.343 175.657 165.65 174.929C162.998 174.217 160.326 173.861 157.632 173.341C156.358 173.09 153.746 172.179 153.746 170.567C155.905 170.551 158.044 170.497 160.202 170.394C161.395 170.333 162.587 170.273 163.78 170.177C164.89 170.098 166.061 170.022 166.76 169.093C167.603 169.977 169.002 168.937 168.446 167.766C168.056 166.944 167.83 166.076 167.336 165.27C166.843 164.454 166.308 163.658 165.733 162.895C164.602 161.412 163.348 160.059 161.806 159C158.907 157.024 155.083 156.148 151.814 157.684C150.909 158.1 148.586 160.043 147.661 159.035C146.592 157.865 148.155 155.932 149.018 155.161C151.239 153.193 154.589 152.854 157.324 153.678C159.03 154.191 160.593 155.196 161.908 156.374C163.43 157.736 164.437 159.366 165.671 160.935C166.164 161.558 166.904 161.855 167.665 161.499C168.323 161.194 168.817 160.32 168.488 159.601C167.192 156.66 164.643 153.929 161.806 152.169C161.189 151.789 160.551 151.449 159.914 151.172C159.277 150.886 158.619 150.643 157.941 150.462C157.159 150.263 156.378 150.123 155.597 150.063C155.72 149.88 155.823 149.708 155.967 149.551C156.316 149.144 156.769 148.832 157.324 148.659C158.845 148.163 160.531 148.926 161.847 149.699C163.245 150.514 164.478 151.563 165.588 152.741C166.082 153.28 166.555 153.851 166.987 154.45C167.007 154.485 167.048 154.528 167.069 154.563C167.603 155.299 168.138 156.191 169.083 156.418C169.577 156.539 170.029 156.253 170.255 155.846C170.317 155.76 170.358 155.663 170.379 155.568C170.708 154.503 169.783 153.271 169.186 152.465C168.59 151.624 167.871 150.835 167.151 150.107C165.609 148.597 163.78 147.211 161.785 146.379C161.354 146.196 160.922 146.05 160.469 145.928C161.004 145.632 161.621 145.459 162.155 145.424C163.697 145.33 165.218 145.867 166.514 146.656ZM183.269 131.735C181.933 130.425 180.72 128.994 179.61 127.477C179.733 127.312 179.836 127.148 179.897 126.948C179.918 126.862 179.939 126.775 179.98 126.689C180.103 126.35 180.227 126.021 180.35 125.684C180.309 125.805 180.268 125.934 180.227 126.056C180.371 125.64 180.556 125.231 180.761 124.843C180.967 124.417 181.214 124.018 181.337 123.576C181.481 123.255 181.645 122.969 181.645 122.587C181.645 122.233 181.44 121.764 181.152 121.573C180.864 121.373 180.453 121.338 180.124 121.408C179.713 121.478 179.445 121.746 179.178 122.007C179.055 122.093 178.952 122.18 178.849 122.284C178.726 122.414 178.644 122.57 178.541 122.718C178.438 122.864 178.356 123.012 178.274 123.16C178.089 123.473 177.965 123.81 177.842 124.139C177.78 124.296 177.719 124.46 177.657 124.635C177.369 124.191 177.101 123.749 176.814 123.306C175.868 121.781 174.902 120.247 174.08 118.626C173.339 117.117 172.599 115.217 173.072 113.518C173.545 111.89 175.128 110.839 175.827 109.305C176.608 107.58 176.567 105.725 176.218 103.895C175.868 102.161 175.292 100.487 174.984 98.7537C174.696 97.193 174.532 95.5973 174.47 94.0036C174.285 87.9168 175.786 81.8116 178.705 76.4713C178.746 76.8784 178.808 77.2609 178.849 77.5817C179.157 79.6545 179.671 81.7087 180.411 83.6684C181.851 87.4994 184.133 91.0198 186.97 93.9583C187.669 94.6616 188.388 95.3382 189.149 95.9715C189.951 96.646 190.876 97.5138 191.863 97.9209C192.212 98.0607 192.562 98.0854 192.891 97.999C193.035 99.2904 193.405 100.557 194.001 101.711C194.392 102.43 195.625 102.013 195.523 101.215C195.091 97.9744 194.7 94.3676 197.188 91.8177C199.449 89.5105 202.615 89.6236 204.815 91.9041C206.994 94.1578 207.94 97.8181 207.365 100.861C207.077 102.309 206.46 103.66 205.473 104.779C205 105.326 204.466 105.819 203.849 106.226C203.191 106.652 202.431 106.903 201.958 107.553C201.403 108.326 201.67 109.305 202.615 109.574C202.759 109.609 202.903 109.636 203.067 109.644C202.985 109.755 202.924 109.895 202.903 110.051C202.616 112.097 202.903 114.211 202.862 116.276C202.821 118.451 202.554 120.629 202.101 122.761C201.258 127.018 199.778 131.094 197.948 135.021C197.619 135.723 197.27 136.426 196.92 137.119C191.966 137.691 186.867 135.219 183.269 131.735ZM313.593 124.859C309.913 119.597 304.835 115.297 299.119 112.34C302.347 106.574 302.676 99.3007 299.818 93.3167C296.919 87.232 290.998 82.7575 284.337 81.6902C276.484 80.4338 268.795 83.3908 260.941 82.7739C257.549 82.5066 254.198 81.5093 251.649 79.1774C249.017 76.7489 247.372 73.4628 245.213 70.6292C236.887 59.6339 223.73 52.7329 209.976 52.0234C196.407 51.3366 182.694 57.224 173.524 67.1766C168.59 72.5437 164.704 79.3419 163.533 86.6069C162.443 93.3867 163.944 100.783 168.693 105.924C169.762 107.078 170.975 108.03 172.291 108.863C172.085 109.159 171.859 109.426 171.633 109.712C170.975 110.537 170.42 111.378 170.091 112.383C168.817 116.311 171.263 120.255 173.216 123.489C175.251 126.87 177.431 130.199 180.103 133.105C183.824 137.119 189.499 140.413 195.111 140.586C194.042 142.554 192.932 144.497 191.822 146.43C190.938 147.956 189.992 149.482 189.108 151.042C189.006 151.182 188.944 151.32 188.861 151.458C186.415 150.306 184.03 149.169 181.645 148.026C180.597 146.872 179.63 145.659 178.623 144.446C176.834 142.278 175.025 140.24 172.517 138.895C170.276 137.69 167.706 137.189 165.219 137.855C164.211 138.124 163.204 138.61 162.34 139.259C160.264 138.601 158.126 138.219 155.946 138.349C155.967 138.316 155.988 138.281 156.029 138.246C156.563 138.046 156.974 137.569 156.892 136.868C155.453 125.918 152.205 115.176 148.668 104.736C146.921 99.6215 145.029 94.567 142.974 89.5722C141.925 87.0059 140.836 84.4663 139.705 81.9432C138.739 79.7758 137.813 77.4871 136.457 75.5274C135.141 73.6623 133.434 72.1632 131.214 71.5566C128.644 70.8615 125.992 71.6944 123.669 72.7966C123.278 72.9858 122.908 73.1852 122.517 73.3847C120.708 70.7834 118.385 68.3837 115.075 68.1225C111.149 67.81 107.489 70.4194 104.837 73.0557C104.775 73.1256 104.693 73.212 104.611 73.2901C104.837 71.2091 104.693 69.0931 104.22 67.0553C103.542 64.0468 102.041 61.2729 99.9437 59.0109C98.4018 57.3288 96.3868 55.62 94.1048 55.0751C93.9814 54.7111 93.8582 54.3718 93.776 54.0593C93.4471 53.0023 93.0769 51.9536 92.6657 50.9213C91.8434 48.7025 90.8361 46.5515 89.7465 44.4541C89.1503 43.3272 88.266 42.2949 86.8885 42.3196C85.5316 42.3381 84.5243 43.284 83.8664 44.3841C82.674 46.3171 81.8311 48.5379 81.276 50.73C80.9676 51.935 80.7418 53.1667 80.6184 54.4149C80.5568 54.9948 80.4744 55.5953 80.4744 56.1834C79.9399 56.3932 79.4259 56.6605 78.953 56.8682C77.9868 57.2856 77.0408 57.6928 76.0745 58.1082C75.1493 58.5071 74.245 58.906 73.3199 59.305C72.6826 59.5826 71.9836 59.8334 71.3257 60.1542C69.6605 57.1376 67.8924 54.1723 66.186 51.1803C65.3431 49.7327 63.4721 50.4627 63.0404 51.7705C60.3883 59.7985 57.7157 67.9313 56.9344 76.3931C56.5644 80.329 56.523 84.3264 57.1603 88.2376C57.4687 90.1191 57.8801 91.9822 58.4558 93.8021C58.7642 94.783 59.1137 95.7289 59.5455 96.6563C59.8538 97.2876 60.2239 97.8181 60.594 98.3548C60.1828 99.1691 60.0181 100.175 59.8331 101.061C59.6069 102.056 59.463 103.062 59.3602 104.069C59.2369 105.143 59.1133 106.226 59.1339 107.302C59.1339 108.135 59.1135 109.089 59.2985 109.93C54.2616 112.809 49.1423 115.651 44.3521 118.937C44.0437 119.077 43.7767 119.327 43.5711 119.735C40.8778 125.042 42.3166 131.075 44.208 136.399C46.3256 142.397 48.7723 148.311 51.0543 154.25C55.7007 166.224 60.3059 178.215 64.9317 190.197C65.9185 192.728 66.741 195.848 68.7147 197.826C70.1744 199.266 71.9217 199.646 73.6898 199.317C73.3403 200.053 73.0733 200.834 72.9294 201.667C72.9088 201.883 72.9084 202.091 72.9906 202.274C72.6411 203.428 72.7235 204.7 73.1141 205.897C73.8337 208.143 75.6021 209.747 77.5552 210.935C79.6522 212.21 81.9753 213.129 84.1957 214.16C86.6833 215.313 89.1502 216.475 91.6584 217.61C101.691 222.198 111.704 226.775 121.757 231.361C124.245 232.498 126.814 233.668 129.61 233.684C130.864 233.693 132.098 233.442 133.208 232.932C133.907 236.329 134.935 239.658 136.395 242.823C140.671 252.109 148.956 260.156 159.565 261.03C170.214 261.906 179.343 255.064 185.305 246.829C188.553 242.338 191.164 237.448 193.795 232.576C196.735 227.139 199.655 221.712 202.595 216.276C202.697 216.06 202.821 215.842 202.945 215.626C204.24 218.009 206.069 220.195 208.064 221.99C208.454 222.346 208.865 222.683 209.276 222.996C204.178 227.98 199.388 235.463 202.718 242.658C204.363 246.222 207.734 248.155 211.332 249.37C215.197 250.686 219.351 251.425 223.401 251.856C232.159 252.776 240.896 252.004 249.531 250.341C257.775 248.753 265.937 246.413 273.853 243.569C278.211 242.009 282.467 240.213 286.578 238.081C288.552 237.049 290.505 235.93 292.397 234.709C293.528 233.981 294.658 233.234 295.727 232.41C296.508 231.795 297.29 231.145 297.968 230.417C298.338 230.035 298.462 229.601 298.441 229.185C298.215 228.727 297.989 228.274 297.721 227.832C297.68 227.738 297.618 227.633 297.577 227.538C295.974 224.643 294.082 221.928 291.965 219.397C289.806 216.812 287.401 214.456 284.769 212.366C283.412 211.307 282.014 210.32 280.575 209.391C279.26 208.533 277.82 207.563 276.278 207.034C276.875 206.053 277.368 204.978 277.697 203.791C279.835 196.136 275.353 189.035 274.654 181.544C276.443 180.242 278.046 178.673 279.424 176.94C280.102 176.056 280.76 175.136 281.356 174.174C286.763 173.411 292.129 172.492 297.248 170.551C302.758 168.459 308.042 165.478 312.03 161.073C321.056 151.104 321.138 135.696 313.593 124.859Z" fill="#1E1E1E"/>
<path d="M82.7976 78.9656C82.7771 78.8546 82.7565 78.7435 82.7359 78.6345C82.6948 78.4638 82.6128 78.3199 82.4894 78.1965C82.4278 78.0978 82.3453 78.0196 82.2219 77.9662C82.0986 77.851 81.9341 77.777 81.7491 77.7482C81.523 77.7112 81.2971 77.7236 81.071 77.7853C80.7626 77.8757 80.454 78.1533 80.3101 78.4412C80.1867 78.6674 80.1047 78.8977 80.0225 79.1424L79.899 79.5578C79.8579 79.6956 79.8578 79.8395 79.8373 79.9835C79.7961 80.3413 79.7139 80.7258 79.8578 81.0733C79.9195 81.3139 80.0633 81.5196 80.2483 81.6923C80.4539 81.8691 80.6802 81.9864 80.9269 82.0398C81.4204 82.1406 81.9547 81.974 82.2837 81.5997C82.4892 81.3674 82.613 81.0898 82.6747 80.7854C82.6952 80.7155 82.7158 80.6456 82.7158 80.5757C82.7775 80.3166 82.7977 80.0719 82.8182 79.8066C82.8182 79.6668 82.8388 79.5249 82.8388 79.3851C82.8388 79.2391 82.8182 79.1096 82.7976 78.9656Z" fill="#F5C64C"/>
<path d="M97.9293 71.8589C97.9293 71.8177 97.9087 71.7787 97.9087 71.7376C97.8882 71.6615 97.8675 71.5854 97.847 71.5093C97.8264 71.3695 97.7852 71.2543 97.7029 71.1248C97.6618 71.0775 97.6211 71.0323 97.5799 70.987C97.3538 70.5901 96.9426 70.4051 96.5726 70.4277C96.3875 70.438 96.2231 70.4955 96.0586 70.5942C95.9352 70.6827 95.8322 70.7978 95.7499 70.9315C95.6471 71.0466 95.5857 71.1392 95.524 71.2317C95.4418 71.3592 95.4211 71.5052 95.38 71.6471C95.3594 71.7252 95.3594 71.8034 95.3388 71.8815C95.3183 71.9185 95.3183 71.9555 95.3183 71.9925C95.2977 72.0583 95.2977 72.1262 95.2977 72.1941C95.2771 72.3113 95.2771 72.4264 95.3183 72.5416C95.3183 72.6177 95.3389 72.6856 95.3594 72.7596C95.38 72.8377 95.4006 72.9158 95.4212 72.994C95.4828 73.0927 95.5241 73.1893 95.5652 73.288C95.6474 73.4381 95.7706 73.5533 95.9145 73.6376C96.0173 73.7158 96.0994 73.7672 96.2227 73.7918C96.3872 73.8617 96.5311 73.8885 96.7161 73.872C96.8189 73.8515 96.922 73.8309 97.0248 73.8103C97.1276 73.7651 97.2302 73.7178 97.333 73.6705C97.4769 73.5842 97.6001 73.467 97.6823 73.3189C97.7851 73.1853 97.847 73.031 97.8881 72.8562C97.9087 72.776 97.9293 72.6937 97.9499 72.6136C98.0321 72.3154 97.991 72.0995 97.9293 71.8589Z" fill="#F5C64C"/>
<path d="M91.8024 149.932C90.7745 145.93 90.0341 141.875 89.4996 137.779C89.2529 135.766 89.0472 133.744 88.9239 131.719C88.8416 130.74 88.8009 129.761 88.7597 128.782C88.7186 127.623 88.7596 126.675 88.1223 125.669C87.5466 124.805 86.3952 124.97 85.9018 125.78C85.2644 126.8 85.3672 127.82 85.4084 128.978C85.4495 129.957 85.4907 130.935 85.5524 131.914C85.6758 134.08 85.8814 136.241 86.1487 138.392C86.4776 140.894 86.9091 143.382 87.4231 145.852C85.4494 144.012 83.5787 142.054 81.9134 139.938C80.9677 138.756 78.7474 139.149 78.9119 140.913C79.1586 143.617 79.3644 146.321 79.6111 149.025C78.7065 147.734 77.843 146.426 77.0206 145.1C76.0749 143.584 75.1496 142.05 74.2655 140.499C73.3404 138.914 72.5799 137.199 71.3669 135.834C70.6062 135.001 68.8791 135.768 69.1052 136.911C69.4341 138.731 70.3594 140.351 71.2228 141.976C72.0863 143.619 73.0117 145.231 73.9779 146.81C75.931 149.969 78.0689 153 80.3921 155.906C81.3584 157.129 83.7021 156.74 83.5171 154.888C83.2087 151.818 82.921 148.745 82.6332 145.675C84.648 147.82 86.7653 149.841 89.0885 151.682C90.4043 152.737 92.2136 151.579 91.8024 149.932Z" fill="#F5C64C"/>
<path d="M105.371 135.747C104.754 137.662 103.213 142.001 100.54 140.01C99.1213 138.963 98.0933 137.158 97.3943 135.572C97.2709 135.258 97.1477 134.935 97.0449 134.612C97.0655 134.544 97.0861 134.485 97.1067 134.409C97.2917 133.393 97.0448 132.441 96.9214 131.431C96.7981 130.423 96.7362 129.397 96.7362 128.383C96.7362 126.958 97.086 125.416 98.0729 124.33C100.088 122.081 103.521 123.308 105.001 125.523C107.036 128.579 106.419 132.457 105.371 135.747ZM108.681 124.639C106.666 120.539 101.609 118.135 97.3325 120.327C95.1327 121.46 93.7759 123.802 93.2825 126.175C93.0974 127.172 93.0356 128.205 93.1178 129.222C93.1178 129.264 93.0972 129.301 93.0972 129.344C92.7477 134.028 94.1664 139.313 97.8465 142.488C99.6762 144.051 102.082 144.698 104.282 143.578C106.132 142.644 107.324 140.73 108.085 138.869C109.894 134.369 110.922 129.179 108.681 124.639Z" fill="#F5C64C"/>
<path d="M112.423 114.184C112.855 113.82 113.575 114.164 113.965 114.407C115.014 115.073 115.754 116.257 116.021 117.46C116.535 119.739 115.322 122.11 113.266 123.136C112.958 120.736 112.67 118.334 112.362 115.932C112.3 115.459 112.012 114.532 112.423 114.184ZM123.525 131.347C122.929 130.465 122.045 130.057 121.182 129.502C120.359 128.98 119.578 128.41 118.817 127.808C117.851 127.041 116.926 126.21 116.062 125.338C117.748 124.125 119.002 122.358 119.372 120.29C119.927 117.343 118.755 114.049 116.371 112.204C115.158 111.271 113.657 110.664 112.115 110.995C110.532 111.332 109.339 112.527 109.134 114.154C108.908 115.943 109.442 117.964 109.668 119.745C109.894 121.596 110.121 123.446 110.347 125.297C110.881 129.613 111.313 133.964 112.197 138.221C112.526 139.761 114.89 139.21 114.849 137.725C114.726 134.396 114.274 131.088 113.842 127.783C114.808 128.727 115.836 129.623 116.905 130.448C118.447 131.639 120.421 133.401 122.435 133.456C123.484 133.487 124.06 132.153 123.525 131.347Z" fill="#F5C64C"/>
<path d="M127.802 122.916C127.514 121.147 127.205 119.385 126.794 117.639C126.034 114.24 125.067 110.923 123.854 107.649C123.319 106.161 121.182 106.889 121.552 108.404C122.333 111.655 123.052 114.941 123.607 118.238C123.895 119.86 124.162 121.482 124.388 123.113C124.512 123.958 124.615 124.805 124.718 125.653C124.821 126.553 124.882 127.458 125.684 128.042C126.26 128.484 127.123 128.573 127.658 127.952C128.788 126.636 128.048 124.466 127.802 122.916Z" fill="#F5C64C"/>
<path d="M129.836 106.444C129.055 105.969 128.027 106.43 127.616 107.168C127.246 107.851 126.979 108.62 126.67 109.338C126.382 110.037 126.074 110.734 125.786 111.443C125.231 112.891 124.676 114.339 124.121 115.792C123.854 116.5 123.998 117.396 124.758 117.746C125.478 118.067 126.362 117.845 126.711 117.11C127.41 115.696 128.089 114.277 128.747 112.854C129.096 112.142 129.384 111.417 129.713 110.695C129.898 110.273 130.083 109.854 130.268 109.428C130.33 109.37 130.392 109.309 130.474 109.243C130.556 109.083 130.577 109.07 130.515 109.202C130.659 109.052 130.762 108.877 130.803 108.68C130.905 108.439 130.926 108.244 130.906 107.972C130.864 107.244 130.433 106.8 129.836 106.444Z" fill="#F5C64C"/>
<path d="M133.105 122.535C132.735 121.939 132.139 121.54 131.604 121.106C131.152 120.736 130.7 120.364 130.227 120.012C129.281 119.297 128.336 118.581 127.39 117.863C126.856 117.456 126.033 117.374 125.56 117.948C125.087 118.495 125.108 119.288 125.643 119.786C126.629 120.722 127.616 121.688 128.644 122.595C129.158 123.041 129.672 123.481 130.165 123.923C130.556 124.25 130.906 124.528 131.379 124.694C131.81 124.845 132.304 124.801 132.674 124.538C132.776 124.472 132.879 124.394 132.962 124.312C133.085 124.189 133.167 124.045 133.208 123.88C133.29 123.633 133.27 123.67 133.167 123.991C133.414 123.537 133.352 122.967 133.105 122.535Z" fill="#F5C64C"/>
<path d="M51.6098 185.099C45.771 188.116 39.7679 190.763 33.703 193.292C30.7014 194.54 27.6794 195.724 24.6366 196.847C23.1153 197.407 21.5935 197.943 20.0721 198.523C18.6124 199.085 16.9475 199.572 15.8168 200.707C15.3028 201.215 15.6112 202.196 16.3307 202.305C17.9138 202.543 19.538 201.941 21.0388 201.468C22.6424 200.962 24.2251 200.374 25.8081 199.778C28.9126 198.612 31.9758 197.378 35.0185 196.08C41.1657 193.465 47.1278 190.436 53.0077 187.289C54.5085 186.494 53.09 184.341 51.6098 185.099Z" fill="#F5C64C"/>
<path d="M59.1336 203.17C57.2832 204.17 55.6798 205.84 54.1173 207.211C52.4726 208.642 50.8281 210.063 49.2245 211.507C47.6414 212.907 46.0583 214.308 44.5164 215.739C43.7146 216.496 42.8924 217.254 42.1111 218.042C41.3916 218.768 40.6512 219.463 40.3428 220.466C40.2195 220.902 40.6716 221.464 41.1444 221.379C42.1107 221.202 42.8101 220.66 43.5707 220.061C44.4342 219.383 45.2771 218.665 46.12 217.949C47.7853 216.543 49.3887 215.095 51.0128 213.658C52.5959 212.264 54.1379 210.839 55.7004 209.426C57.304 207.98 59.2161 206.526 60.4702 204.758C61.1486 203.808 60.2232 202.576 59.1336 203.17Z" fill="#F5C64C"/>
<path d="M62.9377 210.051C61.7247 211.299 60.7583 212.792 59.7715 214.215C58.7024 215.737 57.6745 217.275 56.6671 218.836C54.7551 221.786 52.9048 224.766 51.0957 227.779C47.4362 233.853 44.0028 240.069 40.7956 246.388C39.8704 248.194 38.9863 250.016 38.1845 251.879C37.8145 252.765 37.6296 253.703 37.3006 254.608C36.9306 255.586 36.6631 256.512 36.6015 257.552C36.5192 258.504 37.7941 258.714 38.3492 258.179C38.9248 257.637 39.377 256.995 39.7882 256.329C40.2816 255.514 40.8779 254.766 41.3713 253.956C42.2759 252.469 43.0159 250.84 43.8177 249.288C45.4007 246.16 47.0252 243.045 48.711 239.962C52.021 233.857 55.5363 227.842 59.2164 221.945C60.2443 220.285 61.3134 218.642 62.3414 216.979C63.3899 215.274 64.6029 213.61 65.4252 211.782C66.1448 210.213 64.1506 208.79 62.9377 210.051Z" fill="#F5C64C"/>
<path d="M80.927 220.059C79.5906 221.239 78.6448 223.103 77.7402 224.624C76.774 226.226 75.931 227.9 75.1086 229.574C74.2863 231.248 73.5259 232.963 72.868 234.706C72.2307 236.36 71.4491 238.2 71.5314 239.997C71.5725 240.748 72.5593 241.093 73.0527 240.536C74.2451 239.206 74.8825 237.332 75.602 235.716C76.3421 234.065 77.0825 232.416 77.8637 230.783C78.645 229.148 79.4878 227.552 80.3307 225.946C81.1531 224.349 82.2631 222.718 82.7359 220.976C83.0443 219.876 81.626 219.448 80.927 220.059Z" fill="#F5C64C"/>
<path d="M102.369 277.318C102.266 273.061 102.102 268.809 101.917 264.556C101.547 255.979 101.177 247.404 100.745 238.831C100.519 233.935 100.334 229.025 99.8405 224.147C99.5938 221.85 96.325 222.074 96.2839 224.353C96.0988 232.919 96.5718 241.548 96.8802 250.108C97.2091 258.685 97.4147 267.273 97.9287 275.841C98.052 278.29 98.2165 280.737 98.4015 283.182C98.5865 285.636 98.8129 288.007 99.6764 290.318C100.067 291.358 101.465 291.231 101.752 290.201C102.904 286.107 102.472 281.541 102.369 277.318Z" fill="#F5C64C"/>
<path d="M331.026 120.763C330.183 120.105 329.484 119.636 328.456 119.257C327.326 118.842 326.195 118.468 325.044 118.114C323.008 117.483 320.952 116.874 318.897 116.288C314.703 115.095 310.488 114.034 306.232 113.064C297.824 111.139 289.312 109.609 280.739 108.462C275.887 107.81 270.994 107.279 266.101 106.864C265.258 106.792 264.456 107.189 264.251 108.092C264.086 108.859 264.641 109.864 265.484 109.95C282.61 111.707 299.489 115.015 316.141 119.426C318.465 120.045 320.809 120.693 323.111 121.369C324.324 121.717 325.496 122.093 326.709 122.406C327.223 122.543 327.758 122.714 328.292 122.821C328.991 122.959 329.587 122.868 330.286 122.846C331.273 122.811 331.869 121.402 331.026 120.763Z" fill="#F5C64C"/>
<path d="M266.061 46.572C262.607 47.082 259.255 48.3548 255.945 49.4776C252.553 50.6291 249.202 51.8424 245.81 53.0289C239.067 55.404 232.344 57.8675 225.662 60.3906C224.182 60.9417 224.902 63.2017 226.402 62.7102C233.207 60.4873 239.992 58.2048 246.735 55.8317C250.107 54.6452 253.479 53.4854 256.85 52.264C260.14 51.0733 263.573 49.9691 266.595 48.1965C267.335 47.7668 266.945 46.4404 266.061 46.572Z" fill="#F5C64C"/>
<path d="M206.11 275.029C205.905 273.966 205.617 273.232 205.103 272.274C204.63 271.381 204.137 270.495 203.644 269.621C202.595 267.811 201.506 266.027 200.416 264.238C198.299 260.725 196.181 257.213 194.043 253.701C189.849 246.738 185.593 239.794 181.358 232.854C178.911 228.864 176.506 224.836 173.874 220.97C172.846 219.457 170.688 220.908 171.51 222.486C175.375 229.726 179.774 236.697 183.989 243.744C188.142 250.736 192.357 257.694 196.571 264.665C197.743 266.637 198.915 268.628 200.149 270.577C201.382 272.553 202.513 274.69 204.343 276.166C205.247 276.89 206.316 276.078 206.11 275.029Z" fill="#F5C64C"/>
<path d="M131.152 55.9471C130.721 55.5954 130.063 55.472 129.59 55.8154C129.343 55.984 129.097 56.1547 128.891 56.3604C128.727 56.5352 128.583 56.749 128.439 56.9382C128.131 57.3063 127.842 57.6744 127.555 58.0424C127.452 58.1658 127.349 58.2872 127.267 58.4085C126.63 56.8313 125.992 55.2643 125.273 53.7365C125.006 53.171 124.183 53.0476 123.669 53.2882C123.094 53.5576 122.826 54.1991 123.011 54.8058C123.71 57.1274 124.615 59.3832 125.478 61.6431C125.848 62.5726 127.164 63.0393 127.884 62.1613C128.46 61.4272 129.055 60.6931 129.652 59.959C130.268 59.1776 131.029 58.4126 131.441 57.4873C131.646 56.9814 131.605 56.3254 131.152 55.9471Z" fill="#F5C64C"/>
<path d="M57.7769 184.252C57.5097 183.693 56.8929 183.277 56.2556 183.337C55.5566 183.401 54.8575 183.44 54.1379 183.444C53.7679 183.444 53.3772 183.438 53.0071 183.421C52.8632 183.415 52.7193 183.407 52.5549 183.397C52.5549 183.397 52.2261 183.37 52.1849 183.366C51.4859 183.298 50.7869 183.181 50.0879 183.07C49.3066 182.946 48.5256 182.772 47.7238 182.891C47.2509 182.965 46.8397 183.207 46.6753 183.697C46.5313 184.135 46.6134 184.663 46.9834 184.978C48.217 186.035 50.0879 186.245 51.6504 186.417C51.8149 186.436 51.9793 186.446 52.1438 186.461C51.8765 186.683 51.63 186.905 51.3628 187.125C50.9105 187.509 50.4168 187.873 50.0261 188.307C49.4916 188.893 49.4916 189.794 49.985 190.39C50.4784 190.976 51.383 191.153 52.0615 190.711C52.5754 190.353 53.0482 189.878 53.5416 189.459C53.9939 189.07 54.4466 188.681 54.8989 188.291C55.7829 187.532 56.667 186.771 57.5305 186.004C58.0033 185.589 58.0236 184.768 57.7769 184.252Z" fill="#F5C64C"/>
<path d="M66.7613 215.94C66.6996 215.087 66.679 214.234 66.6584 213.378C66.5968 211.667 66.6174 209.958 66.6996 208.25C66.7407 207.086 65.1985 206.407 64.3144 207.034C61.8062 208.786 59.1544 210.446 56.9341 212.551C56.5023 212.971 56.5434 213.746 56.9135 214.18C57.3452 214.68 57.9415 214.711 58.5171 214.431C60.2647 213.58 61.9092 212.492 63.5128 211.373C63.4923 212.101 63.4923 212.831 63.4923 213.561C63.5128 214.415 63.5335 215.27 63.5746 216.125C63.6157 217.096 63.6774 218.075 64.1503 218.941C64.6231 219.782 66.1855 219.794 66.535 218.821C66.7405 218.225 66.802 217.752 66.802 217.125C66.802 216.728 66.7819 216.335 66.7613 215.94Z" fill="#F5C64C"/>
<path d="M158.188 82.2681C157.735 82.2023 157.324 82.2188 156.892 82.373C156.501 82.5087 156.152 82.665 155.782 82.85C155.247 83.1235 154.713 83.3971 154.178 83.6706C154.034 83.7446 153.87 83.8206 153.726 83.8967C153.767 83.7857 153.788 83.6767 153.808 83.5677C153.932 83.0289 154.035 82.482 154.137 81.9412C154.281 81.24 154.446 80.4318 154.035 79.7861C153.726 79.2864 153.048 79.1733 152.554 79.4653C151.917 79.8416 151.691 80.6724 151.506 81.3345C151.362 81.8877 151.177 82.4408 151.033 83.0001C150.766 84.0962 150.498 85.1922 150.21 86.2903C150.087 86.8393 150.375 87.4398 150.807 87.7462C151.321 88.0978 151.876 88.0485 152.39 87.7853C153.5 87.2424 154.59 86.6995 155.7 86.1566L157.303 85.3547C157.591 85.219 157.838 85.0668 158.085 84.8961C158.475 84.637 158.763 84.3244 158.989 83.9152C159.318 83.286 158.928 82.373 158.188 82.2681Z" fill="#F5C64C"/>
<path d="M47.5592 96.5679C45.935 95.3094 43.941 94.6041 42.0701 93.8001C40.117 92.9672 38.1637 92.1221 36.2106 91.2605C32.3249 89.5372 28.4601 87.7914 24.6361 85.912C20.8327 84.0304 17.0498 82.0913 13.3286 80.0288C9.60746 77.9663 6.00944 75.7146 2.32937 73.5678C1.15751 72.8748 -0.219803 74.7831 0.931501 75.5871C6.42076 79.4057 12.3004 82.7287 18.1597 85.8852C24.0807 89.0643 30.1458 91.9802 36.3546 94.5074C38.1433 95.2354 39.9522 95.9119 41.7614 96.572C43.4884 97.1992 45.236 97.8387 47.0658 97.9271C47.7237 97.96 48.0732 96.9648 47.5592 96.5679Z" fill="#F5C64C"/>
<path d="M50.6438 98.4102C49.4102 96.8639 48.156 95.3586 46.9019 93.8369C46.2646 93.0555 45.6273 92.2556 44.9695 91.4906C44.6405 91.1184 44.3116 90.7421 43.9415 90.4193C43.5098 90.0573 43.1193 89.8846 42.5848 89.7818C42.0914 89.6872 41.7004 90.0677 41.7004 90.5406C41.7004 91.1082 41.783 91.4988 42.0708 91.9965C42.3175 92.4283 42.6052 92.8396 42.9136 93.2324C43.4687 93.9685 44.0856 94.68 44.6613 95.4038C45.1958 96.0619 45.7299 96.7261 46.2439 97.3861C45.4626 97.2957 44.661 97.2031 43.8592 97.1373C42.8724 97.053 41.8651 96.9481 40.8782 96.8885C40.3643 96.8597 39.8297 96.8186 39.3569 96.9152C38.9663 96.9934 38.5139 97.0736 38.2466 97.3944C38.1438 97.5136 38.0821 97.7028 38.1437 97.855C38.5344 98.6837 39.6859 98.9078 40.4877 99.0909C41.4335 99.3047 42.3995 99.4445 43.3452 99.6193C45.2778 99.973 47.2516 100.224 49.2047 100.514C49.7393 100.596 50.2737 100.411 50.6026 99.938C50.8904 99.5165 50.9727 98.8441 50.6438 98.4102Z" fill="#F5C64C"/>
</g>
<defs>
<clipPath id="clip0_1215_2765">
<rect width="331" height="292" fill="white" transform="translate(0.5)"/>
</clipPath>
</defs>
</svg>
