<svg width="28" height="28" viewBox="0 0 28 28" fill="none" xmlns="http://www.w3.org/2000/svg">
<path d="M24.5 22.1663L14.3932 24.4997H11.0454L3.5 22.1663V5.24967C3.5 4.60509 4.02208 4.08301 4.66667 4.08301H23.3333C23.9779 4.08301 24.5 4.60509 24.5 5.24967V22.1663Z" fill="#0262B8"/>
<path d="M15.2133 15.7498H11.6037C10.7922 15.7498 10.2877 14.869 10.6978 14.169L12.565 10.984L15.2133 15.7498ZM15.9367 2.9165H12.2383L3.5 17.8265V23.3332H11.97L8.07917 16.3273L15.9367 2.9165ZM23.3333 2.9165H17.29L13.2475 9.8115L16.5492 15.7498H24.5V4.08317C24.5 3.4415 23.975 2.9165 23.3333 2.9165ZM13.3058 23.3332H24.5V16.9165H9.74167L13.3058 23.3332Z" fill="url(#paint0_linear_1441_6769)"/>
<path d="M24.4998 22.1665V23.3332C24.4998 23.9748 23.9748 24.4998 23.3332 24.4998H13.3057V23.3332H23.3332C23.9777 23.3332 24.4998 22.8111 24.4998 22.1665Z" fill="#268FBF"/>
<path d="M3.5 22.1665C3.5 22.8111 4.02208 23.3332 4.66667 23.3332H11.97V24.4998H4.66667C4.025 24.4998 3.5 23.9748 3.5 23.3332V22.1665Z" fill="#268FBF"/>
<defs>
<linearGradient id="paint0_linear_1441_6769" x1="14" y1="23.3332" x2="14" y2="2.9165" gradientUnits="userSpaceOnUse">
<stop stop-color="#33BFF0"/>
<stop offset="1" stop-color="#54DAFF"/>
</linearGradient>
</defs>
</svg>
