<svg width="28" height="28" viewBox="0 0 28 28" fill="none" xmlns="http://www.w3.org/2000/svg">
<g clip-path="url(#clip0_1441_6727)">
<path d="M23.6747 0H4.1779C1.87051 0 0 1.8804 0 4.2V23.8C0 26.1196 1.87051 28 4.1779 28H23.6747C25.9821 28 27.8526 26.1196 27.8526 23.8V4.2C27.8526 1.8804 25.9821 0 23.6747 0Z" fill="#113228"/>
<path d="M12.349 5.52344H15.3953V19.5781C13.8178 19.8516 12.6754 20.0156 11.4242 20.0156C7.67059 20.0156 5.7666 18.3203 5.7666 15.0938C5.7666 11.9766 7.77939 10.0078 10.989 10.0078C11.4786 10.0078 11.8594 10.0078 12.349 10.1172V5.52344ZM12.349 12.5781C11.9682 12.4688 11.6962 12.4141 11.3154 12.4141C9.73778 12.4141 8.86738 13.3984 8.86738 15.0391C8.86738 16.6797 9.68338 17.5547 11.261 17.5547C11.5874 17.5547 11.8594 17.5547 12.349 17.4453V12.5781ZM20.2369 10.1719V17.2266C20.2369 19.6875 20.0737 20.8359 19.5297 21.8203C19.0401 22.8047 18.3873 23.4062 17.0273 24.1172L14.1986 22.75C15.5585 22.1484 16.2113 21.5469 16.5921 20.7266C17.0273 19.8516 17.1905 18.8672 17.1905 16.1875V10.1719H20.2369ZM17.1905 5.52344H20.2369V8.64062H17.1905V5.52344Z" fill="white"/>
</g>
<defs>
<clipPath id="clip0_1441_6727">
<rect width="27.8526" height="28" fill="white"/>
</clipPath>
</defs>
</svg>
