<svg width="28" height="28" viewBox="0 0 28 28" fill="none" xmlns="http://www.w3.org/2000/svg">
<path d="M13.2682 10.6283C13.4971 10.2908 13.7478 10.2479 13.9511 10.2479C14.1545 10.2479 14.4933 10.2908 14.7223 10.6283C16.5272 13.1075 19.5065 18.046 21.7043 21.6889C23.1375 24.0646 24.2382 25.8893 24.4641 26.1215C25.3119 26.9932 26.4746 26.4499 27.1502 25.4612C27.8154 24.4877 28 23.8042 28 23.075C28 22.5783 18.3635 4.65625 17.3931 3.16446C16.4598 1.72961 16.1558 1.36719 14.5584 1.36719H13.3631C11.7704 1.36719 11.5403 1.72961 10.6069 3.16446C9.63653 4.65625 0 22.5783 0 23.075C0 23.8042 0.184656 24.4877 0.849822 25.4612C1.52545 26.4499 2.68816 26.9932 3.53593 26.1215C3.7618 25.8893 4.86259 24.0646 6.29579 21.6889C8.49348 18.046 11.4632 13.1075 13.2682 10.6283Z" fill="#000020"/>
</svg>
