<svg width="28" height="28" viewBox="0 0 28 28" fill="none" xmlns="http://www.w3.org/2000/svg">
<path d="M14.9624 14.0002C14.9624 11.7445 16.7457 9.91748 18.9437 9.91748C21.1434 9.91748 22.9249 11.7427 22.9249 14.0002C22.9249 16.256 21.1434 18.083 18.9437 18.083C16.7474 18.083 14.9624 16.2577 14.9624 14.0002Z" fill="#1ABCFE"/>
<path d="M7 22.167C7 19.9113 8.78325 18.0825 10.9813 18.0825H14.9625V22.167C14.9625 24.421 13.1793 26.2498 10.9813 26.2498C8.78325 26.2498 7 24.421 7 22.167Z" fill="#0ACF83"/>
<path d="M14.9624 1.75V9.91725H18.9437C21.1434 9.91725 22.9249 8.0885 22.9249 5.83275C22.9249 3.57875 21.1434 1.75 18.9437 1.75H14.9624Z" fill="#FF7262"/>
<path d="M7 5.83275C7 8.0885 8.78325 9.91725 10.9813 9.91725H14.9625V1.75H10.9813C8.78325 1.75 7 3.57875 7 5.83275Z" fill="#F24E1E"/>
<path d="M7 14.0002C7 16.256 8.78325 18.083 10.9813 18.083H14.9625V9.91748H10.9813C8.78325 9.91748 7 11.7427 7 14.0002Z" fill="#A259FF"/>
</svg>
