<svg width="28" height="28" viewBox="0 0 28 28" fill="none" xmlns="http://www.w3.org/2000/svg">
<g clip-path="url(#clip0_1441_6819)">
<path d="M1.1665 1.5166H26.8332V26.4833H1.1665V1.5166Z" fill="url(#paint0_radial_1441_6819)"/>
<path d="M1.16665 1.51675H26.8334V26.4835H1.16665V1.51675ZM0 27.6502H28V0.350098H0V27.6502ZM18.34 10.0801C18.34 9.9868 18.375 9.94009 18.48 9.94009H20.3117C20.405 9.94009 20.4517 9.97509 20.4517 10.0801V19.2852C20.4517 19.3784 20.4283 19.4252 20.3117 19.4252H18.5034C18.3867 19.4252 18.3517 19.3668 18.3517 19.2735V10.0801H18.34ZM18.2117 7.43177C18.2117 6.6851 18.7367 6.24178 19.4017 6.24178C20.1134 6.24178 20.5917 6.7201 20.5917 7.43177C20.5917 8.20176 20.0901 8.62175 19.3784 8.62175C18.7017 8.6218 18.2117 8.20176 18.2117 7.43177ZM12.9617 13.9185C12.6351 12.6234 11.8651 9.80011 11.5733 8.43511H11.55C11.305 9.80011 10.6867 12.1101 10.1967 13.9185H12.9617ZM9.71836 15.8085L8.79667 19.3085C8.77334 19.4018 8.73835 19.4251 8.6217 19.4251H6.90669C6.79004 19.4251 6.76666 19.3901 6.79004 19.2501L10.1034 7.6534C10.1617 7.44343 10.1967 7.25674 10.22 6.6851C10.22 6.60345 10.255 6.56845 10.3133 6.56845H12.7633C12.845 6.56845 12.88 6.59178 12.9034 6.6851L16.6133 19.2735C16.6367 19.3667 16.6133 19.4251 16.52 19.4251H14.5833C14.49 19.4251 14.4316 19.4018 14.4084 19.3202L13.4517 15.8085H9.71836Z" fill="#FF7F18"/>
</g>
<defs>
<radialGradient id="paint0_radial_1441_6819" cx="0" cy="0" r="1" gradientUnits="userSpaceOnUse" gradientTransform="translate(9.61988 7.11167) scale(19.5067 18.886)">
<stop stop-color="#423325" stop-opacity="0.98"/>
<stop offset="1" stop-color="#1C0A00"/>
</radialGradient>
<clipPath id="clip0_1441_6819">
<rect width="28" height="28" fill="white"/>
</clipPath>
</defs>
</svg>
