<svg width="28" height="28" viewBox="0 0 28 28" fill="none" xmlns="http://www.w3.org/2000/svg">
<g clip-path="url(#clip0_1441_6808)">
<path d="M1.1665 1.5166H26.8332V26.4833H1.1665V1.5166Z" fill="url(#paint0_radial_1441_6808)"/>
<path d="M1.16665 1.51675H26.8334V26.4835H1.16665V1.51675ZM0 27.6502H28V0.350098H0V27.6502ZM17.71 11.6901C17.535 11.6084 17.3017 11.5734 17.0217 11.5734C15.5167 11.5734 14.4667 12.7285 14.4667 14.6535C14.4667 16.8468 15.54 17.7334 16.8817 17.7334C17.1734 17.7334 17.4767 17.6984 17.71 17.5934V11.6901ZM17.0917 9.78845C17.3367 9.78845 17.4767 9.78845 17.71 9.81178V6.70843C17.71 6.62678 17.7683 6.59178 17.8266 6.59178H19.7166C19.81 6.59178 19.8333 6.62678 19.8333 6.6851V17.5935C19.8333 17.9201 19.8333 18.3285 19.8916 18.7718C19.8916 18.8535 19.8683 18.8651 19.7866 18.9118C18.7833 19.3902 17.7217 19.6002 16.73 19.6002C14.1517 19.6002 12.3083 18.0019 12.3083 14.7468C12.2967 11.9584 14.14 9.78845 17.0917 9.78845ZM10.2434 19.2735C10.2434 19.3901 10.2201 19.4252 10.0917 19.4252H8.29503C8.17838 19.4252 8.14333 19.3668 8.14333 19.2735V6.74343C8.14333 6.62678 8.20166 6.59174 8.29503 6.59174H10.1034C10.1967 6.59174 10.2434 6.62673 10.2434 6.73176V19.2735Z" fill="#FF408C"/>
</g>
<defs>
<radialGradient id="paint0_radial_1441_6808" cx="0" cy="0" r="1" gradientUnits="userSpaceOnUse" gradientTransform="translate(9.61988 7.11167) scale(19.5067 18.886)">
<stop stop-color="#4B2B36" stop-opacity="0.98"/>
<stop offset="1" stop-color="#250012"/>
</radialGradient>
<clipPath id="clip0_1441_6808">
<rect width="28" height="28" fill="white"/>
</clipPath>
</defs>
</svg>
