<svg width="29" height="28" viewBox="0 0 29 28" fill="none" xmlns="http://www.w3.org/2000/svg">
<g clip-path="url(#clip0_1441_6659)">
<path d="M0.217285 0H28.2173V28H0.217285V0Z" fill="#F7DF1E"/>
<path d="M7.57963 23.3986L9.72239 22.1019C10.1358 22.8348 10.5118 23.4549 11.4138 23.4549C12.2784 23.4549 12.8235 23.1167 12.8235 21.8012V12.8545H15.4548V21.8384C15.4548 24.5637 13.8573 25.8042 11.5266 25.8042C9.42168 25.8042 8.19981 24.714 7.57959 23.3984" fill="black"/>
<path d="M16.8838 23.1167L19.0263 21.8762C19.5903 22.7973 20.3233 23.4739 21.6201 23.4739C22.7104 23.4739 23.4056 22.9288 23.4056 22.1769C23.4056 21.2748 22.6914 20.9552 21.4885 20.4291L20.8309 20.147C18.9324 19.3389 17.6731 18.324 17.6731 16.1813C17.6731 14.2078 19.1767 12.7041 21.5262 12.7041C23.199 12.7041 24.4019 13.2868 25.2664 14.8093L23.2177 16.1249C22.7665 15.3167 22.278 14.9973 21.5262 14.9973C20.7556 14.9973 20.2669 15.4859 20.2669 16.1249C20.2669 16.9143 20.7556 17.2339 21.8832 17.7226L22.541 18.0045C24.7777 18.9631 26.037 19.9404 26.037 22.1393C26.037 24.5077 24.1763 25.8045 21.6765 25.8045C19.2332 25.8045 17.6543 24.6392 16.8838 23.1167Z" fill="black"/>
</g>
<defs>
<clipPath id="clip0_1441_6659">
<rect width="28" height="28" fill="white" transform="translate(0.217285)"/>
</clipPath>
</defs>
</svg>
