<svg width="29" height="28" viewBox="0 0 29 28" fill="none" xmlns="http://www.w3.org/2000/svg">
<path d="M26.0883 5.8623C25.7094 5.87455 25.8258 5.98393 25.0111 6.18518C24.0901 6.28014 23.1786 6.45225 22.2864 6.69968C19.6308 7.81355 19.0979 11.6207 16.6864 12.9839C14.8813 14.0033 13.0613 14.0847 11.4241 14.5974C10.2369 15.0041 9.14067 15.639 8.19713 16.4664C7.44026 17.1183 7.42101 17.6914 6.63001 18.5104C5.78476 19.3854 3.26913 18.5253 2.12988 19.8641C2.49738 20.2351 2.65488 20.3392 3.38201 20.2429C3.23238 20.5273 2.34951 20.7679 2.52188 21.1836C2.70388 21.6211 4.83888 21.9212 6.77963 20.7461C7.68351 20.2001 8.40363 19.4134 9.81151 19.2262C11.8325 19.1175 13.8591 19.2723 15.8403 19.6864C15.4725 20.5173 14.9862 21.2903 14.3965 21.9816C14.2408 22.1496 14.7089 22.1679 15.2435 22.0691C16.0751 21.9064 16.8774 21.6194 17.6235 21.2177C18.5151 20.6988 18.6499 19.3679 19.7436 19.0801C20.1413 19.5494 20.701 19.852 21.3115 19.9278C21.922 20.0035 22.5386 19.8467 23.0389 19.4887C22.1368 19.2332 21.8874 17.3126 22.1919 16.4656C22.4806 15.6641 22.7659 14.3822 23.0564 13.3234C23.3688 12.1859 23.4834 10.7518 23.8614 10.1734C24.3479 9.52856 24.9359 8.96706 25.6026 8.51093C25.9338 8.27489 26.2008 7.95993 26.3794 7.59459C26.558 7.22925 26.6426 6.82511 26.6255 6.4188C26.6203 6.05655 26.433 5.85443 26.0883 5.8658V5.8623Z" fill="#002B64"/>
<path d="M2.91283 21.1069C4.04673 21.3031 5.21363 21.1346 6.24571 20.6257C7.20629 20.0329 8.19954 19.4948 9.22071 19.0139C10.8587 18.4889 12.6542 19.0139 14.4051 19.1198C14.8275 19.149 15.2516 19.1426 15.673 19.1005C16.3248 18.6998 16.3117 17.2 16.9461 17.0627C16.9059 18.7525 16.2749 20.3748 15.1628 21.6477C15.9865 21.5117 16.7642 21.1759 17.428 20.6696C18.0917 20.1633 18.6211 19.502 18.97 18.7435C19.2083 18.2835 19.413 17.8069 19.5825 17.3173C19.8546 17.5264 19.7006 18.1617 19.8371 18.5055C21.1496 17.7758 21.896 16.1115 22.393 14.428C22.967 12.4794 23.2023 10.5072 23.5733 9.93054C23.9612 9.41866 24.4458 8.98789 24.9996 8.66267C25.3084 8.50115 25.5765 8.27146 25.7834 7.99101C25.9903 7.71055 26.1307 7.38667 26.194 7.04392C25.5815 6.98704 25.4362 6.84442 25.3452 6.53467C25.0655 6.68581 24.7513 6.76179 24.4335 6.75517C24.1561 6.76392 23.8507 6.75517 23.478 6.78929C20.3953 7.10604 20.0033 10.5037 18.0276 12.4304C17.8818 12.5717 17.7269 12.7032 17.5638 12.8242C16.8466 13.3209 16.0658 13.7188 15.2425 14.0072C13.979 14.4902 12.7776 14.5243 11.592 14.9408C10.7208 15.2477 9.89196 15.6637 9.12533 16.1789C8.95033 16.3014 8.77533 16.4265 8.62308 16.5534C8.24804 16.8748 7.92357 17.2509 7.66058 17.669C7.38889 18.1058 7.07248 18.5131 6.71646 18.8844C6.06108 19.5275 3.61371 19.0717 2.75183 19.6719C2.65902 19.7335 2.58223 19.8162 2.52783 19.9134C2.99771 20.1269 3.31533 19.9957 3.85258 20.056C3.92346 20.5697 2.73696 20.8742 2.91196 21.1104L2.91283 21.1069Z" fill="#C49A6C"/>
<path d="M22.4526 8.06393C22.5667 8.16062 22.7077 8.21986 22.8565 8.23361C23.0054 8.24736 23.1549 8.21494 23.2847 8.14078C23.4145 8.06661 23.5183 7.95428 23.582 7.81905C23.6457 7.68382 23.6663 7.53225 23.6409 7.38493C22.9628 7.32805 22.5699 7.55818 22.4526 8.06393Z" fill="#002B64"/>
<path d="M25.4951 7.18281C25.2765 7.53667 25.1594 7.94378 25.1565 8.35969C25.1565 8.46644 25.076 8.53469 25.0742 8.37457C25.0727 7.94728 25.1893 7.52788 25.4111 7.16269C25.4881 7.02269 25.538 7.08044 25.4951 7.18281Z" fill="#002B64"/>
<path d="M25.3776 7.08757C25.0993 7.46162 24.9188 7.89923 24.8526 8.36069C24.8421 8.46657 24.7563 8.53569 24.7694 8.36857C24.8324 7.8955 25.0129 7.44576 25.2944 7.06044C25.3872 6.93094 25.4301 6.99307 25.3776 7.08757Z" fill="#002B64"/>
<path d="M25.2718 6.96922C24.9131 7.3488 24.6492 7.80783 24.5018 8.30884C24.4825 8.41297 24.3915 8.47159 24.4143 8.30884C24.5624 7.7971 24.8275 7.3268 25.1886 6.93509C25.2945 6.81084 25.3313 6.87647 25.2718 6.96922Z" fill="#002B64"/>
<path d="M25.1766 6.83365C24.7608 7.24483 24.4279 7.73197 24.1957 8.26865C24.1616 8.36928 24.0636 8.41478 24.1126 8.25815C24.3432 7.7085 24.6798 7.20961 25.1031 6.7899C25.2212 6.67965 25.2492 6.74965 25.1766 6.83365Z" fill="#002B64"/>
</svg>
