<svg width="29" height="28" viewBox="0 0 29 28" fill="none" xmlns="http://www.w3.org/2000/svg">
<path d="M14.9178 26.2499L14.2607 26.0321C14.2607 26.0321 14.3482 22.7071 13.1451 22.4734C12.3576 21.5564 13.2614 -16.6749 16.1402 22.3431C15.594 22.6201 15.1761 23.0976 14.9738 23.6757C14.8654 24.5295 14.8466 25.3922 14.9178 26.2499Z" fill="url(#paint0_linear_1439_6604)"/>
<path d="M15.2732 23.038C17.0229 21.7209 18.3628 19.9343 19.1372 17.8859C19.9117 15.8374 20.0889 13.6113 19.6482 11.4661C18.362 5.79171 15.3161 3.92621 14.988 3.21396C14.7049 2.77045 14.4632 2.30181 14.2661 1.81396L14.5085 17.6243C14.5085 17.6243 14.0062 22.4561 15.2732 23.038Z" fill="url(#paint1_linear_1439_6604)"/>
<path d="M13.9267 23.2479C13.9267 23.2479 8.57086 19.6 8.88061 13.1469C8.90951 11.2014 9.35557 9.28486 10.1887 7.52659C11.0218 5.76832 12.2225 4.20932 13.7097 2.95488C13.8835 2.80722 14.0216 2.62209 14.1136 2.41341C14.2056 2.20473 14.2491 1.97791 14.2409 1.75C14.5742 2.4675 14.52 12.4626 14.555 13.6316C14.6906 18.179 14.3021 22.3895 13.9267 23.2479Z" fill="url(#paint2_linear_1439_6604)"/>
<defs>
<linearGradient id="paint0_linear_1439_6604" x1="10.5005" y1="14.2207" x2="18.0532" y2="16.7837" gradientUnits="userSpaceOnUse">
<stop offset="0.231" stop-color="#999875"/>
<stop offset="0.563" stop-color="#9B9977"/>
<stop offset="0.683" stop-color="#A09F7E"/>
<stop offset="0.768" stop-color="#A9A889"/>
<stop offset="0.837" stop-color="#B7B69A"/>
<stop offset="0.896" stop-color="#C9C7B0"/>
<stop offset="0.948" stop-color="#DEDDCB"/>
<stop offset="0.994" stop-color="#F8F6EB"/>
<stop offset="1" stop-color="#FBF9EF"/>
</linearGradient>
<linearGradient id="paint1_linear_1439_6604" x1="13.2703" y1="1.70099" x2="16.6093" y2="22.5513" gradientUnits="userSpaceOnUse">
<stop stop-color="#48A547"/>
<stop offset="1" stop-color="#3F9143"/>
</linearGradient>
<linearGradient id="paint2_linear_1439_6604" x1="8.4199" y1="13.7856" x2="17.3804" y2="10.7848" gradientUnits="userSpaceOnUse">
<stop stop-color="#41A247"/>
<stop offset="0.352" stop-color="#4BA74B"/>
<stop offset="0.956" stop-color="#67B554"/>
<stop offset="1" stop-color="#69B655"/>
</linearGradient>
</defs>
</svg>
