<svg width="29" height="28" viewBox="0 0 29 28" fill="none" xmlns="http://www.w3.org/2000/svg">
<path d="M15.1426 2.01138C14.5167 1.66209 13.7007 1.66366 13.0743 2.01138C9.93688 3.72949 6.79943 5.44811 3.66146 7.16543C3.05085 7.48418 2.63902 8.13486 2.64559 8.8102V19.1912C2.64118 19.8797 3.07425 20.5367 3.7006 20.8511C4.60193 21.3269 5.47762 21.851 6.39524 22.2952C7.4552 22.812 8.78133 22.9263 9.85426 22.3873C10.7252 21.9406 11.112 20.9471 11.1109 20.034C11.1179 16.608 11.112 13.182 11.1136 9.7559C11.1343 9.60365 11.0191 9.4409 10.8517 9.44458C10.4508 9.43828 10.0493 9.4409 9.64836 9.44353C9.49687 9.42935 9.349 9.55421 9.36046 9.70533C9.35508 13.1093 9.36152 16.5142 9.3572 19.9187C9.36593 20.3896 9.04531 20.8422 8.58796 21.0012C7.53164 21.3686 4.51663 19.4261 4.51663 19.4261C4.40599 19.3752 4.33573 19.2561 4.34657 19.1378C4.34657 15.7129 4.34711 12.2879 4.34657 8.86349C4.33136 8.72542 4.41711 8.60108 4.54488 8.54471C7.67196 6.83673 10.7974 5.12447 13.9245 3.41544C14.0331 3.34351 14.1845 3.34373 14.2929 3.41597C17.42 5.12447 20.546 6.83516 23.6736 8.54322C23.8018 8.5995 23.8839 8.72594 23.8708 8.86349C23.8703 12.2879 23.8719 15.7129 23.8698 19.1374C23.879 19.2586 23.8159 19.376 23.7019 19.4292C20.604 21.1279 17.4708 22.7719 14.401 24.52C14.2671 24.5962 14.1153 24.6825 13.9652 24.5985C13.1579 24.1554 12.3605 23.6951 11.5558 23.2477C11.4684 23.1935 11.357 23.1703 11.2657 23.2309C10.905 23.4196 10.5657 23.5723 10.1514 23.7351C9.56962 23.9636 9.66256 24.0571 10.1873 24.3604C11.1283 24.8888 12.0708 25.4152 13.0117 25.9441C13.6312 26.3277 14.4635 26.355 15.1029 26.0005C18.2408 24.2846 21.3778 22.5666 24.5163 20.8506C25.1409 20.5345 25.5762 19.8802 25.5718 19.1911V8.8102C25.5779 8.14856 25.1818 7.50949 24.5896 7.18602C21.4412 5.45954 18.2914 3.73681 15.1426 2.01138Z" fill="#8CC84B"/>
<path d="M19.8768 9.80546C18.6452 9.15166 17.1801 9.11684 15.8115 9.20233C14.8227 9.29928 13.7828 9.57 13.0625 10.2733C12.3236 10.9803 12.1628 12.122 12.5138 13.045C12.7652 13.6972 13.3983 14.1213 14.0529 14.3457C14.8962 14.6411 15.7818 14.7324 16.6678 14.8238C17.4758 14.9071 18.2842 14.9905 19.0608 15.2287C19.3781 15.333 19.7476 15.4926 19.8447 15.8352C19.9345 16.2408 19.8361 16.7124 19.5042 16.9942C18.4499 17.8222 15.5173 17.6953 14.4756 17.0436C14.0545 16.766 13.873 16.2745 13.7992 15.8061C13.791 15.6602 13.6726 15.5263 13.5129 15.5374C13.113 15.5327 12.7131 15.5337 12.3132 15.5369C12.1737 15.5253 12.0287 15.6238 12.021 15.7651C11.9388 17.9103 13.9244 18.8455 15.7871 19.0514C16.8513 19.152 17.9389 19.1463 18.9869 18.9196C19.7747 18.7417 20.5646 18.4139 21.1069 17.8118C21.7757 17.08 21.9071 15.9906 21.6072 15.0791C21.378 14.399 20.7227 13.9627 20.0529 13.7382C19.142 13.4283 18.0626 13.2617 17.2376 13.1838C16.0384 13.0704 14.6135 13.1167 14.2741 12.3348C14.1387 11.9254 14.2539 11.417 14.633 11.1652C15.6362 10.49 17.678 10.5797 18.7169 11.0841C19.194 11.3211 19.4704 11.808 19.5845 12.2995C19.6057 12.4439 19.7036 12.5945 19.872 12.5882C20.2691 12.5961 20.6663 12.5903 21.0634 12.5909C21.1998 12.6003 21.3491 12.5239 21.3758 12.3853C21.3589 11.3581 20.8303 10.3065 19.8768 9.80546Z" fill="#8CC84B"/>
</svg>
