<svg width="28" height="28" viewBox="0 0 28 28" fill="none" xmlns="http://www.w3.org/2000/svg">
<g clip-path="url(#clip0_1441_6811)">
<path d="M1.1665 1.5166H26.8332V26.4833H1.1665V1.5166Z" fill="url(#paint0_radial_1441_6811)"/>
<path d="M1.16665 1.51675H26.8334V26.4835H1.16665V1.51675ZM0 27.6502H28V0.350098H0V27.6502ZM18.8767 11.5501C17.955 11.5501 17.6401 12.0168 17.6401 12.4018C17.6401 12.8218 17.85 13.1134 19.0867 13.7551C20.9184 14.6418 21.4901 15.4934 21.4901 16.7418C21.4901 18.6085 20.0667 19.6118 18.1417 19.6118C17.1267 19.6118 16.2517 19.4018 15.75 19.1101C15.6684 19.0752 15.6567 19.0168 15.6567 18.9235V17.2085C15.6567 17.0918 15.715 17.0568 15.7967 17.1151C16.5317 17.5935 17.3717 17.8035 18.1417 17.8035C19.0634 17.8035 19.4484 17.4185 19.4484 16.8934C19.4484 16.4735 19.18 16.1001 18.0017 15.4934C16.345 14.7001 15.6567 13.8951 15.6567 12.5535C15.6567 11.0484 16.8351 9.80011 18.8767 9.80011C19.88 9.80011 20.58 9.95181 20.965 10.1268C21.0584 10.1851 21.0817 10.2784 21.0817 10.3601V11.9584C21.0817 12.0517 21.0234 12.1101 20.9067 12.075C20.3934 11.7485 19.635 11.5501 18.8767 11.5501ZM8.84334 12.9385C9.11168 12.9618 9.3217 12.9618 9.78835 12.9618C11.1534 12.9618 12.4367 12.4835 12.4367 10.6285C12.4367 9.14682 11.515 8.40011 9.96337 8.40011C9.49672 8.40011 9.05335 8.42344 8.84334 8.43511V12.9385ZM6.76671 6.74343C6.76671 6.66177 6.93007 6.6034 7.02334 6.6034C7.77005 6.56841 8.87838 6.54507 10.0334 6.54507C13.265 6.54507 14.525 8.31841 14.525 10.5818C14.525 13.5451 12.3783 14.8168 9.74169 14.8168C9.29837 14.8168 9.14672 14.7934 8.83167 14.7934V19.2735C8.83167 19.3668 8.79668 19.4134 8.69169 19.4134H6.90669C6.81337 19.4134 6.76666 19.3784 6.76666 19.2735V6.74343H6.76671Z" fill="#31C5F0"/>
</g>
<defs>
<radialGradient id="paint0_radial_1441_6811" cx="0" cy="0" r="1" gradientUnits="userSpaceOnUse" gradientTransform="translate(9.61988 7.11167) scale(19.5067 18.886)">
<stop stop-color="#34364E" stop-opacity="0.98"/>
<stop offset="1" stop-color="#0C0824"/>
</radialGradient>
<clipPath id="clip0_1441_6811">
<rect width="28" height="28" fill="white"/>
</clipPath>
</defs>
</svg>
