<svg width="28" height="28" viewBox="0 0 28 28" fill="none" xmlns="http://www.w3.org/2000/svg">
<path d="M27.304 16.7726C27.1408 16.2783 26.7132 15.9339 26.1602 15.8512C25.8994 15.8123 25.6008 15.8289 25.2475 15.9018C24.6316 16.0289 24.1746 16.0772 23.8411 16.0866C25.0998 13.9614 26.1234 11.5377 26.7126 9.25634C27.6654 5.56748 27.1563 3.88696 26.5613 3.12676C24.9867 1.11484 22.6894 0.0339317 19.9178 0.000797788C18.4394 -0.0172467 17.1414 0.274671 16.4644 0.48454C15.834 0.373381 15.1561 0.311263 14.4448 0.299757C13.1117 0.278506 11.9337 0.569104 10.9272 1.16639C10.3698 0.978027 9.4756 0.71239 8.44279 0.542823C6.01364 0.144022 4.05591 0.454801 2.62393 1.46642C0.8899 2.69131 0.0860098 4.81942 0.234704 7.79172C0.281858 8.73544 0.8098 11.6066 1.64098 14.3297C2.11868 15.8948 2.62808 17.1946 3.15501 18.1931C3.90225 19.6091 4.70181 20.443 5.59944 20.7424C6.10261 20.91 7.01671 21.0274 7.97822 20.2267C8.10007 20.3742 8.2626 20.5209 8.47844 20.6571C8.75244 20.8299 9.08755 20.9712 9.42216 21.0548C10.6282 21.3564 11.7579 21.2809 12.7217 20.8584C12.7276 21.0297 12.7322 21.1935 12.7361 21.3349C12.7425 21.5644 12.7488 21.7893 12.7572 21.9996C12.8143 23.4219 12.9111 24.5277 13.1978 25.3014C13.2135 25.3441 13.2347 25.4089 13.2571 25.4776C13.4 25.9156 13.6393 26.6487 14.2477 27.2229C14.8779 27.8176 15.64 28.0001 16.338 28C16.6881 28 17.0221 27.9541 17.3151 27.8913C18.3594 27.6675 19.5455 27.3265 20.4034 26.1049C21.2146 24.95 21.6089 23.2106 21.6803 20.4697C21.6895 20.3922 21.698 20.3182 21.7063 20.2477C21.7118 20.2001 21.7175 20.1514 21.7232 20.1029L21.9143 20.1197L21.9636 20.123C23.0272 20.1715 24.3278 19.9459 25.1266 19.5749C25.7577 19.282 27.7802 18.2143 27.304 16.7726Z" fill="black"/>
<path d="M25.4854 17.0528C22.3228 17.7051 22.1053 16.6343 22.1053 16.6343C25.4446 11.6795 26.8405 5.39001 25.6358 3.8507C22.3495 -0.348246 16.6606 1.63759 16.5657 1.68914L16.5351 1.69461C15.9103 1.56491 15.211 1.48764 14.4251 1.47481C12.9941 1.45136 11.9086 1.84997 11.0849 2.47461C11.0849 2.47461 0.936561 -1.70611 1.40855 7.73265C1.50895 9.74068 4.2866 22.9263 7.59968 18.9436C8.81061 17.4873 9.9806 16.2559 9.9806 16.2559C10.5617 16.642 11.2574 16.8389 11.9867 16.7681L12.0434 16.72C12.0258 16.9009 12.0338 17.0777 12.0661 17.2871C11.2126 18.2407 11.4634 18.4081 9.75722 18.7593C8.0308 19.1151 9.045 19.7486 9.70717 19.9141C10.5099 20.1149 12.3671 20.3992 13.622 18.6426L13.572 18.843C13.9064 19.1108 14.1412 20.5853 14.1018 21.9218C14.0625 23.2584 14.0362 24.176 14.2997 24.8928C14.5632 25.6095 14.8258 27.2222 17.0687 26.7416C18.9429 26.34 19.9141 25.2992 20.0492 23.5631C20.1451 22.3288 20.3621 22.5113 20.3758 21.4078L20.5498 20.8854C20.7505 19.2123 20.5817 18.6726 21.7363 18.9236L22.0169 18.9482C22.8668 18.9869 23.9791 18.8116 24.6319 18.5081C26.0376 17.8558 26.8713 16.7666 25.4852 17.0528H25.4854Z" fill="#336791"/>
<path d="M11.679 8.63095C11.394 8.59127 11.1359 8.62799 11.0053 8.72683C10.9318 8.78247 10.9091 8.84691 10.903 8.8913C10.8866 9.00881 10.969 9.13871 11.0195 9.20573C11.1626 9.39541 11.3717 9.52581 11.5787 9.55455C11.6087 9.5587 11.6385 9.56071 11.6682 9.56071C12.0133 9.56071 12.3271 9.29199 12.3547 9.09363C12.3893 8.84522 12.0287 8.67961 11.679 8.63095Z" fill="white"/>
<path d="M21.1202 8.63854C21.0931 8.44382 20.7465 8.38831 20.4176 8.43401C20.0893 8.47978 19.7709 8.62798 19.7975 8.82313C19.8188 8.97491 20.0928 9.234 20.4172 9.23394C20.4445 9.23394 20.4722 9.23212 20.5001 9.22822C20.7166 9.19823 20.8755 9.06073 20.9509 8.98145C21.0659 8.86073 21.1324 8.72606 21.1202 8.63854Z" fill="white"/>
<path d="M26.538 16.9788C26.4174 16.6142 26.0293 16.4968 25.3844 16.63C23.4697 17.0252 22.784 16.7514 22.5588 16.5856C24.0471 14.3183 25.2714 11.5778 25.9319 9.02068C26.2448 7.80944 26.4176 6.68458 26.4317 5.76777C26.4473 4.76131 26.276 4.02186 25.9224 3.57012C24.4972 1.74895 22.4055 0.7721 19.8734 0.745253C18.1327 0.7257 16.662 1.17122 16.3769 1.29646C15.7764 1.14713 15.1219 1.05547 14.4093 1.04377C13.1025 1.02265 11.973 1.3355 11.0378 1.97316C10.6316 1.82201 9.58172 1.46162 8.29792 1.25484C6.07826 0.897405 4.3145 1.1682 3.05579 2.05992C1.55388 3.12398 0.860524 5.026 0.994883 7.71305C1.04009 8.61716 1.55514 11.3982 2.36808 14.0616C3.43811 17.5671 4.6012 19.5516 5.82508 19.9598C5.9683 20.0075 6.13353 20.041 6.31561 20.041C6.76207 20.041 7.30937 19.8397 7.87887 19.1551C8.82479 18.0171 9.70796 17.0635 10.0335 16.717C10.5146 16.9753 11.0431 17.1195 11.5837 17.134C11.5847 17.1481 11.5861 17.1622 11.5874 17.1763C11.4789 17.305 11.3899 17.4177 11.3141 17.514C10.9396 17.9894 10.8616 18.0884 9.65597 18.3366C9.31306 18.4074 8.4021 18.5951 8.38883 19.2336C8.37431 19.9312 9.46546 20.2241 9.58983 20.2552C10.0231 20.3637 10.4404 20.4172 10.8385 20.4172C11.8066 20.4171 12.6585 20.099 13.3393 19.4834C13.3183 21.9703 13.422 24.4209 13.7206 25.1676C13.9651 25.7788 14.5626 27.2726 16.4499 27.2725C16.7267 27.2725 17.0316 27.2403 17.3669 27.1684C19.3364 26.7461 20.1917 25.8756 20.5226 23.9565C20.6996 22.9309 21.0035 20.4816 21.1463 19.1679C21.4479 19.2619 21.8362 19.305 22.256 19.3049C23.1314 19.3049 24.1415 19.119 24.775 18.8249C25.4866 18.4945 26.7708 17.6834 26.538 16.9788ZM21.8476 8.10123C21.8411 8.48909 21.7877 8.84118 21.7311 9.20873C21.6702 9.60401 21.6072 10.0127 21.5914 10.5088C21.5757 10.9916 21.636 11.4936 21.6944 11.979C21.8122 12.9594 21.9331 13.9688 21.465 14.9648C21.3923 14.8356 21.3221 14.6947 21.2577 14.5386C21.1995 14.3975 21.0732 14.171 20.8984 13.8575C20.2178 12.6371 18.6242 9.7793 19.44 8.61314C19.683 8.26595 20.2996 7.90915 21.8476 8.10123ZM19.9713 1.53066C22.24 1.58077 24.0346 2.42949 25.3052 4.05311C26.2798 5.29849 25.2066 10.9652 22.1 15.8539C22.0694 15.8149 22.0381 15.7755 22.0058 15.7352C21.9929 15.719 21.9798 15.7026 21.9665 15.686C22.7693 14.3602 22.6123 13.0485 22.4726 11.8855C22.4152 11.4082 22.361 10.9574 22.3747 10.534C22.389 10.0851 22.4484 9.70027 22.5057 9.32806C22.5763 8.86934 22.648 8.39478 22.6282 7.83528C22.643 7.77662 22.649 7.70727 22.6412 7.62497C22.5907 7.08841 21.9782 5.48283 20.7297 4.02941C20.0468 3.23457 19.0508 2.34498 17.691 1.74499C18.2759 1.62377 19.0758 1.51073 19.9713 1.53066ZM7.27624 18.654C6.64883 19.4084 6.21551 19.2638 6.07304 19.2164C5.1446 18.9066 4.06741 16.9445 3.11765 13.8328C2.29584 11.1404 1.81556 8.43307 1.77758 7.67388C1.65756 5.2729 2.23957 3.59955 3.50753 2.70034C5.57101 1.23698 8.96362 2.11286 10.3268 2.55712C10.3072 2.57642 10.2868 2.59453 10.2674 2.61414C8.03046 4.87335 8.08352 8.73322 8.08899 8.96912C8.0888 9.06016 8.09641 9.18905 8.10691 9.36635C8.14539 10.0155 8.217 11.2238 8.02568 12.5922C7.84781 13.8637 8.23976 15.1083 9.10087 16.0067C9.19002 16.0997 9.28307 16.187 9.3792 16.2692C8.99587 16.6797 8.16287 17.5874 7.27624 18.654ZM9.66672 15.4644C8.97267 14.7403 8.65749 13.733 8.80184 12.7007C9.00392 11.2552 8.92929 9.99627 8.88924 9.31995C8.88364 9.22533 8.87867 9.1424 8.87572 9.07695C9.20253 8.78723 10.7169 7.97573 11.7969 8.2232C12.2898 8.33612 12.59 8.67167 12.7149 9.24897C13.3611 12.2375 12.8005 13.4831 12.35 14.4841C12.2571 14.6903 12.1694 14.8852 12.0945 15.0869L12.0365 15.2427C11.8895 15.6369 11.7527 16.0033 11.668 16.3513C10.9302 16.349 10.2125 16.0339 9.66672 15.4644ZM9.77995 19.4949C9.56455 19.4411 9.37078 19.3476 9.2571 19.27C9.35204 19.2253 9.52104 19.1646 9.81409 19.1043C11.2324 18.8122 11.4514 18.6062 11.9298 17.9988C12.0395 17.8596 12.1638 17.7018 12.3359 17.5095L12.3361 17.5092C12.5926 17.2222 12.7098 17.2708 12.9225 17.359C13.0949 17.4304 13.2628 17.6464 13.3309 17.8842C13.3631 17.9965 13.3993 18.2097 13.2809 18.3755C12.2817 19.7745 10.8257 19.7566 9.77995 19.4949ZM17.2026 26.4021C15.4675 26.7739 14.8531 25.8886 14.4483 24.8765C14.187 24.2231 14.0586 21.2767 14.1497 18.023C14.1509 17.9797 14.1448 17.9378 14.1328 17.8985C14.1224 17.8227 14.1065 17.7459 14.0843 17.6686C13.9488 17.1952 13.6186 16.7992 13.2225 16.635C13.0652 16.5698 12.7763 16.4501 12.4292 16.5389C12.5032 16.2339 12.6316 15.8896 12.7707 15.5166L12.8292 15.3597C12.8949 15.1828 12.9773 14.9996 13.0646 14.8057C13.536 13.7584 14.1817 12.3239 13.481 9.0833C13.2185 7.86954 12.342 7.27684 11.0133 7.41447C10.2167 7.4969 9.48804 7.8183 9.12457 8.00258C9.04642 8.04219 8.97493 8.08042 8.90816 8.1177C9.00958 6.8947 9.39291 4.60922 10.8267 3.16321C11.7293 2.25281 12.9316 1.80321 14.3964 1.82742C17.2825 1.8747 19.1333 3.35585 20.1778 4.5901C21.0779 5.65372 21.5652 6.72507 21.7598 7.30287C20.297 7.15418 19.3022 7.44295 18.7978 8.16391C17.7007 9.73221 19.3981 12.7762 20.2139 14.2392C20.3634 14.5073 20.4926 14.739 20.5332 14.8375C20.7988 15.4813 21.1427 15.9111 21.3939 16.2249C21.4708 16.321 21.5455 16.4142 21.6023 16.4957C21.1593 16.6234 20.3635 16.9185 20.436 18.3935C20.3775 19.1337 19.9616 22.599 19.7503 23.8233C19.4714 25.4408 18.8762 26.0433 17.2026 26.4021ZM24.445 18.1141C23.992 18.3244 23.2339 18.4821 22.5137 18.516C21.7182 18.5532 21.3133 18.4269 21.2181 18.3492C21.1733 17.43 21.5155 17.3339 21.8776 17.2322C21.9345 17.2162 21.99 17.2007 22.0436 17.1819C22.0769 17.209 22.1134 17.2359 22.1533 17.2623C22.7926 17.6843 23.933 17.7298 25.5429 17.3975C25.5488 17.3963 25.5547 17.3951 25.5605 17.3939C25.3435 17.5969 24.9719 17.8694 24.445 18.1141Z" fill="white"/>
</svg>
