<svg width="28" height="28" viewBox="0 0 28 28" fill="none" xmlns="http://www.w3.org/2000/svg">
<path fill-rule="evenodd" clip-rule="evenodd" d="M11.3894 1.75C9.46689 1.75 7.90847 3.25896 7.90847 5.12037V7.45371H13.9331V8.10185H5.23087C3.30844 8.10185 1.75 9.61083 1.75 11.4722V16.5278C1.75 18.3892 3.30844 19.8981 5.23087 19.8981H7.23907V17.0463C7.23907 15.1849 8.79751 13.6759 10.72 13.6759H17.1462C18.7729 13.6759 20.0915 12.3991 20.0915 10.8241V5.12037C20.0915 3.25896 18.5331 1.75 16.6107 1.75H11.3894ZM10.5861 5.89815C11.2515 5.89815 11.791 5.37581 11.791 4.73148C11.791 4.08715 11.2515 3.56481 10.5861 3.56481C9.92058 3.56481 9.38114 4.08715 9.38114 4.73148C9.38114 5.37581 9.92058 5.89815 10.5861 5.89815Z" fill="url(#paint0_linear_1439_6611)"/>
<path fill-rule="evenodd" clip-rule="evenodd" d="M16.6103 26.2502C18.5328 26.2502 20.0913 24.7412 20.0913 22.8799V20.5465H14.0666V19.8984H22.7689C24.6913 19.8984 26.2497 18.3894 26.2497 16.528V11.4724C26.2497 9.61101 24.6913 8.10205 22.7689 8.10205H20.7606V10.9539C20.7606 12.8153 19.2022 14.3243 17.2798 14.3243H10.8535C9.22684 14.3243 7.9082 15.6011 7.9082 17.1761V22.8799C7.9082 24.7412 9.46667 26.2502 11.389 26.2502H16.6103ZM17.4137 22.1021C16.7482 22.1021 16.2087 22.6244 16.2087 23.2687C16.2087 23.9131 16.7482 24.4353 17.4137 24.4353C18.0791 24.4353 18.6186 23.9131 18.6186 23.2687C18.6186 22.6244 18.0791 22.1021 17.4137 22.1021Z" fill="url(#paint1_linear_1439_6611)"/>
<defs>
<linearGradient id="paint0_linear_1439_6611" x1="10.9208" y1="1.75" x2="10.9208" y2="19.8981" gradientUnits="userSpaceOnUse">
<stop stop-color="#327EBD"/>
<stop offset="1" stop-color="#1565A7"/>
</linearGradient>
<linearGradient id="paint1_linear_1439_6611" x1="17.079" y1="8.10205" x2="17.079" y2="26.2502" gradientUnits="userSpaceOnUse">
<stop stop-color="#FFDA4B"/>
<stop offset="1" stop-color="#F9C600"/>
</linearGradient>
</defs>
</svg>
