<svg width="28" height="28" viewBox="0 0 28 28" fill="none" xmlns="http://www.w3.org/2000/svg">
<path d="M16.3438 13.9788C16.3438 12.7237 15.2944 11.7061 13.9998 11.7061C12.7053 11.7061 11.6558 12.7237 11.6558 13.9788C11.6558 15.2341 12.7053 16.2516 13.9998 16.2516C15.2944 16.2516 16.3438 15.2341 16.3438 13.9788Z" fill="#53C1DE"/>
<path fill-rule="evenodd" clip-rule="evenodd" d="M21.6128 9.75949C22.1078 7.80918 22.73 4.19254 20.5366 2.96639C18.3534 1.74558 15.5124 4.08488 14.0122 5.48903C12.5164 4.09887 9.59551 1.76957 7.40393 2.99962C5.22157 4.22453 5.89456 7.7812 6.40054 9.74374C4.36477 10.3043 0.875 11.5118 0.875 13.9789C0.875 16.439 4.36114 17.7527 6.38486 18.3128C5.87701 20.2862 5.23771 23.792 7.42286 25.0142C9.62264 26.244 12.5344 23.9702 14.0485 22.5507C15.5583 23.9631 18.372 26.2518 20.5557 25.0262C22.7462 23.7968 22.1757 20.2286 21.6696 18.2547C23.6314 17.6934 27.125 16.4083 27.125 13.9789C27.125 11.5356 23.6165 10.3183 21.6128 9.75949ZM21.3642 17.2086C21.0319 16.1889 20.5835 15.1045 20.035 13.9843C20.5586 12.8906 20.9896 11.8202 21.3126 10.807C22.7814 11.2199 26.0037 12.1636 26.0037 13.9789C26.0037 15.8112 22.9115 16.7639 21.3642 17.2086ZM19.9938 24.0852C18.3645 24.9996 15.9443 22.8109 14.8293 21.7708C15.569 20.9863 16.3082 20.0744 17.0297 19.0618C18.2988 18.9527 19.4976 18.7742 20.5849 18.5305C20.941 19.9267 21.6302 23.1668 19.9938 24.0852ZM7.98317 24.0722C6.35375 23.1612 7.09851 20.0328 7.47212 18.5791C8.5473 18.8098 9.73753 18.9757 11.0096 19.0757C11.7358 20.0665 12.4964 20.9773 13.2629 21.775C12.3159 22.6632 9.62019 24.9874 7.98317 24.0722ZM1.9963 13.9789C1.9963 12.1397 5.19931 11.2029 6.70166 10.791C7.0302 11.8269 7.46108 12.9101 7.98108 14.0054C7.45434 15.117 7.0173 16.2173 6.68574 17.2655C5.25323 16.8679 1.9963 15.8192 1.9963 13.9789ZM7.96574 3.9406C9.60181 3.02239 12.1404 5.2586 13.2264 6.26511C12.4639 7.0591 11.7102 7.96302 10.9903 8.94819C9.75572 9.05914 8.57391 9.23729 7.48745 9.47599C7.07984 7.89312 6.33143 4.85782 7.96574 3.9406ZM17.8319 10.13C18.6694 10.2324 19.4719 10.3687 20.2254 10.5355C19.9992 11.2385 19.7172 11.9736 19.3852 12.7271C18.9038 11.8416 18.3872 10.9739 17.8319 10.13ZM14.0125 7.04209C14.5297 7.58535 15.0477 8.19201 15.5573 8.85019C14.5237 8.80276 13.4884 8.80259 12.4548 8.84949C12.9648 8.19742 13.4872 7.59166 14.0125 7.04209ZM8.62444 12.7263C8.29788 11.9754 8.01848 11.2371 7.79032 10.5241C8.53928 10.3616 9.338 10.2287 10.1701 10.1279C9.61328 10.97 9.09746 11.8374 8.62444 12.7263ZM10.194 17.9075C9.33441 17.8145 8.5236 17.6884 7.77487 17.5304C8.00664 16.8048 8.29218 16.0506 8.62571 15.2834C9.10525 16.1816 9.62894 17.0574 10.194 17.9075ZM14.0436 20.9926C13.5121 20.4365 12.9819 19.8215 12.4642 19.16C13.5037 19.1995 14.5452 19.1996 15.5846 19.1546C15.0735 19.8282 14.5573 20.4441 14.0436 20.9926ZM19.3959 15.2444C19.7467 16.0198 20.0425 16.77 20.2774 17.4833C19.5163 17.6517 18.6945 17.7873 17.8287 17.8881C18.3881 17.0281 18.913 16.1469 19.3959 15.2444ZM16.4039 18.0198C14.8138 18.13 13.2139 18.1288 11.6233 18.0288C10.7195 16.7488 9.91497 15.4026 9.22049 14.0051C9.91165 12.6104 10.7104 11.2668 11.6099 9.98882C13.2016 9.87219 14.8031 9.87184 16.3948 9.98952C17.2866 11.2675 18.0841 12.6075 18.7912 13.9896C18.0925 15.3835 17.2896 16.7298 16.4039 18.0198ZM19.9765 3.90827C21.613 4.82347 20.8846 8.07385 20.5271 9.48727C19.438 9.24359 18.2554 9.06229 17.0173 8.94959C16.2959 7.95378 15.5486 7.04828 14.7983 6.26455C15.8983 5.23636 18.3558 3.00203 19.9765 3.90827Z" fill="#53C1DE"/>
</svg>
