<svg width="29" height="28" viewBox="0 0 29 28" fill="none" xmlns="http://www.w3.org/2000/svg">
<path d="M23.0635 15.3754C22.2941 15.3765 21.535 15.5524 20.8436 15.8899C20.6271 15.5307 20.4599 15.144 20.3466 14.7402C20.2814 14.4237 20.2664 14.0989 20.302 13.7777C20.3767 13.4243 20.4738 13.0759 20.5925 12.7347C20.5881 12.6901 20.5391 12.4792 20.0465 12.4722C19.5538 12.4652 19.1295 12.5658 19.084 12.6962C18.9984 12.9343 18.9297 13.1782 18.8783 13.4259C18.4706 14.4318 17.9688 15.3968 17.3795 16.3082C17.0493 15.7669 16.9135 15.1293 16.9945 14.5004C17.0692 14.147 17.1663 13.7987 17.285 13.4574C17.2806 13.4128 17.2316 13.2019 16.739 13.1949C16.2463 13.1879 15.822 13.2886 15.7765 13.4189C15.731 13.5493 15.6732 13.8564 15.5708 14.1487C15.4685 14.4409 14.2732 17.1114 13.96 17.8001C13.799 18.1501 13.6598 18.4353 13.5618 18.6278C13.5572 18.6403 13.5513 18.6523 13.5443 18.6637C13.4568 18.8291 13.4105 18.9192 13.4105 18.9192V18.9236C13.3431 19.0443 13.2713 19.1563 13.2355 19.1563C13.1729 18.9063 13.1759 18.6444 13.2442 18.3959C13.4192 17.4693 13.848 16.0291 13.8436 15.9792C13.8436 15.9521 13.9241 15.7018 13.5662 15.5723C13.4832 15.5328 13.39 15.52 13.2994 15.5357C13.2088 15.5514 13.1254 15.5947 13.0605 15.6598C13.029 15.6598 13.0071 15.7359 13.0071 15.7359C13.0071 15.7359 13.3965 14.1163 12.2642 14.1163C11.8233 14.205 11.4046 14.381 11.0326 14.6339C10.6607 14.8868 10.3431 15.2115 10.0986 15.5889C9.79408 15.7543 9.1457 16.1078 8.45183 16.4884C8.18933 16.6363 7.91458 16.7842 7.65995 16.9259C7.64245 16.9084 7.62408 16.8857 7.60658 16.8682C6.22845 15.3999 3.69533 14.3639 3.8047 12.3996C3.84495 11.6838 4.09083 9.80432 8.66883 7.52145C12.4366 5.6647 15.4352 6.1792 15.9541 7.3202C16.697 8.94945 14.3476 11.9743 10.4547 12.4127C10.024 12.5001 9.57924 12.4895 9.15319 12.3818C8.72715 12.2742 8.33076 12.0721 7.99333 11.7906C7.7877 11.5666 7.7562 11.5534 7.68008 11.5981C7.55495 11.6654 7.63545 11.8667 7.68008 11.9831C7.82859 12.2518 8.02946 12.4881 8.27082 12.6779C8.51218 12.8677 8.78914 13.0072 9.08533 13.0882C10.6168 13.4191 12.2135 13.2609 13.6502 12.6358C16.0127 11.7232 17.8502 9.1857 17.3112 7.06032C16.7696 4.90345 13.19 4.19207 9.80195 5.39782C7.67986 6.11189 5.71905 7.23664 4.03133 8.70795C2.16495 10.4536 1.87008 11.9699 1.99083 12.6061C2.42833 14.8618 5.53545 16.3292 6.77883 17.4186C6.71583 17.4544 6.65808 17.4859 6.60908 17.5122C5.98695 17.8211 3.6157 19.0609 3.02158 20.3717C2.35045 21.8592 3.1292 22.9223 3.6437 23.0658C4.41896 23.2514 5.23281 23.1903 5.97165 22.891C6.71049 22.5917 7.33743 22.0691 7.76495 21.3963C8.12901 20.8383 8.35279 20.2005 8.41723 19.5373C8.48168 18.8741 8.38488 18.2052 8.13508 17.5874C8.13086 17.5775 8.12494 17.5683 8.11758 17.5603L8.60495 17.2742C8.92258 17.0861 9.23583 16.9119 9.50445 16.7684C9.3223 17.2938 9.21536 17.8424 9.18683 18.3977C9.12498 19.2489 9.38547 20.0922 9.91658 20.7602C9.99739 20.8298 10.0912 20.8826 10.1926 20.9156C10.294 20.9487 10.4009 20.9613 10.5072 20.9527C11.0322 20.9527 11.2728 20.5152 11.5362 19.9954C11.8582 19.3602 12.1487 18.6217 12.1487 18.6217C12.1487 18.6217 11.7865 20.6176 12.7708 20.6176C13.1287 20.6176 13.491 20.1521 13.6528 19.9176V19.9219C13.6528 19.9219 13.6616 19.9088 13.68 19.8773L13.7377 19.7837V19.7749C13.8812 19.5247 14.2032 18.9559 14.6818 18.0118C15.2996 16.7947 15.8946 15.2731 15.8946 15.2731C15.952 15.6075 16.0312 15.9378 16.1317 16.2618C16.2758 16.6546 16.4462 17.0373 16.6418 17.4072C16.4983 17.6084 16.4091 17.7204 16.4091 17.7204L16.4135 17.7248C16.2971 17.8771 16.172 18.0424 16.0328 18.2034C15.6189 18.6585 15.2348 19.1399 14.8831 19.6446C14.8308 19.7293 14.8128 19.8308 14.8328 19.9284C14.8528 20.026 14.9093 20.1122 14.9907 20.1696C15.1749 20.2654 15.3849 20.3001 15.5901 20.2684C15.8993 20.251 16.2034 20.1815 16.4896 20.0628C16.7661 19.9655 17.027 19.8285 17.264 19.6559C17.5083 19.4867 17.705 19.2574 17.8351 18.9901C17.9652 18.7229 18.0243 18.4267 18.0068 18.1299C17.9793 17.7562 17.8838 17.3906 17.7251 17.0511C17.7697 16.9881 17.8126 16.9259 17.8546 16.8629C18.352 16.1204 18.8004 15.3461 19.1968 14.5451C19.2542 14.8795 19.3334 15.2098 19.434 15.5338C19.5528 15.8733 19.6991 16.2025 19.8715 16.5182C19.2992 16.9585 18.8484 17.5373 18.5616 18.1999C18.2798 19.0146 18.4986 19.3812 18.9116 19.4661C19.1376 19.4816 19.3635 19.4354 19.5652 19.3322C19.8617 19.2347 20.1411 19.0912 20.393 18.9069C20.6586 18.7502 20.881 18.5299 21.0403 18.2658C21.1996 18.0017 21.2908 17.7021 21.3056 17.3941C21.2857 17.0866 21.2163 16.7843 21.1 16.4989C21.8552 16.2039 22.674 16.1098 23.4765 16.2259C25.6062 16.4762 26.0271 17.8053 25.9466 18.3653C25.9088 18.5638 25.829 18.752 25.7125 18.9171C25.596 19.0822 25.4455 19.2205 25.2711 19.3226C25.1232 19.4162 25.0742 19.4477 25.0873 19.5151C25.1048 19.6139 25.1748 19.6087 25.3017 19.5912C25.6227 19.4914 25.9059 19.2967 26.114 19.0327C26.322 18.7687 26.4452 18.4479 26.4672 18.1124C26.5346 16.7999 25.2816 15.3606 23.0661 15.3737L23.0635 15.3754ZM6.63095 20.9124C5.92395 21.6824 4.93958 21.9729 4.51433 21.7271C4.05758 21.4646 4.23695 20.3271 5.10495 19.5116C5.61985 19.0481 6.17637 18.633 6.76745 18.2717C6.8707 18.2087 7.02295 18.1194 7.20495 18.0092L7.25395 17.9821L7.36158 17.9147C7.51665 18.4343 7.53071 18.9857 7.40232 19.5125C7.27392 20.0393 7.0077 20.5225 6.63095 20.9124ZM11.7768 17.4124C11.531 18.0118 11.0165 19.5474 10.7032 19.4617C10.4346 19.3899 10.2657 18.2262 10.6498 17.0764C10.8438 16.523 11.1263 16.0046 11.4863 15.5417C11.8713 15.1121 12.2966 14.9686 12.399 15.1436C12.3056 15.9266 12.0959 16.6913 11.7768 17.4124ZM16.0232 19.4442C15.92 19.4976 15.822 19.5317 15.7773 19.5072C15.7458 19.4897 15.822 19.4197 15.822 19.4197C15.822 19.4197 16.3548 18.8466 16.5648 18.5876C16.6856 18.4353 16.8273 18.2568 16.9813 18.0547V18.1124C16.9813 18.7967 16.319 19.2578 16.0241 19.4459L16.0232 19.4442ZM19.2992 18.6969C19.2231 18.6436 19.2362 18.4642 19.4917 17.9051C19.6694 17.546 19.9175 17.2264 20.2215 16.9653C20.268 17.0978 20.2923 17.237 20.2932 17.3774C20.2967 17.6763 20.2011 17.9679 20.0214 18.2067C19.8418 18.4456 19.5882 18.6182 19.3001 18.6978L19.2992 18.6969Z" fill="#CD6799"/>
</svg>
