<svg width="29" height="28" viewBox="0 0 29 28" fill="none" xmlns="http://www.w3.org/2000/svg">
<g clip-path="url(#clip0_1441_6705)">
<path d="M0.217285 14V28H14.2173H28.2173V14V0H14.2173H0.217285V14Z" fill="#007ACC"/>
<path d="M6.40931 14.093L6.40042 15.2397H8.22265L10.0449 15.2397V20.4174V25.5952H11.3338H12.6226V20.4174L12.6226 15.2397H14.4449H16.2671V14.1152C16.2671 13.493 16.2538 12.973 16.236 12.9597C16.2226 12.9419 14.0049 12.933 11.316 12.9374L6.42265 12.9508L6.40931 14.093Z" fill="white"/>
<path d="M22.8105 12.9181C23.5216 13.0959 24.0639 13.4114 24.5616 13.927C24.8194 14.2026 25.2016 14.7048 25.2327 14.8248C25.2416 14.8603 24.0239 15.6781 23.2861 16.1359C23.2594 16.1537 23.1527 16.0381 23.0327 15.8603C22.6727 15.3359 22.295 15.1092 21.7172 15.0692C20.8683 15.0114 20.3216 15.4559 20.3261 16.1981C20.3261 16.4159 20.3572 16.5448 20.4461 16.7226C20.6327 17.1092 20.9794 17.3403 22.0683 17.8114C24.0727 18.6737 24.9305 19.2425 25.4639 20.0514C26.0594 20.9537 26.1927 22.3937 25.7883 23.4648C25.3439 24.6292 24.2416 25.4203 22.6905 25.6825C22.2105 25.767 21.0727 25.7537 20.5572 25.6603C19.4327 25.4603 18.3661 24.9048 17.7083 24.1759C17.4505 23.8914 16.9483 23.1492 16.9794 23.0959C16.9927 23.0781 17.1083 23.007 17.2372 22.9314C17.3616 22.8603 17.8327 22.5892 18.2772 22.3314L19.0816 21.8648L19.2505 22.1137C19.4861 22.4737 20.0016 22.967 20.3127 23.1314C21.2061 23.6025 22.4327 23.5359 23.0372 22.9937C23.295 22.7581 23.4016 22.5137 23.4016 22.1537C23.4016 21.8292 23.3616 21.687 23.1927 21.4425C22.975 21.1314 22.5305 20.8692 21.2683 20.3225C19.8239 19.7003 19.2016 19.3137 18.6327 18.7003C18.3039 18.3448 17.9927 17.7759 17.8639 17.3003C17.7572 16.9048 17.7305 15.9137 17.815 15.5137C18.1127 14.1181 19.1661 13.1448 20.6861 12.8559C21.1794 12.7626 22.3261 12.7981 22.8105 12.9181Z" fill="white"/>
</g>
<defs>
<clipPath id="clip0_1441_6705">
<rect width="28" height="28" fill="white" transform="translate(0.217285)"/>
</clipPath>
</defs>
</svg>
